<?xml version="1.0" encoding="UTF-8"?>
<svg id="Layer_1" data-name="Layer 1" xmlns="http://www.w3.org/2000/svg" viewBox="0 0 4417.69 4461.7">
  <path d="m4415.8,1683.45c-8.48-34.2-43.1-55.06-77.3-46.57-30.17,7.48-49.88,35.3-48.3,65.24l-158.4,39.29c-218.2-851.07-991.74-1482.01-1909.9-1482.01-.31,0-.61.01-.93.01V126.41c29.44-5.67,51.71-31.5,51.71-62.59,0-35.24-28.58-63.82-63.82-63.82s-63.81,28.58-63.81,63.82c0,31.08,22.24,56.92,51.68,62.59v133.31c-1075.49,13.54-1946.29,892.49-1946.29,1971.14,0,158.28,18.88,312.22,54.28,459.8l-183.04,45.4c-12.59-27.21-43.02-42.59-73.19-35.11-34.2,8.48-55.07,43.1-46.58,77.3,8.49,34.2,43.1,55.06,77.3,46.58,30.17-7.48,49.88-35.3,48.31-65.23l182.96-45.38c214.11,846.33,976.99,1476.33,1886.25,1487.78v133.31c-29.43,5.68-51.68,31.51-51.68,62.59,0,35.24,28.57,63.82,63.81,63.82s63.82-28.58,63.82-63.82c0-31.09-22.27-56.92-51.71-62.59v-133c.31,0,.61.01.93.01,1087.06,0,1971.43-884.39,1971.43-1971.46,0-1.8-.06-3.59-.06-5.39,0-.37.06-.75.06-1.12,0-.57-.1-1.14-.1-1.71-.65-157.56-19.93-310.79-55.66-457.67l158.47-39.3c12.6,27.2,43.04,42.59,73.2,35.1,34.2-8.48,55.07-43.1,46.57-77.3Zm-246.8,541.89c-2.99,200.22-891.42,369.17-1942.77,369.17-1.76,0-3.5-.01-5.26-.01v-251.37c56.68-6.05,100.84-54,100.84-112.28,0-5.18-.47-10.24-1.15-15.24l1119.86-277.76c439.35,68.23,725.99,171.58,728.45,285.03.02.83.03,1.65.03,2.47Zm-3216.6,5.5c0-97.04,4.7-192.41,13.65-285.68,334.99-55.26,766.18-89.56,1230.66-90.95v264.35c-56.67,6.06-100.82,54-100.82,112.28,0,5.18.47,10.25,1.15,15.24l-1074.12,266.42c-19.64-3.01-39.05-6.07-58.09-9.21-8.14-89.06-12.44-179.99-12.44-272.44Zm-12.26,268.27c-400.36-68.36-656.77-167.08-656.77-274.78s256.94-206.64,657.98-275.01c-8.64,91.98-13.2,185.94-13.2,281.52s4.14,180.52,11.99,268.27Zm378.1-1636.43c254.62-37.37,558.41-58.15,878.47-59.69v605.3c-451.69-2.12-828.88-41.35-1093.7-98.12,57.7-164.81,130.39-315.4,215.23-447.49Zm-238.76,442.29c-252.31-56.52-396.44-129.09-396.44-199.34,0-76.6,163.41-153.44,448.34-210.82,49.23-9.91,101.4-19.01,155.72-27.41-81.6,130.12-151.62,277.28-207.62,437.56Zm256.21-468.88c223.41-334.71,526.64-543.69,861.02-552.04v494.62c-301.23,1.56-604.4,21.48-861.02,57.43Zm2451.08,269.55c0,76.6-163.41,153.47-448.35,210.84-294.64,59.34-686.53,92.02-1103.51,92.02-4.7,0-9.27-.07-13.95-.07v-605.55c4.67,0,9.29-.07,13.95-.07,928.29,0,1551.86,156.59,1551.86,302.83Zm-1590.06,327v397.32c-470.55,1.32-896.26,34.19-1227.99,88.81,21.84-207.81,65.11-404.68,126.23-585.09,293.67,62.02,699.44,96.88,1101.76,98.96Zm-1176.18,1105.44c323.74,49.69,729.75,79.35,1176.18,80.61v1558.96c-617.51-15.42-1128.82-715.14-1227.15-1626.93l50.97-12.64Zm65.64-16.28l1016.69-252.17c14.5,39.61,50.44,68.87,93.84,73.5v251.31c-410.72-1.24-795.37-28.2-1110.53-72.64Zm1228.64-329.73c-14.5-39.62-50.45-68.88-93.86-73.51v-264.41c1.76,0,3.5-.01,5.26-.01,426.77,0,826.69,27.84,1151.45,74.31l-1062.85,263.62Zm-88.6-362.18c-1.76,0-3.5.01-5.26.01v-397.19c4.65,0,9.3.03,13.95.03,773.38,0,1573.26-121.93,1576.04-326.04,135.52,191.02,237.51,407.41,297.31,640.54l-665.31,165.02c-332.61-51.81-753.59-82.37-1216.73-82.37Zm-4.34-1546.25c605.35,0,1147.03,277.7,1504.44,712.37-225.61-137.99-867.11-217.45-1491.42-217.45-4.65,0-9.3.03-13.95.03v-494.94c.31,0,.61-.01.93-.01Zm-274.61,19.46c-248.2,81.26-470.15,271.98-643.05,537.51-376.67,55.54-645.42,146.47-645.42,265.03,0,92.28,162.8,167.81,412.52,222.95-61.98,183.33-105.68,383.34-127.41,594.37-360.01,61.34-604.62,148.71-668.26,248.99,28.49-953.99,746.49-1737.68,1671.62-1868.86ZM275.26,2276.13c62.99,100.39,307.33,187.88,667.3,249.33.23,2.27.43,4.55.65,6.82l-614.97,152.53c-31.55-131.6-49.76-268.31-52.98-408.68Zm58.74,432.23l611.85-151.76c87.07,797.2,488.04,1433.91,1001.42,1601.99-785.52-111.38-1421.69-693.16-1613.28-1450.23Zm1887.89,1469.69c-.31,0-.61-.01-.93-.01v-1559.3c1.76,0,3.5.01,5.26.01,993.29,0,1792.66-140.51,1941.92-329.97-30.76,1046.98-891.96,1889.26-1946.25,1889.26Zm1945.72-2018.83c-75.91-95.37-316.61-178.29-663.84-237.07l610.26-151.36c30.44,125.23,48.74,255.13,53.58,388.43Z"/>
</svg>