<?xml version="1.0" encoding="UTF-8"?>
<svg id="Layer_1" data-name="Layer 1" xmlns="http://www.w3.org/2000/svg" viewBox="0 0 4042.69 4070">
  <path d="m4042.69,2035c0-41.51-26.59-76.83-63.6-90.08-45.81-1003.76-852.8-1812.36-1855.92-1860.65-5.69-47.4-46.08-84.27-94.99-84.27s-89.29,36.88-94.98,84.27C931.35,132.49,125.1,939.08,77.41,1941.06c-44.05,8.58-77.41,47.42-77.41,93.94s33.37,85.35,77.41,93.93c27.18,571.27,300.97,1078.99,716.99,1418.91-1.37,5.38-2.31,10.92-2.31,16.72,0,37.73,30.7,68.43,68.43,68.43,12.15,0,23.4-3.45,33.3-9.02,295.87,211.83,653.07,343.16,1039.37,361.75,5.69,47.4,46.07,84.29,94.98,84.29s89.3-36.89,94.99-84.29c1003.13-48.28,1810.12-856.89,1855.92-1860.65,37.01-13.25,63.6-48.56,63.6-90.06Zm-1921.65,1916.35c-10.31-41.75-47.98-72.83-92.86-72.83s-82.55,31.08-92.85,72.83c-377.41-18.07-726.61-145.66-1016.38-351.68,3.46-5.74,6.11-11.98,7.77-18.65l344.19-99.02c226.5,119.02,484.13,186.5,757.26,186.5,900.7,0,1633.49-732.79,1633.49-1633.5,0-594.88-319.69-1116.43-796.25-1402.08,1.63-5.84,2.78-11.87,2.78-18.22,0-37.73-30.69-68.43-68.42-68.43-20.29,0-38.34,9.04-50.88,23.11-217.52-107.4-462.17-167.88-720.72-167.88-900.71,0-1633.5,732.79-1633.5,1633.5,0,463.7,194.24,882.89,505.6,1180.51l-55.28,282.56c-13.08,3.06-24.7,9.81-33.71,19.18-405.51-333.51-672.27-829.8-699.41-1387.98,45.12-7.7,79.6-46.98,79.6-94.26s-34.48-86.57-79.6-94.28C159.72,957.17,951.6,165.76,1935.33,118.65c10.31,41.74,47.96,72.83,92.85,72.83s82.54-31.09,92.85-72.83c983.28,47.09,1774.91,837.8,1823.39,1820.73-51.62,1.36-93.2,43.68-93.2,95.62s41.58,94.25,93.2,95.6c-48.47,982.93-840.1,1773.65-1823.38,1820.74Zm649.58-3274.99l6.36,279.6c-62.74-43.67-129.45-82.02-199.47-114.38l173.46-179.05c5.62,5.74,12.31,10.35,19.65,13.83Zm7.34,322.8l8.96,394.15c-117.81-139.08-273.02-245.4-450.02-303.36l214.97-221.9c80.06,36.07,155.76,80.06,226.09,131.11Zm123.54,1969.71c-11.76-11.2-27.44-18.18-44.77-18.78l-8.04-354.18c109.58-159.79,173.86-352.96,173.86-560.92,0-224.12-74.6-431.11-200.18-597.59l-9.36-411.84c300.71,234.33,494.67,599.54,494.67,1009.44,0,368.13-156.48,700.22-406.17,933.87Zm-860.1-1573.89c347,7.09,627.14,291.36,627.14,640.02s-287.26,640.35-640.35,640.35-621.87-269.15-639.46-606.64l652.68-673.74Zm-653.19,624.77c7.88-334.24,272.94-605.92,604.58-624.08l-604.58,624.08Zm638.91-659.51c-371.59.58-673.73,303.04-673.73,674.76,0,6.76.31,13.45.51,20.17l-194.42,200.69c-15.22-10.19-33.49-16.15-53.14-16.15-5.31,0-10.49.54-15.57,1.38-14.6-66.43-22.52-135.34-22.52-206.09,0-529.3,430.62-959.92,959.93-959.92,84.48,0,166.4,11.08,244.5,31.67l-245.57,253.49Zm-825.03,975.21c0-20.73-6.69-39.88-17.93-55.57l172.55-178.12c33.63,340.86,321.9,608.04,671.47,608.04,372.08,0,674.79-302.71,674.79-674.79s-278.48-649.71-629.52-673.1l236.82-244.46c191.81,59.09,358.02,176.89,477.93,332.21l25.81,1135.64c-173.8,247.45-461.15,409.64-785.83,409.64-392.11,0-729.85-236.43-878.7-574.12,31.16-15.81,52.61-48.1,52.61-85.36Zm1621.65-837.05c103.73,153.29,164.37,338,164.37,536.61,0,183.03-51.55,354.22-140.81,499.93l-23.56-1036.54Zm-523.87-419.71c-86.42-24.59-177.49-38.04-271.69-38.04-548.29,0-994.36,446.07-994.36,994.36,0,74.85,8.58,147.69,24.33,217.85-28.39,16.63-47.54,47.37-47.54,82.59s18.42,64.74,45.89,81.59l-70.27,359.16c-149.33-209.31-237.54-465.06-237.54-741.2,0-705.52,573.98-1279.49,1279.5-1279.49,173.54,0,339.04,34.88,490.07,97.75l-218.38,225.42Zm-1210.71,1350.88c5.58,1.02,11.31,1.63,17.18,1.63,3.31,0,6.59-.17,9.82-.5,153.29,351.93,504.3,598.67,912.02,598.67,320.06,0,605.1-152.16,787.1-387.78l7.19,316.55c-19.28,10.28-32.93,29.35-35.67,51.96l-986.24,283.72c-318.64-57.48-596.55-233.14-786.58-480.05l75.17-384.21Zm1702.12,615.06c1.75,4.18,3.88,8.16,6.39,11.86-214.31,161.84-480.85,258-769.48,258-49.2,0-97.66-3.07-145.43-8.5l908.53-261.37Zm-989.65,284.7c73.62,12.85,149.3,19.61,226.55,19.61,299.09,0,575.1-100.52,796.19-269.46,9.1,4.49,19.21,7.25,30.03,7.25,37.73,0,68.42-30.69,68.42-68.43,0-6.68-1.26-13.01-3.05-19.11,259.54-240.18,422.33-583.5,422.33-964.18,0-430.99-208.6-814.16-530.13-1053.9l-6.78-298.52c16.78-1.34,31.95-8.46,43.15-19.76,466.19,279.7,778.89,790.09,778.89,1372.19,0,881.72-717.34,1599.06-1599.06,1599.06-254.41,0-495.09-59.83-708.85-165.99l482.3-138.75Zm931.91-2698.3l-189.51,195.62c-158.46-67.9-332.84-105.57-515.86-105.57-724.51,0-1313.93,589.42-1313.93,1313.93,0,295.23,97.89,568.01,262.89,787.63l-68.96,352.48c-295.47-290.31-479.07-694.15-479.07-1140.12,0-881.72,717.35-1599.06,1599.07-1599.06,252.84,0,492.1,59.08,704.87,164.01-1.05,4.76-1.69,9.67-1.69,14.74,0,5.65.89,11.07,2.19,16.33ZM1005.22,2858.58c180.93,224.3,433.92,388.14,723.52,455.89l-454,130.61c-122.77-65.87-235.97-147.31-336.99-241.65l67.47-344.85Zm222.66,599.98l-301.99,86.87c-6.52-22.21-23.85-39.59-46.02-46.18l50.09-256.05c90.61,82.43,190.54,154.75,297.92,215.35Z"/>
  <path d="m2028.18,2390.22c195.86,0,355.22-159.35,355.22-355.22s-159.35-355.22-355.22-355.22-355.22,159.35-355.22,355.22,159.35,355.22,355.22,355.22Zm0-676.01c176.88,0,320.78,143.91,320.78,320.79s-143.9,320.79-320.78,320.79-320.79-143.91-320.79-320.79,143.9-320.79,320.79-320.79Z"/>
  <path d="m2028.18,2147.81c62.2,0,112.81-50.61,112.81-112.81s-50.6-112.81-112.81-112.81-112.81,50.61-112.81,112.81,50.61,112.81,112.81,112.81Zm0-191.2c43.23,0,78.39,35.16,78.39,78.39s-35.16,78.38-78.39,78.38-78.39-35.16-78.39-78.38,35.16-78.39,78.39-78.39Z"/>
</svg>