<?xml version="1.0" encoding="UTF-8"?>
<svg id="Layer_1" data-name="Layer 1" xmlns="http://www.w3.org/2000/svg" viewBox="0 0 3759.89 3759.89">
  <path d="m3759.18,12.83V0s-12.83,0-12.83,0C2490.11.74,1234.09.74,13.16,0H.32s0,12.83,0,12.83c.22,558.19.05,1125.73-.11,1674.58-.2,675.06-.41,1373.09.11,2059.64v12.83s12.83,0,12.83,0c1219.64-.68,2475.67-.68,3733.19,0h12.83s0-12.82,0-12.82c.95-1218.23.95-2474.61,0-3734.23ZM26.05,259.07c67.19-.41,134.32-4.82,200.72-10.86-2.43,47.06-5.26,93.82-8.05,139.99-.82,13.58-1.64,27.19-2.45,40.83-61.87,17.6-124,31.49-190.19,36.76,0-68.95-.01-137.87-.03-206.72ZM3511.51,89.09c8.37,56.85,16.83,114.37,24.5,172.25-29.53,5.31-58.82,10.9-87.8,16.45-22.58,4.32-45.53,8.7-68.63,12.96-17.69-60.76-36.62-120.93-55.35-180.41-8.88-28.2-17.73-56.35-26.43-84.44,68.14-.03,136.29-.06,204.45-.1,3.06,21.08,6.15,42.18,9.26,63.29Zm16.3,3174.91c-54.08-5.44-108.06-13.49-162.83-22.4,1.54-52.78.56-105.67-3.68-158.34,55.32,3.54,109.85,6.09,164.52,5.17,1.84,57.4,2.5,115.94,1.99,175.56Zm-2065.46,177.94c-9.84.07-19.69.03-29.55-.11.35-7.41.7-14.8,1.05-22.18,1.71-35.91,3.43-72.16,4.88-108.59,3.68.07,7.36.13,11.07.14.98,0,1.95,0,2.93,0,68.93,0,136.07-8.43,202.35-22.13-2.06,46.51-4.66,92.77-7.32,138.62-60.95,8.31-122.9,13.72-185.4,14.24Zm-60.18,116.59c-60.26-.06-121.8-.79-185.12-2.02,7.34-33.81,15.73-67.37,24.31-100.61,54.3,5.08,109.37,9.4,164.59,11.03-1.4,30.35-2.71,60.92-3.78,91.59Zm-1108.93-480c-88.01-20.32-177.31-36.6-267.57-43.54-.01-69.17-.02-138.34-.02-207.47,88.53,7.88,176.36,23.76,263.07,43.18,7.43,68.4,7.95,137.97,4.52,207.83Zm21.91-201.81c67.27,15.63,133.84,33.12,199.51,50.38,29.68,7.8,59.84,15.72,90.18,23.5,22.78,73.86,25.01,141.4,12.7,212.86-35.85-9.4-71.52-19.12-106.61-28.68-63.29-17.24-127.44-34.71-192.3-50.27,3.59-69.65,3.39-139.16-3.49-207.79Zm-11.13-79.14c-10.03-54.6-23.06-109.48-35.7-162.6,63.14,14.35,125.52,30.62,187.01,46.66,7.33,1.91,14.66,3.82,22,5.74,5.28,9.7,10.57,19.37,15.84,29.02,29.47,53.89,59.95,109.62,85.32,165.42,6.14,13.51,11.61,26.74,16.46,39.75-24.79-6.41-49.43-12.88-73.76-19.28-68.77-18.07-138.52-36.39-209.1-52.6-2.21-17.43-4.88-34.8-8.06-52.09ZM230.9,662.71c28.57-13.55,56.73-28.29,85.37-43.29,18.8-9.85,37.93-19.86,57.49-29.68-.79,74.67,7.41,145.6,19.21,211.62-23.94,10.49-47.42,21.28-70.42,31.87-30.53,14.06-60.54,27.87-90.72,40.59-2.98-70.5-2.84-140.98-.93-211.11Zm231.58-439.3c15.49-1.6,31-3.15,46.44-4.61,46.28-4.36,93.77-7.3,143.9-8.82-6.53,17.02-13.37,34.02-20.3,51.23-8.81,21.9-17.8,44.22-26.39,67.27-49.37,4.05-99.41,12.35-149.91,26.5-8.59,2.4-17.14,4.89-25.67,7.4,4.42-19.56,8.95-38.95,13.43-58.06,6.26-26.7,12.57-53.65,18.5-80.91Zm844.2,188.66c-64.74-7.04-129.59-18.5-193.25-30.48,6.89-23.85,14.15-47.29,21.29-70.33,8.85-28.55,17.55-56.64,25.41-84.82,65.66,3.09,133.4,5.76,202.7,7.67-9.81,33.81-20.77,67.58-31.94,101.95-8.1,24.92-16.33,50.26-24.21,76.01Zm2258.32,184.72c1.19,53.77-.1,108.19-2.66,162.53-17.97,10.02-35.58,20.68-53.44,31.5-15.47,9.37-31.17,18.88-47.49,28.19,3.53-52.94,3.09-105.59-2.83-159.65-2.42-22.12-5.38-44.19-8.78-66.2,19.84-8.22,39.22-16.68,58.27-25.01,18.52-8.09,36.8-16.08,55.1-23.68.82,17.45,1.44,34.9,1.83,52.32Zm-340.31,2075.12c17.26,43.69,35.11,88.87,51.6,133.72,7.16,19.48,13.63,39.1,19.45,58.84-14.18.95-28.39,1.93-42.65,2.99-19.82,1.47-39.91,4.44-59.34,7.31-16,2.37-31.62,4.67-46.94,6.2-7.78-14.55-16.34-29.23-25.73-44.15-19.15-30.44-39.48-61.85-59.15-92.23-12.54-19.36-25.1-38.77-37.57-58.23,19.91-2.26,39.84-5.41,59.53-8.53,22.9-3.62,44.52-7.05,65.82-9.09,23.62-2.27,47.46-4.41,71.17-6.47,1.27,3.22,2.54,6.44,3.81,9.65Zm-46.49,510.03c-1.39,13.62-3.01,27.19-4.79,40.73-52.93,2.31-103.81,10.89-156.01,20.22,2.45-7.68,4.87-15.35,7.25-23.04,3.04-9.82,6.37-19.89,9.75-30.15,9.65-29.25,20.09-60.92,25.91-92.83,12.26-1.6,24.43-3.28,36.48-4.93,28.44-3.92,56.21-7.74,83.8-10.49,2.16,31.54,1.27,64.64-2.39,100.49Zm-1956.17,246.32c-15.7-1.52-31.33-3.08-46.88-4.63-24.73-2.47-49.48-4.95-74.28-7.25-8.29-.77-16.6-1.48-24.9-2.17,23.3-48.16,46.04-96.96,63.22-147.01,12.01,1.78,24,3.73,35.93,5.9,17.48,3.17,34.81,6.5,52.06,9.81,9.86,1.9,19.64,3.78,29.38,5.61-9.5,43.62-20.76,86.87-31.91,129.66-.87,3.35-1.75,6.71-2.62,10.08Zm-281.99-23.09c-25.42-1.48-51.06-2.97-76.84-4.68l10.93-17.92c24.52-40.26,52.94-86.9,71.84-134.98,10.1.86,20.17,1.69,30.19,2.52,45.14,3.74,91.34,7.57,137.35,13.52-17.49,49.49-40.79,98.55-65,148.43-36.52-2.7-72.9-4.83-108.46-6.89Zm-338.19-534c-25.76-56.65-56.46-112.81-86.16-167.11-1.43-2.62-2.87-5.25-4.31-7.88,15.34,3.96,30.7,7.89,46.1,11.76,50.49,12.68,101.63,22.79,152.8,31.43,11.54,14.98,23.16,29.87,34.73,44.69,40.84,52.33,83.08,106.44,118.38,160.72,7.71,11.85,15.28,23.87,22.51,36.06-56.02-7.07-112.39-15.82-167.83-28.77-30.96-7.23-62.09-14.94-93.09-22.83-6.41-18.87-14.08-38.17-23.13-58.07Zm-220.11-462.18c6.14,1.3,12.3,2.61,18.52,3.96,43.92,9.54,88.26,18.28,132.62,26.5,33.04,98.33,91.38,186.02,154.49,269.87-41.5-7.46-82.84-16.03-123.66-26.28-23.11-5.8-46.15-11.74-69.15-17.72-44.48-82.14-87.46-166.64-112.83-256.33Zm90.94-1376.93c-11.44-44.74-23.28-91.01-33.9-136.6-5.89-25.28-11.64-51.54-16.85-78.67,11.37-4.83,22.82-9.57,34.37-14.12,46.48-18.34,93.67-30.43,143-36.31,7.12,25.43,15.11,51.4,23.79,78.02,15.09,46.29,31.75,93.02,47.86,138.22,3.19,8.96,6.4,17.95,9.6,26.95-52.37,3.63-105.96,13.39-162.47,29.18-13.59,3.8-27.16,7.75-40.68,11.79-1.57-6.16-3.15-12.32-4.72-18.46Zm-73.02-455.06c10.46-5.02,21.05-9.94,31.79-14.71,43.94-19.5,88.06-31.16,132.09-37.12-1.88,69.76,9.38,140.71,28.99,216.1-50.1,6.3-98.17,18.81-145.63,37.53-9.99,3.94-19.88,8-29.7,12.14-11.66-66.81-19.4-138.56-17.53-213.93Zm224.83-224.11c72.55-4.57,143.77-.06,212.85,8.2-4.37,13.19-8.56,26.62-12.48,40.33-10.52,36.85-16.76,73.42-19.59,109.65-68.68-12.22-141.12-20.07-214.45-14.26,2.9-34.85,9.44-69.43,20.28-104.15,4.22-13.51,8.71-26.75,13.38-39.76Zm427.93,218.04c-3.03-.85-6.06-1.7-9.08-2.55-52.7-14.83-107.2-30.17-160.98-41.86-16.91-3.68-34.16-7.3-51.67-10.7,2.58-35.54,8.57-71.35,18.85-107.34,4.28-14.98,8.91-29.66,13.76-44.1,17.5,2.33,34.85,4.85,52.04,7.5,51.49,7.91,103.92,17.9,154.63,27.57,3.73.71,7.47,1.42,11.21,2.14-4.32,15.95-8.42,32.11-12.15,48.53-9.28,40.78-14.53,81.13-16.6,120.83Zm856.41-166.95c44.03-4.66,88.72-10.62,135.8-16.91,69.71-9.3,140.54-18.76,210.47-23.96,7.87,17.51,14.96,35.59,20.89,54.41,10.49,33.34,13.65,67.89,11.48,103.07-16.29,2.05-32.38,4.05-48.11,5.77-110.77,12.08-223.02,27-331.56,41.43l-7.47.99c3.58-37.8,6.39-75.78,7.77-113.71.62-17.01.82-34.05.73-51.1Zm1368.42,323.58c6.78,53.44,5.59,104.68-.84,153.22-54.96,1.03-121.51-13.39-205.75-56.74,6.91-48.5,7.34-99.37-1.48-152.58-3.66-22.04-8.17-43.95-13.36-65.74,63.83,22.56,125.5,36.07,188.04,36.07,6.33,0,12.68-.15,19.03-.43,5.85,28.6,10.7,57.33,14.36,86.19Zm-239.39,2346.26c-22.9,2.77-45.98,5.11-68.99,6.38-41.93,2.33-84.03,3.97-125.92,5.26,5.38-25.7,8.47-51.97,7.9-78.96-1.2-57.46-10.16-116.88-26.29-175.77,33.54,9.34,65.4,18.71,95.07,27.64,16.15,4.86,32.55,10.61,49.91,16.7,4.77,1.67,9.56,3.35,14.37,5.02,29.21,52.6,51.84,106.71,55.01,159.83.67,11.14.21,22.46-1.08,33.9Zm-2499.18-713.39c-12.45-66.73-4.93-134.23,13.02-200.6,131.78,17.63,254.76,42.46,373.9,75.13-4.54,62.35-6.59,127.99-6.43,199.7.03,15.36.84,30.51,2.33,45.49-58.18-10.42-116.39-20.1-173.37-29.58-64.34-10.7-129.93-21.61-195.49-33.59-5.67-18.48-10.37-37.31-13.96-56.55Zm231.88-1044.49c2.61,13.9,4.98,27.84,7.02,41.83,10.56,72.34,3.78,142.4-12.98,210.76-58.76-2.71-118.83.59-181.91,7.15-14.7,1.53-29.44,3.15-44.18,4.84,10.67-62.98,14.65-127.3,7.39-193.32-1.81-16.49-3.96-32.95-6.36-49.37,77.13-13.21,154.44-22.42,231.01-21.88Zm-75.43-341.98c-16.05-45.03-32.65-91.6-47.64-137.56-8.07-24.75-15.52-48.9-22.23-72.56,65.32-4.84,134.72.88,211.38,17.12,8.21,30.46,17.43,60.49,27.05,90.05,14.47,44.43,30.8,89.66,46.59,133.4,3.96,10.96,7.93,21.96,11.88,32.99-72.85-21.67-142.97-31.31-214.86-29.2-4.06-11.45-8.13-22.87-12.19-34.25Zm3039.1,1125.84c-89.55-4.05-180.01-7.17-269.34-9.96,1.56-68,7.33-136.27,18.94-205.39,82.68,1.81,167.09,3.91,250.4,7.64,0,69.3,0,138.53,0,207.71Zm-2789.41,334.81c-.15-69.06,1.76-132.41,6-192.59,19.37,5.52,38.66,11.24,57.87,17.18,65.3,20.2,130.63,45.99,193.95,71.17.41,16.75,1.32,33.22,2.22,49.32,2.2,39.3,4.28,76.41-.68,115.09-1.83,14.26-3.06,28.48-3.78,42.65-15.79-3.44-31.51-6.92-47.15-10.37-43.4-9.59-88.28-19.51-132.51-28.28-24.2-4.79-48.53-9.4-72.91-13.86-1.92-16.58-2.97-33.34-3.01-50.32Zm-449.18-590.57c-10.39.28-20.8.62-31.22,1,26.68-77.71,53.06-156.83,69.24-238.13,17.26-2,34.51-3.92,51.7-5.71,59.82-6.22,116.83-9.43,172.53-7.19-24.69,87.65-64.49,172.58-103.65,255.99-52.05-5.42-104.84-7.4-158.6-5.96Zm-216.79,11.1c-9.31.59-18.65,1.18-28.02,1.77,10.2-73.29,16.31-145.57,19.32-217.34,44.09-5.1,87.85-10.71,131.11-16.25,34.67-4.44,70.03-8.96,105.51-13.23-16.68,80.33-43.33,158.89-69.87,236.07-53.11,2.34-106.22,5.7-158.05,8.98Zm-253.04,11.8c.02-60.01.03-119.87.05-179.55,0-9.45,0-18.92,0-28.38,73.07-2.2,146.15-8.54,218.46-16.53-3.11,71.4-9.33,143.25-19.64,216.04-65.74,4.01-132.62,7.53-198.88,8.41Zm758.37-271.46c77.35,5.63,152.63,22.68,229.97,57.88-6.83,89.04-20.74,180.03-41.99,276.15-95.43-38.38-191.94-63.73-291.06-76.39,39.3-83.76,78.75-169.06,103.07-257.63Zm256.28-193.05c-.81-11.47-1.89-22.9-3.2-34.3,12.93,5.55,25.8,11.61,38.6,18.22,61.87,31.91,122.45,68.67,181.33,104.99.9,16.84,1.16,33.68.71,50.5-1.94,71.5-4.32,148.17-8.41,227.65-48.49-34.85-98.36-69.53-150.04-100.29-19.67-11.71-39.13-22.2-58.44-31.58,5.26-78.99,5.02-156.66-.55-235.18Zm816.95-390.13c.66-37.7,2.87-75.45,6-113.05,26.39-4.98,52.9-10.18,79.53-15.42,76.16-14.97,153.62-30.2,231.34-40.46-15.82,32.31-30.73,62.95-43.4,92.28-12.12,28.06-24.68,56.35-37.33,84.85-16.84,37.94-33.83,76.22-50.2,114.85-63.26,23.44-123.82,53.58-185.64,85.12-.97-68.98-1.53-139.06-.3-208.18Zm1876.8,621.34c-68.71.04-138.16,2.28-205.87,4.67,8.39-53.27,15.05-107.21,17.85-161.53.75-14.51,1.48-29.02,2.22-43.54,61.31-4.17,123.86-7.76,185.76-7.45.01,69.34.02,138.62.03,207.85Zm-271.85,224.67c-7.89-.17-15.77-.34-23.62-.5-80.36-1.71-162.54-3.46-244.64-6.52,11.55-24.49,23.6-48.8,35.33-72.45,17.67-35.62,35.58-71.72,51.91-108.85,72.72.05,145.44-2.39,216.63-4.92-6.43,37.88-13.54,75.44-20.58,112.51-5.01,26.42-10.17,53.63-15.03,80.73Zm-392.97-12.87c-54.59-3.17-109.86-7.36-163.3-11.42-4.87-.37-9.75-.74-14.64-1.11,15.1-24.1,30.42-47.55,45.34-70.35,23.57-36.03,46.62-71.28,67.86-107.61,60.16,6.11,120.76,11.07,181.06,13.33,22.51.84,45.09,1.33,67.69,1.55-14.63,32.45-30.62,64.69-46.94,97.59-13.36,26.93-27.13,54.7-40.17,82.77-32.38-1.33-64.72-2.89-96.89-4.75Zm-399.24-26.37l10.58-32.1c17.76-53.96,35.67-108.35,54.32-162.75,39.28,4.27,78.45,8.91,116.88,13.48,41.1,4.88,82.73,9.83,124.64,14.32-19.32,32.4-40.07,64.12-61.24,96.48-17.33,26.49-35.22,53.85-52.74,82.23-63.36-4.73-127.8-9.17-192.44-11.67Zm-78.36-1.96c-33.64-.34-66.08-.08-97.44.77-7.27-67.65-13.92-140.42-14.88-213.6,51.01,2.19,105.02,5.78,162.9,10.78,22.09,1.91,44.3,4.07,66.51,6.37-18,52.66-35.33,105.28-52.52,157.5l-12.93,39.23c-17.22-.51-34.44-.89-51.65-1.06Zm-114.56,83.03c5.99,58.14,12.05,117.08,20.21,175.38-17.91,2.36-35.71,4.84-53.25,7.29-11.39,1.59-22.78,3.18-34.17,4.74-23.64-74.37-53.68-149.63-91.95-231.37,48.21-5.88,99.12-9.83,153.33-11.88,1.97,18.41,3.89,37.03,5.83,55.84Zm-530.31,754.15c-2.53-55.14-4.71-111.35-4.01-167.33,13.94-6.17,27.92-12.43,41.96-18.72,70.29-31.51,141.81-63.58,215.15-86,.81,39.43,2.54,78.79,4.23,117.27.5,11.42,1.01,22.91,1.49,34.44-74.69,26.3-147.61,63.59-216.07,98.6-14.5,7.42-28.76,14.71-42.76,21.75Zm-701.01-549.34c4.22,2.63,8.42,5.25,12.62,7.87,59.96,37.39,121.5,75.75,185.67,109.04-8.63,53.61-15.85,107.49-21.68,162.01-65.91-20.19-130.96-45.77-194.45-71.01,0-3.03.03-6.07.08-9.11,1.15-66.32,9.49-133.59,17.76-198.8Zm37.63-597.36c76.99,47.59,156.08,96.24,239.72,136.1.58,16.65.5,33.25-.36,49.8-4.15,80.36-15.21,161.96-28.56,242.92-71.18-41.07-138.25-89.71-203.6-137.13-5.48-3.97-10.98-7.96-16.49-11.95,4.64-85.63,7.23-168.18,9.3-244.82.32-11.65.3-23.29-.02-34.93Zm575.18-222.25c-.19-12.04-.38-24.14-.57-36.28,57.48-29.38,113.64-57.82,171.52-80.9-34.2,83.23-64.51,168.09-83.32,254.65-32.97,27.99-60.15,61.71-85.86,98.52.71-79.24-.55-158.54-1.78-236Zm340.91,1036.51c-.11,11.2-.1,22.42,0,33.65-77.13,22.92-151.85,56.41-225.24,89.32-10.31,4.62-20.59,9.23-30.85,13.79.25-7.8.53-15.59.92-23.37,2.4-48.81-.96-95.12-7.69-140.5l3.88-2.2c78.9-44.57,155.34-87.76,235.92-120.65,14.72,47.72,23.58,97.11,23.06,149.95Zm-686.04-345.38c11.51,6.14,23.13,12.08,34.89,17.77,32.86,15.89,62.73,22.92,90.15,22.92,21.29,0,41.09-4.25,59.65-11.87-1.59,8.91-3.05,17.78-4.32,26.53-8.78,60.65-16.03,123.62-22.14,192.23-50.96,21.4-104.7,27.18-159.08,2.62-13.51-6.1-26.9-12.51-40.2-19.16,7.15-42.91,15.12-86.75,22.85-129.24,6.12-33.66,12.3-67.64,18.2-101.79Zm344.73-352.85c.65-18.43,1.13-36.92,1.5-55.43,26.61-40.44,51.56-74.34,78.15-102.08-.21,1.25-.43,2.51-.64,3.76-11.4,69.05-3.12,137.01,15.63,202.92-37.88,34.91-68.69,77.26-97.41,121.07-.79-55.59.72-111.93,2.78-170.25Zm222.61,280.15c-36.23-70.06-74.44-144.92-98.51-222.23,41.41-34.71,91.35-59.75,155.94-67.29,15.05-1.76,30.21-3.33,45.52-4.71,22.38,73.06,56.43,143.81,88.25,209.91,2.57,5.35,5.13,10.66,7.67,15.95-9.39,1.36-18.68,2.8-27.88,4.31-64.46,10.61-120.08,33.54-170.98,64.06Zm-21.8,13.7c-61.92,40.72-117.39,92.24-174.35,145.44-17.18-75.72-25.12-149.23-28.04-223.49,31.37-49.44,63.87-98.82,104.74-138.88,24.98,75.78,62.31,148.6,97.65,216.93Zm-195.97,165.63c-47.53,44.29-103.63,95.86-164.42,128.13,5.77-62.32,12.54-120.03,20.6-175.74,2.17-14.97,4.86-30.02,7.86-45.33,40.28-25.68,74.5-67.22,105.71-113.74,4.25,68.22,13.26,136.33,30.25,206.68Zm-360.97,166.96c28.85,13.03,57.24,18.7,84.98,18.7,28.06,0,55.46-5.81,82.02-15.67-3.97,42-8.79,84.32-13.47,125.45-.7,6.18-1.41,12.39-2.12,18.62-56.38,14.03-114.16,17.56-172.57,3.01-11.19-2.79-22.36-5.77-33.5-8.93,5.57-52.92,12.47-105.22,20.7-157.23,11.24,5.53,22.55,10.9,33.96,16.05Zm179.02,131.39c5.22-45.75,10.58-92.97,14.79-139.74,64.71-30.92,123.77-83.33,174.25-130.16,1.08,4.29,2.16,8.57,3.23,12.83,13.38,53.01,26.37,104.51,35.13,156.8l-.81.46c-71.33,40.35-147.9,83.66-227.54,108.11.31-2.76.63-5.54.94-8.3Zm251.15-113.69c-8.84-49.95-21.25-99.14-34-149.66-2.21-8.78-4.44-17.63-6.67-26.52l7.64-7.13c56.36-52.65,111.07-103.75,171.74-143.96,3.37,6.47,6.75,12.93,10.12,19.37,32.93,62.95,64.88,124.03,87.29,187.59-80.94,32.89-157.38,75.84-236.12,120.32Zm171.56-319.81c-3.7-7.07-7.4-14.15-11.09-21.25,48.94-29.52,102.12-51.61,163.25-61.68,11.6-1.91,23.35-3.69,35.27-5.36,38.68,81.95,69.01,157.17,92.83,231.33-3.94.51-7.89,1.03-11.83,1.53-63.95,8.04-123.16,24.17-179.9,45.54-22.91-64.67-55.23-126.46-88.53-190.11Zm202.57-116.19c-3.72-7.76-7.46-15.57-11.26-23.45-30.57-63.49-63.25-131.39-85.12-200.96,75.52-5.74,155.14-7.1,243.69-4.06.91,73.93,7.55,147.24,14.85,215.44-57.45,2.22-111.25,6.55-162.15,13.03Zm147.23-254.15c-91.27-3.1-173.21-1.57-251.01,4.58-15.39-56.38-22.76-113.63-15.32-170.35,2.07-15.76,4.91-31.36,8.42-46.82,92.62-7.53,186.76-5.59,282.21,1.05-3.93,14.84-7.33,29.89-10.1,45.18-9.84,54.22-13.83,110.32-14.2,166.37Zm-277.04,6.82c-13.87,1.3-27.63,2.74-41.31,4.34-66.35,7.74-118,31.93-160.79,65.58-15.61-59.18-21.97-119.61-11.95-180.28,2.06-12.45,4.39-24.88,6.97-37.28,41.9-34.08,90.15-55.02,155.42-64.04,14.61-2.02,29.27-3.77,43.96-5.26-2.86,13.54-5.23,27.22-7.04,41.03-7.76,59.16-.6,118.18,14.73,175.93Zm-55.17-237.11c-58.69,8.12-104.82,26.29-143.24,51.54,20.43-82.29,50.88-163.41,84.36-243.15,56.11-20,114.32-34.33,177.31-39.13,11.35-.86,22.7-1.45,34.05-1.78-41.46,72.44-78.17,147.21-98.77,226.28-17.95,1.71-35.85,3.78-53.7,6.24Zm-288.83,275.4c-2.54,72.09-4.25,141.21-1.88,209.73-1.37,2.17-2.75,4.34-4.12,6.51-29.9,47.29-59.58,86.56-91.68,113.37.78-3.65,1.56-7.32,2.35-11.02,14.19-66.49,28.86-135.25,24.11-201.26-1.47-20.39-3.6-40.76-6.3-61.1,28.59-14.88,53.47-39.62,78.04-72.36-.16,5.38-.33,10.76-.52,16.13Zm-96.81,119.17c4.49,62.37-9.8,129.32-23.61,194.06-2.65,12.41-5.33,25-7.89,37.59-41.66,22.94-88.25,24.92-144.73-2.4-14.01-6.77-27.84-13.93-41.52-21.38,14.16-84.71,26.01-170.32,30.39-254.94.67-13.02.89-26.05.71-39.1,13,5.83,26.11,11.44,39.35,16.77,38.17,15.38,70.63,22.58,99.16,22.58,15.34,0,29.53-2.09,42.86-6.11,2.23,17.64,4.02,35.28,5.29,52.92Zm-460.2,78.17c68.45,49.66,138.75,100.65,214.13,143.32-6.32,37-13.02,73.83-19.65,110.29-7.26,39.92-14.74,81.03-21.56,121.53-60.69-31.96-119.32-68.5-176.5-104.16-7.52-4.69-15.08-9.4-22.66-14.11,10.82-87.23,18.03-174.51,23.08-259.16,1.05.76,2.11,1.53,3.16,2.29Zm-45.21,558.19c-.69-12.34-1.39-24.9-1.86-37.57,62.37,24.75,126.23,49.54,191.23,69.18-5.37,54.61-9.35,109.93-11.96,166.31-60.99-8.4-121.96-20.4-182.06-33.26.64-14.94,1.87-29.9,3.79-44.88,5.26-41.02,3.02-81.06.85-119.79Zm214.44,38.9c9.95,2.78,19.92,5.43,29.92,7.92,28.31,7.05,56.3,10.2,83.98,10.2,31.02,0,61.61-3.97,91.72-10.85-4.14,37.21-8.11,74.92-11.21,112.26-.95,11.37-1.69,22.75-2.28,34.14-58.53,12.4-118.58,17.62-180.65,11.22-7.66-.79-15.31-1.66-22.98-2.58,2.51-55.03,6.34-109.01,11.49-162.31Zm219.97,121.66c3.35-40.26,7.72-81.08,12.23-121.23,82.94-23.7,161.96-67.61,235.64-109.26,5.57,40.82,8.2,82.35,6.08,125.66-.59,12.03-1,24.07-1.27,36.12-82.66,36.35-166.93,72.96-254.49,94.74.5-8.69,1.1-17.36,1.82-26.02Zm565-40.45c-1.79-40.55-3.61-82.07-4.35-123.51,60.98-16.58,123.24-25.78,187.11-21.83,11,.68,21.89,1.6,32.73,2.69,9.04,43.25,20.82,85.77,32.32,127.22,2.5,9.01,5.01,18.06,7.5,27.15-14.02-2.76-28.12-5.23-42.29-7.35-70.42-10.52-141.77.67-211.84,22.75-.39-9.07-.79-18.11-1.18-27.11Zm184.35-170.95c-64.93-4.02-127.75,4.77-189,20.9-.05-8.76-.04-17.5.05-26.22.56-56.72-8.96-109.21-24.69-159.64,55.41-20.93,113.03-36.69,174.96-44.48,5.47-.69,10.94-1.4,16.4-2.12,19.9,65.79,34.82,131.25,46.05,200.37.72,4.41,1.48,8.8,2.27,13.2-8.65-.8-17.33-1.48-26.03-2.02Zm49.09-15.29c-11.19-68.91-26-134.21-45.62-199.72,10.02-1.38,20.03-2.77,30.05-4.17,17.6-2.46,35.45-4.95,53.4-7.31,11.64,76.79,27.43,152.09,52.01,222.59,2.76,7.92,5.67,15.78,8.7,23.59-31.24-5.72-62.93-10.98-94.99-14.82-1.26-6.71-2.45-13.43-3.54-20.15Zm1057.27-836.68c-2.84,54.9-9.71,109.64-18.36,163.79-69.02,2.46-139.51,4.89-209.95,5.08,19.55-47.44,35.92-96.69,45.42-148.84,3.03-16.62,6.11-33.43,9.23-50.36,55.23-1.65,110.25-5.51,164.09-9.29,3.87-.27,7.75-.54,11.64-.82-.69,13.48-1.37,26.95-2.06,40.43Zm-208.13,15.43c-9.86,54.1-27,104.24-47.87,153.39-26.04-.16-52.04-.67-77.92-1.64-55.88-2.1-112.15-6.54-168.15-12.08,27.12-49.15,50.52-100.96,67.07-159.85,3.34-11.9,6.89-23.64,10.6-35.27,53.5,5.01,107.08,8.69,160.3,10.07,21.38.56,42.81.6,64.23.25-2.79,15.17-5.54,30.22-8.26,45.13Zm-251.56-27.12c-16.95,60.31-41.59,113.33-70.2,163.95-45.63-4.79-91-10.18-135.74-15.49-36.61-4.35-73.89-8.77-111.33-12.88,22.98-66.17,47.18-132.25,73.68-197.43,14.04,1.82,28,3.65,41.85,5.46,69.38,9.09,140.02,18.33,210.92,25.52-3.19,10.18-6.26,20.47-9.18,30.87Zm-343.45,132.77c-24.31-2.55-48.65-4.94-72.87-7.03-58.7-5.07-113.47-8.7-165.2-10.9.33-55,4.19-109.92,13.79-162.77,2.94-16.18,6.61-32.12,10.92-47.84,63.06,4.91,126.68,11.66,190.81,18.88,31.82,3.58,64.06,7.56,96.11,11.66-26.44,65.45-50.6,131.7-73.55,198Zm-19.7-235.16c-62.54-7.04-124.62-13.63-186.21-18.52,20.78-64.95,51.76-126.37,85.7-185.89,33.81,8.01,67.44,16.53,100.81,24.99,26.9,6.82,53.69,13.61,80.35,20.08,28.73,6.97,59.22,14.06,91.07,20.81-24.63,49.58-47.27,100.06-68.42,151.11-34.4-4.42-69.07-8.72-103.3-12.57Zm-212.5-20.51c-95.46-6.81-189.75-9.08-282.82-2.09,21.61-77.82,59.37-152.07,101.37-224.27,89.55.78,179.05,16.33,267.37,36.4-34.2,60.51-65.24,123.16-85.91,189.96Zm-166.46-251.79c13.25-22.19,26.76-44.2,40.2-66.08,15.37-25.02,31.25-50.89,46.05-76,10.81-18.34,23.01-38.06,35.93-58.94,9.31-15.06,19-30.72,28.8-46.89,80.13,15.86,157.17,50.05,232.26,88.15-11.42,20.02-23.02,39.73-34.41,59.08l-5.59,9.5c-11.57,19.66-23.41,39.28-35.27,58.93-14.12,23.39-28.35,46.95-42.22,70.81-87.45-20.15-176.25-36.24-265.73-38.55Zm100.36-214.53c-12.99,21-25.26,40.83-36.2,59.41-14.69,24.92-29.81,49.54-45.82,75.6-16.09,26.2-32.3,52.59-48.04,79.27-17.01.16-34.05.86-51.1,2.16-57.42,4.37-110.7,16.25-161.85,32.94,13.44-31.22,27.2-62.23,40.86-93.01,12.68-28.58,25.27-56.94,37.43-85.09,13.27-30.71,29.19-63.21,46.05-97.61,1.4-2.85,2.8-5.71,4.2-8.58,66.84-7.62,133.76-11.06,200.12-7,12.66.78,25.25,2.09,37.75,3.88-7.96,13.05-15.81,25.76-23.41,38.04Zm-586.09,411.21c1.44,90.07,2.91,182.65,1.26,274.52-27.9,42.3-53.51,73.45-83.13,91.38-17.22-109.18-50-217.38-85.47-323.54,58.67-12.59,113.42-38.85,166.96-66.06.12,7.92.25,15.82.37,23.69Zm-106.08,377.24c-34.09,11.52-74.53,7.58-128.82-14.3-16.84-6.78-33.5-14.02-50-21.64-6.2-105.12-37.37-210.89-75.09-315.3,6.26,2.26,12.54,4.46,18.83,6.61,36.08,12.3,70.35,17.51,103.22,17.51,15.31,0,30.31-1.14,45.06-3.21,36.37,108.63,70.01,219.3,86.79,330.33Zm-205.44-48.62c-79.48-38.95-155.29-85.81-229.19-131.49-3.45-2.13-6.91-4.27-10.37-6.41-6.78-94.08-31.92-187.49-61.79-279.35,71.56,36.2,145.06,72.92,221.2,102.71,38.6,104.52,71.71,210.32,80.15,314.55Zm-266.75-154.66c-54.29-33.36-110.05-66.72-167.16-96.18-18-9.28-36.09-17.54-54.26-24.84-13.32-88.81-40.02-175.55-69.51-260.41,11.71,4.28,23.51,8.86,35.43,13.76,63.95,26.3,127.1,57.66,188.48,88.67,30.74,92.02,57.83,185.52,67.03,279Zm-168.46,231.53c55.53,33.05,109.29,70.95,161.52,108.68-4.85,85.49-11.82,173.83-22.44,262.14-54.43-33.54-110.41-66.67-168.39-94.86-20.23-9.84-40.49-19.08-60.79-27.72,21.27-95.39,35.43-185.81,42.72-274.25,15.68,7.89,31.47,16.54,47.39,26.01Zm-40.53,299.04c60.46,29.4,119.1,64.5,176.12,99.79l-.8,6.31c-8.55,67.35-17.38,136.99-18.62,206.33-60.78-24.13-123.32-48.56-186.24-68.03-21.06-6.51-42.2-12.76-63.45-18.77,7.22-87.05,19.52-168.04,37.72-250.95,18.45,7.94,36.87,16.38,55.27,25.32Zm-30.06,533.69c43.96,8.71,88.7,18.59,131.97,28.15,17.21,3.8,34.53,7.63,51.93,11.41-.58,77.97,13.39,154.48,30.03,229.41-14.49-2.62-28.91-5.3-43.25-7.96-25.27-4.69-50.51-9.39-75.77-13.71-21.88-3.75-43.89-7.22-65.91-10.52-40.24-79.74-78-161.81-93.05-249.02,21.42,3.96,42.79,8.02,64.05,12.24Zm209.55,45.09c59.83,12.74,120.55,24.59,181.5,32.89-2.69,69.65-3.32,141.01-1.91,214.76-49.48-3.23-98.98-10.47-147.84-18.91-16.9-75.01-31.62-151.52-31.75-228.74Zm207.05,36.14c7.14.85,14.28,1.65,21.42,2.39,19.15,1.98,38.08,2.9,56.81,2.9,42.79,0,84.52-4.85,125.4-13.14-1.87,63.64,1.05,127.47,5.38,190.53-65.59,20-132.92,32.1-202.59,30.38-2.73-.07-5.46-.15-8.2-.25-1.43-73.09-.85-143.8,1.77-212.81Zm229.48-13.56c88.22-21.07,172.61-57.02,255.32-93.32-.32,56.6,2.09,113.13,4.67,168.48l-10.48,5.18c-79.72,39.44-160.89,79.57-244.81,107.83-4.19-62.46-6.87-125.57-4.7-188.17Zm291.65,245.78c-.42-51.86-2.86-104.3-5.25-155.08,17.3-8.62,35.03-17.69,53.13-26.94,65.31-33.4,134.77-68.92,205.46-94.53,1.84,49.18,2.93,98.99,1.35,148.16-.61,18.89-1.5,37.8-2.62,56.72-83.44,28.65-163.97,69.27-239.45,107.35-4.26,2.15-8.49,4.28-12.72,6.41.16-14.04.2-28.07.09-42.09Zm278.69-285.27c69.05-22.46,138.94-34.18,206.95-24.03,17.95,2.68,35.81,5.94,53.54,9.67,12.08,45.77,22.86,92.47,28.42,139.69,2.42,20.54,4.17,40.89,5.36,61.09-21.66-3.24-43.4-6.1-65.16-8.49-77.64-8.52-154.66,3.96-229.54,27.12.86-15.78,1.56-31.57,2.07-47.35,1.69-52.55.39-105.55-1.65-157.71Zm314.39,122.33c-5.22-44.32-14.8-87.79-25.74-130.37,60.06,14.36,118.29,33.66,172.83,54.17,24.94,43.55,49.27,88.25,69.23,134.31,8.74,20.17,16.6,40.61,23.57,61.19-73.19-19.37-152.77-37.8-234.15-51.15-1.17-22.57-3.05-45.29-5.74-68.15Zm-33.15-158.44c-3.62-13.41-7.32-26.73-10.99-39.96-10.64-38.34-21.52-77.62-30.15-117.3,33.76,4.3,67.16,10.16,101.19,16.57,27.29,63.11,61.86,122.5,95.53,180.32,1.53,2.63,3.06,5.26,4.59,7.89-50.98-18.27-104.81-35.03-160.17-47.53Zm177.75,26.72c-30.37-52.16-61.49-105.6-87.01-161.54,1.89.36,3.78.73,5.68,1.09l24.41,4.69c9.51,1.81,18.98,3.42,28.42,4.86,40.6,79.39,90.92,152.53,141.77,223.19-5.1-2.19-10.16-4.34-15.17-6.42-24.89-10.31-50.94-20.83-77.94-31.11-6.72-11.67-13.46-23.26-20.16-34.76Zm-52.11-180.96l-24.36-4.68c-7.62-1.47-15.26-2.94-22.94-4.41-5.12-12.41-9.93-24.95-14.35-37.64-23.89-68.5-39.34-142.12-50.78-217.4,15.17-1.86,30.35-3.59,45.43-5.07,6.6-.65,13.2-1.23,19.81-1.75-1.9,93.59,14.9,180.06,50.39,258.65,2.13,4.72,4.31,9.4,6.52,14.07-3.24-.57-6.47-1.17-9.71-1.78Zm-69.5-294.73c-15.52,1.52-31.09,3.29-46.64,5.2-8.13-58.02-14.18-116.79-20.15-174.75-1.87-18.19-3.73-36.22-5.63-54.04,30.41-.8,61.84-1.04,94.42-.7,14.54.15,29.09.44,43.66.83-24.31,77.47-38.43,151.38-42.35,221.44-7.77.59-15.54,1.26-23.3,2.02Zm92.3-222.61c62.37,2.26,124.72,6.4,186.12,10.93-39.6,70-61.29,139.28-69.18,207.61-53.04-2-106.58-2.56-160.11.36,4.16-69.08,18.55-142.14,43.17-218.9Zm214.52,13.05c9.29.7,18.56,1.4,27.8,2.1,53.56,4.07,108.94,8.27,163.76,11.45,28.91,1.68,57.93,3.1,86.99,4.34-29.96,68.84-49.43,135.84-58.63,202.75-36.43-1.34-72.83-2.78-109.04-4.37-31.65-1.39-63.77-3.23-94.82-5.02-29.3-1.68-58.88-3.38-88.65-4.73,8.4-67.84,31.19-136.64,72.58-206.53Zm306.09,19.02c85.85,3.32,171.79,5.15,255.75,6.94,6.56.14,13.14.28,19.73.42-11.29,68.58-16.89,137.01-18.39,205.16-29.32-.9-58.51-1.78-87.46-2.64-75.55-2.26-152.73-4.57-229.96-7.31,9.43-66.75,29.47-133.65,60.32-202.56Zm305.89-17.65c4.64-25.67,9.52-51.45,14.27-76.51,7.38-38.93,14.85-78.38,21.54-118.23,69.09-2.45,140.04-4.8,210.08-4.83,0,69.09,0,138.12.01,207.1-81.88-3.65-164.71-5.74-245.9-7.52Zm245.85-458.75c-61.68-.29-123.67,3.2-184.44,7.31.7-13.73,1.41-27.45,2.1-41.18,2.53-49.97,5.11-100.82,7.8-151.86,57.03-10.82,115.28-19.85,174.49-21.6.02,69.16.04,138.27.05,207.34Zm-207.96-35.17c-.75,14.75-1.51,29.5-2.26,44.25-4.93.34-9.84.69-14.75,1.03-51.75,3.63-104.59,7.35-157.52,9.08,10.4-55.97,21.35-113.31,33.02-171.14,37.73-6.2,74.91-13.75,111.35-21.15,12.48-2.54,25.02-5.08,37.62-7.58-2.57,48.91-5.04,97.62-7.46,145.52Zm-200.74,55.03c-22.82.44-45.62.46-68.32-.14-50.61-1.32-101.64-4.75-152.68-9.43,17.48-50.76,38.11-99.46,60.37-148.18,47.08,1.7,94.65.77,141.92-3.73,17.07-1.63,34.06-3.73,50.94-6.16-11.37,56.68-22.07,112.84-32.23,167.64Zm-247.25-12.08c-72.44-7.22-144.75-16.68-215.74-25.98-11.61-1.52-23.32-3.05-35.07-4.58,21.04-50.44,43.55-100.28,68.03-149.15,75.36,15.15,157.52,27.9,241.8,32.74-21.77,48.11-41.9,96.42-59.02,146.96Zm-170.68-203.46c15.2-29.36,31.14-58.35,47.96-86.88,9.72-16.5,19.4-33.48,28.81-50.92,68.97,26.02,143.43,45.03,222.43,45.97-5.59,12.53-11.23,24.64-16.82,36.32l-3.52,7.35c-12.82,26.8-25.45,53.21-37.67,79.57-83.75-4.16-165.76-16.49-241.19-31.41Zm25.86-99.91c-18.3,31.05-35.57,62.62-51.98,94.59-34-7.12-66.5-14.65-96.99-22.05-26.57-6.45-53.27-13.22-80.09-20.02-31.03-7.87-62.27-15.79-93.7-23.31,12.54-21.42,25.34-42.62,38.06-63.68,11.92-19.73,23.81-39.43,35.43-59.18l5.59-9.5c11.64-19.77,23.49-39.91,35.15-60.37,16.88,8.76,33.67,17.64,50.38,26.47,35.1,18.56,71.4,37.76,106.79,54.78,25.14,12.08,51.23,23.96,78.21,34.93-8.78,16.19-17.79,31.97-26.84,47.33Zm-40.25-105.38c-34.95-16.8-69.42-35.03-105.91-54.33-16.51-8.73-33.1-17.51-49.79-26.17,40.03-72.22,75.98-148.33,90.84-227.02,10.24,7.62,20.44,15.27,30.6,22.89,37.98,28.5,73.85,55.42,110.58,79.6,23.4,15.41,47.69,30.53,72.8,44.43-12.62,70.43-39.12,135.81-69.97,195.83-27.32-11.02-53.73-23.01-79.15-35.23Zm-178.54-92.24c-74.32-37.77-150.72-71.93-230.88-89.11,48.31-81.69,95.87-174.14,109.64-263.77,74.9,25.67,144.44,71.37,211.69,120.46-12.65,79.98-49.3,158.18-90.45,232.41Zm-257.71-94.18c-16.67-2.72-33.51-4.67-50.53-5.71-62.72-3.83-125.66-1.16-188.41,5.35,41.77-86.29,82.75-178.41,93.26-268.92,74.05-9.27,149.94-17.63,219.46-5.64,12.78,2.21,25.39,5.08,37.85,8.53-12.67,89.27-62.27,183.65-111.64,266.39Zm-269.13,3.06c-84.08,10.29-167.68,26.72-249.79,42.86-24.17,4.75-48.25,9.48-72.23,14.04,4.84-51.44,11.15-102.49,17.34-152.65,5.08-41.13,10.24-82.93,14.61-125.04l13.46-1.79c108.4-14.41,220.49-29.31,330.96-41.36,14.01-1.53,28.3-3.28,42.77-5.09-11.9,89.78-54.97,182.62-97.12,269.03Zm-355.54,417.7c-56.2,28.71-113.54,57.34-174.85,69.89-6.88-20.33-13.82-40.58-20.73-60.74-19.98-58.29-40.63-118.55-58.36-176.88l-3.23-10.62c-10.57-34.75-21.26-69.9-31.3-105.36,84.22-5.32,168.35-21.53,250.87-37.45,14.27-2.75,28.47-5.47,42.63-8.14-2.86,35.75-4.87,71.68-5.5,107.67-1.3,73.72-.59,148.39.48,221.64Zm-281.72-170.89l3.23,10.63c17.86,58.75,38.59,119.24,58.64,177.73,6.45,18.81,12.92,37.7,19.34,56.66-41.64,5.2-85.22,2.27-131.57-13.55-12.99-4.43-25.9-9.12-38.76-14.02-11.62-31.15-23.66-62.15-35.63-92.97-20.18-51.97-39.25-101.06-55.68-149.24-11.55-33.88-22.89-68.26-33.22-103.12,6.32,1.42,12.65,2.8,18.98,4.1,53.57,11.03,107.57,14.11,161.6,12.24,10.56,37.58,21.87,74.79,33.05,111.54Zm-204.7-16.47c16.61,48.69,35.76,98.02,56.05,150.25,9.14,23.53,18.32,47.19,27.33,70.92-71.8-29.48-141.6-64.81-209.65-99.26-3.6-1.82-7.21-3.65-10.82-5.47-8.27-24.52-16.75-48.92-25.18-73.18-16.66-47.93-32.41-93.21-46.32-138.64-8.33-27.2-16.5-55.37-24-84.38,63.52,22.4,128.59,44.73,194.9,61.49,11.53,40.09,24.46,79.51,37.69,118.29Zm-233.12-87.87c14.05,45.9,30.61,93.51,46.61,139.55,5.57,16.03,11.17,32.12,16.7,48.26-54.47-27.33-110.27-54.44-166.99-77.76-18.97-7.8-37.65-14.83-56.12-21.11-6.13-17.25-12.33-34.42-18.5-51.51-15.72-43.55-31.98-88.59-46.33-132.64-8.11-24.91-15.93-50.15-23.07-75.69,12.98,3.11,26.17,6.51,39.59,10.19,60.4,16.6,120.89,37.79,179.57,58.53,8.71,35.3,18.51,69.43,28.53,102.17Zm-179.78,109.37c30.07,85.2,58.05,172.19,72.81,260.69-70.44-24.58-142-35.65-214.06-37.82-18.15-87.72-46.08-173.21-75.36-256.74,72.22-1.15,142.79,10.03,216.61,33.87Zm77.12,289.58c2.07,15.63,3.71,31.31,4.82,47.03,5.24,74.05,5.66,147.36,1.14,221.8-75.82-33.35-149.69-50-225.32-55.9,16.64-69.67,23.16-141.43,12.26-216.09-1.83-12.56-3.91-25.07-6.19-37.54,72.11,2.68,143.46,14.64,213.29,40.7Zm-489.65,32.78c7.23,65.79,2.77,130.27-8.51,193.62-38.32,4.56-76.5,9.45-113.89,14.24-41.88,5.37-84.25,10.79-126.89,15.76,2.37-74.27,1.53-148.05-1.41-221.9,34.26-6.71,68.36-13.84,102.12-20.91,47.23-9.89,94.79-19.85,142.45-28.52,2.32,15.88,4.39,31.79,6.13,47.71Zm-275.07,226.55c-72.75,8.1-146.21,14.55-219.45,16.79.02-69.07.04-138.42.06-208,72.35-3.89,145.6-15.06,218.27-28.73,2.84,73.23,3.58,146.37,1.13,219.94ZM25.81,1892.64c65.13-.86,130.67-4.24,195.12-8.14-11.34,77.96-20.52,150.14-26.39,219.94-54.49-2.13-110.68-3.4-168.78-3.83.02-69.5.04-138.84.06-207.97Zm221.28-9.75c11.17-.7,22.3-1.4,33.38-2.1,48.39-3.07,97.9-6.21,147.41-8.5-3.51,10.06-7.07,20.18-10.65,30.36-24.34,69.19-49.09,139.54-65.21,210.74-42.88-3.24-86.78-5.86-131.82-7.87,5.96-70.47,15.33-143.52,26.9-222.63Zm194.34,28.28c4.74-13.46,9.43-26.82,14.02-40.07,13.65-.54,27.28-1,40.88-1.37,49.53-1.34,98.22.3,146.25,4.93-4.72,9.9-9.52,19.88-14.36,29.95-34.45,71.61-71.22,148.08-95.15,226.96-50.35-6.39-101.98-11.76-155.16-16.13,15.85-68.75,39.88-137.07,63.52-204.26Zm209.91,4.56c6.18-12.86,12.3-25.58,18.27-38.15,101.19,12.19,199.59,37.85,296.88,77.36-18.66,84.12-31.33,166.1-38.83,254.03-117.63-32.03-238.99-56.5-368.72-74.01,23.44-75.83,59.04-149.86,92.41-219.22Zm92.58,560.19c59.47,9.89,120.29,20.01,180.96,30.95,13.53,88.09,49.42,170.05,88.91,249.4-35.36-5.04-70.6-9.68-105.22-14.24-60.66-7.99-122.43-16.12-184.1-26.3-65.03-84.86-126.8-172.99-162.5-270.95,61.08,11.02,122.06,21.17,181.96,31.14Zm161.3,291.56c40.32,5.31,81.48,10.73,122.65,16.75,4.85,9.54,9.73,19.06,14.59,28.54,26.13,51,53.15,103.72,74.23,156.34,5.43,13.56,9.95,26.96,13.65,40.21-46.84-6.53-93.65-11.58-139.43-16.5-24.21-2.6-48.65-5.23-73.19-8.1-10.23-18.36-21.38-36.32-32.81-53.9-35.91-55.21-78.49-109.76-119.67-162.52-5.94-7.61-11.89-15.24-17.84-22.89,52.96,8.26,105.8,15.23,157.83,22.08Zm235.27,192.08c-21.52-53.71-48.81-106.98-75.21-158.49-2.07-4.04-4.15-8.09-6.22-12.15,15.8,2.44,31.57,4.99,47.27,7.68,25.14,4.3,50.26,8.98,75.41,13.64,17.91,3.33,35.94,6.68,54.09,9.91,2.3,10.04,4.63,20.05,6.95,30.03,11.03,47.45,22.43,96.5,30.51,144.85,2.25,13.47,3.97,26.92,5.2,40.34-7.9-1.52-15.84-3.08-23.83-4.65-17.62-3.46-35.28-6.92-53.04-10.13-14.55-2.63-29.14-5.03-43.75-7.27-4.37-17.69-10.09-35.61-17.37-53.78Zm158.09,31.24c-8.21-49.15-19.71-98.6-30.82-146.43-1.5-6.47-3.01-12.96-4.51-19.45,46.9,7.92,94.43,14.58,142.22,17.58,1.38,54.28,3.83,109.86,7.36,167.05.92,14.88,1.65,29.8,2.23,44.75-37.05-1.84-73.43-7.27-110.4-13.99-1.32-16.44-3.31-32.94-6.08-49.5Zm139.85,17.16c-3.47-56.21-5.9-110.86-7.28-164.23,2.32.08,4.65.15,6.97.21,4.72.12,9.43.18,14.13.18,65.87,0,129.31-11.5,191-29.88,1.39,18.75,2.86,37.41,4.32,55.97,2.46,31.17,4.99,63.4,7.06,94.98,1.09,16.62,1.95,33.26,2.64,49.91-66.59,22.88-134.85,38.23-205.37,39.76-3.72.08-7.43.1-11.14.1-.6-15.69-1.36-31.36-2.32-47Zm241.79-44.44c-2.07-31.75-4.62-64.07-7.08-95.32-1.62-20.5-3.24-41.13-4.75-61.85,87.57-28.85,171.71-70.47,254.32-111.34l.42-.21c2.2,47.02,4.31,95.28,4.69,142.86.15,18.27.04,36.57-.28,54.88l-23.02,11.58c-72.46,36.5-146.16,73.62-221.97,101.91-.64-14.17-1.4-28.35-2.32-42.51Zm272.65-55c8.21-4.13,16.47-8.29,24.79-12.49,71.51-36.08,147.65-74.5,226.08-102.41-7.91,111.41-23.48,222.93-39.92,332.3-76.46,12.81-152.73,30.5-229.27,55.19,8.76-90.05,16.11-181.34,18.31-272.59Zm277.21-123.82c74.97-24.14,151.77-37.51,228.41-29.08,23.09,2.54,46.18,5.61,69.17,9.12,3.86,113.29-10.36,221.87-33.27,329.89-102.5,4.24-203.46,11.65-303.98,27.03,16.59-110.82,32.15-223.82,39.67-336.96Zm323.25-15.86c84.5,14.1,167.06,33.69,242.31,53.99,18.21,61.65,28.31,124.09,29.57,184.24.56,26.82-2.87,53.21-8.71,79.2-39.02,1.07-77.79,1.88-116,2.67-60.68,1.26-120.6,2.51-179.98,4.67,21.87-105.48,35.86-213.41,32.8-324.77Zm373.71,64.99c-34.33-10.33-71.59-21.24-110.98-32.04-8.42-26.73-18.31-53.27-29.63-79.37-16.28-37.56-35.27-73.99-55.08-109.55,16.45,6.51,32.5,13.05,48.09,19.51,9.86,4.09,19.89,8.46,30.05,12.88,8.07,3.52,16.2,7.06,24.39,10.52.06.09.13.18.19.27,37.89,52.18,77.06,106.14,112.28,161.53,5.97,9.39,11.89,18.87,17.69,28.41-12.39-4.3-24.89-8.52-37.01-12.17Zm40.96-30.02c-28.46-44.75-59.32-88.37-90-130.86,16.14,5.53,32.44,10.09,48.87,12.95,22.37,3.88,45.41,4.38,68.68,3.01,14.95,23.46,29.98,46.68,44.85,69.65,19.62,30.31,39.91,61.65,58.97,91.95,6.86,10.91,13.26,21.64,19.21,32.25-10.7.19-21.27-.24-31.73-1.57-27.69-3.53-56.67-12.37-85.34-22.14-10.64-18.69-21.99-37.12-33.5-55.23Zm-36.75-143.2c-26.77-4.64-53.98-14.55-80.84-25.72-55.15-75.98-111.47-154.15-156.64-238.85,48.23,5.49,95.94,6.76,144.06,6.05,37.76,89.91,88.74,177.34,141.84,261.75-16.58.34-32.81-.52-48.42-3.23Zm-251.69-292.2c-4.81-9.72-9.47-19.53-13.94-29.44-34.17-75.65-50.18-159.16-48.05-249.81,52.95-2.99,106.12-2.48,158.88-.53-6.49,98.16,14.64,194.33,51.04,287.9-49.5.43-98.51-1.44-147.93-8.12Zm121.7-278.76c30.1,1.35,60.04,3.07,89.69,4.77,31.14,1.79,63.34,3.64,95.16,5.03,35.59,1.56,71.37,2.98,107.16,4.3-7.33,74.54-1.94,149.25,15.91,226.56,2.7,11.69,5.57,23.34,8.6,34.94-31.03,1.12-62.05,2.28-93.07,3.53-21.39.86-42.67,1.91-63.87,2.96-36.2,1.78-71.73,3.53-106.94,4.36-37.87-93.82-59.61-189.16-52.63-286.45Zm332.91,234.89c-17.31-74.98-22.45-147.47-15.15-219.85,78.03,2.78,155.99,5.11,232.29,7.4,29.08.87,58.4,1.75,87.85,2.65-.59,79.81,4.16,159.21,11.62,237.99-83.04,3.78-165.75,6.66-247.19,9.5-19.84.69-39.69,1.38-59.53,2.09-3.5-13.21-6.81-26.46-9.89-39.78Zm330.33-209.01c89.48,2.8,180.09,5.93,269.72,9.99,0,69.92-.02,139.76-.03,209.54-85.53,7.19-171.85,12.38-257.93,16.5-7.61-78.96-12.37-157.35-11.76-236.03Zm269.62-948.37c-59.08,1.68-116.74,10.34-173.08,20.89,2.04-38.26,4.15-76.56,6.35-114.61,1.32-22.89,2.84-46.04,4.44-69.12,50.98-20.76,102.93-37.66,162.23-43.87.03,68.94.05,137.84.07,206.7Zm-192.35-95.2c-2.32,40.2-4.54,80.67-6.69,121.08-14.8,2.91-29.51,5.9-44.13,8.87-33.06,6.72-66.73,13.56-100.76,19.37,6.6-32.15,13.43-64.4,20.52-96.59,4.21-19.14,8.3-37.92,12.21-56.41,27.97-11.06,54.84-22.99,81.18-34.7,13.85-6.15,27.55-12.24,41.25-18.14-1.28,18.88-2.5,37.78-3.58,56.53Zm-156.12,47.21c-7.82,35.51-15.31,71.07-22.54,106.49-19.51,2.96-39.12,5.48-58.78,7.35-42.48,4.04-85.29,5.12-127.79,3.96,10.75-23.03,21.81-46.15,33.01-69.57l3.52-7.36c7.29-15.24,14.66-31.2,21.92-47.85,40.54-1.76,82.23-8.47,124.92-21.6,11.72-3.6,23.2-7.48,34.48-11.53-2.83,13.2-5.75,26.56-8.73,40.11Zm-33.29-53.1c-36.13,11.11-71.57,17.36-106.25,19.73,22.12-54.28,41.92-115.08,52.73-181.2,35.55-3.32,72.01-12.56,109.27-29.34,8.05-3.63,15.88-7.36,23.53-11.17-6.5,59.78-17.55,120.74-30.98,185.29-15.74,5.98-31.81,11.62-48.3,16.69Zm-134.47,20.84c-78.47.76-152.72-17.49-221.54-43.15,30.2-59.08,56.27-123.29,69.73-192.52,62.79,31.95,130.41,54.79,201.99,54.79,1.5,0,3-.01,4.5-.03-11.39,66.2-32.05,126.97-54.68,180.91Zm-174.03-411.22c7.78,46.91,7.94,92.06,2.58,135.38-19.98-11.16-40.91-23.88-62.86-38.33-36.07-23.75-71.63-50.44-109.29-78.69-13.78-10.34-27.62-20.72-41.56-31.02,5.51-45.97,3.24-92.76-10.16-140.11-2.78-9.84-5.81-19.58-9.02-29.25,4.62,2.39,9.24,4.78,13.85,7.16,38.29,19.81,77.89,40.29,117.03,58.57,28.03,13.09,55.38,25.03,82.28,35.53,6.85,26.77,12.65,53.7,17.14,80.77Zm-245.98-145.8c10.94,38.68,13.79,77.25,10.68,115.49-66.9-48.23-136.41-92.44-212.17-117.37,3.08-39.86-1.27-78.88-16.03-115.86-3.41-8.55-7.06-16.89-10.91-25.03,72.7,21.6,142.63,54.75,210.86,89.48,6.55,17.54,12.47,35.29,17.56,53.3Zm-241.34-108.23c12.48,31.26,16.62,64.54,14.62,98.83-11.87-3.15-23.9-5.82-36.1-7.92-71.46-12.34-147.45-4.44-221.66,4.79,1.76-36.38-1.9-72.38-12.95-107.51-5.28-16.78-11.4-32.9-18.12-48.52,70.31-4.06,139.46-3.21,205.38,7.08,16.33,2.55,32.5,5.83,48.54,9.72,7.43,13.96,14.26,28.42,20.29,43.53Zm-698.9,295.27c-6.52,52.75-13.16,106.49-18.11,160.74-16.51,3.09-33.1,6.28-49.76,9.49-83.39,16.08-168.46,32.47-253.05,37.32-16.36-60.08-30.34-120.95-38.23-182.15-3.85-29.89-3.26-59.59.13-89.05,79.48-6.9,159.85-20.35,238.74-33.55,46.51-7.78,90.67-15.17,134.18-21.19-4.21,39.83-9.09,79.41-13.9,118.39Zm-384.59,28.68c7.83,60.73,21.44,120.81,37.39,179.98-50.2,1.38-100.15-1.74-149.41-11.88-10.77-2.22-21.52-4.62-32.25-7.19-22.84-82.35-39.05-167.39-38.62-255.14,6.5.84,13,1.61,19.51,2.29,53.2,5.59,107.76,5.37,162.87,1.62-3.1,29.65-3.43,59.74.51,90.31Zm-172.85,153.7c-65.92-17.49-130.94-40.32-194.35-62.74-17.31-73.2-29.47-151.24-28.77-232.08,61.48,17.04,124.21,33.27,187.38,43.22-.88,86.71,14.06,170.51,35.74,251.6Zm-223.02-72.87c-54.22-19.1-109.88-38.22-165.78-53.59-18.37-5.05-36.33-9.56-53.93-13.56-18.13-70.71-30.12-143.53-28.08-217.61,15.94,3.16,31.78,6.5,47.52,9.92,53.03,11.53,107.15,26.76,159.49,41.49,5.03,1.41,10.06,2.83,15.11,4.25-1.41,79.76,9.46,156.7,25.68,229.1Zm-273.35-289.63c-2.56,73.89,8.43,146.26,25.68,216.5-76.18-15.2-145.56-20.12-211.16-14.72-19.96-75.82-31.32-146.81-29-216.28,72.34-6.29,144.25,1.71,214.48,14.5Zm-278.84,526.64c57.3-16.02,111.5-25.61,164.49-28.67,29.31,83.28,57.48,168.44,75.91,255.35-76.37-.07-153.21,9.19-229.78,22.32-13.11-80.19-32.2-159.43-51.87-237.04,13.73-4.1,27.49-8.12,41.25-11.96Zm-14.65,253.47c-48.13,8.76-96.12,18.8-143.78,28.79-32.41,6.79-65.12,13.64-97.98,20.1-3.37-72.79-8.67-145.71-14.84-219.28,44.03-12.51,87.36-26.32,130.16-39.96,24.72-7.88,49.89-15.89,75.26-23.69,19.45,76.78,38.29,155.1,51.17,234.05Zm-267.22,53.8c-72.51,13.72-145.49,24.98-217.17,28.93.02-69.17.04-138.56.05-208.1,69.51-6.01,136.85-20.29,202.58-38.05,6.08,72.87,11.27,145.12,14.54,217.22ZM25.75,2126.27c57.41.43,112.93,1.67,166.78,3.77-4.36,59.92-6.13,118.37-4.54,177.53.38,13.98,1.11,27.93,2.15,41.83-57.13-7.63-111.41-12.54-164.44-14.94.01-69.53.03-138.94.05-208.19Zm187.88,180.61c-1.57-58.48.2-116.35,4.54-175.76,43.89,1.95,86.69,4.48,128.49,7.6-12.46,63.71-17.2,128.06-7.8,192.82,2.16,14.88,4.87,29.59,8.05,44.15-45.59-9.04-88.98-16.56-130.76-22.65-1.24-15.36-2.12-30.75-2.54-46.16Zm150.63,20.97c-9.05-62.31-4.19-124.85,8.21-187.11,52.61,4.29,103.69,9.54,153.49,15.8-18.16,68.46-25.58,138.53-12.5,208.64,2.95,15.81,6.61,31.33,10.89,46.59-39.72-7.46-79.37-15.35-118.64-23.88-10.52-2.28-20.9-4.48-31.18-6.61-4.18-17.6-7.65-35.4-10.27-53.44Zm347.98,649.23c62.78,14.66,126.38,24,189.26,31.55,26.5,50.2,44.46,103.02,39.12,158.02-1.71,17.62-6,35.63-12.03,53.69-63.22-5.63-127.51-12.85-190.54-27.15-31.72-7.2-63.6-15.05-95.41-23.22,12.67-71.25,11.59-138.78-8.77-211.99,26.11,6.58,52.29,13.01,78.38,19.1Zm219.85,35.11c18.79,2.12,37.5,4.14,56.07,6.13,48.81,5.25,98.81,10.64,148.59,17.82,14.07,70.57,5.32,137.19-15.01,202.72-48.19-6.4-96.41-10.4-143.48-14.3-7.79-.64-15.6-1.29-23.44-1.95,5.6-17.83,9.6-35.74,11.33-53.48,5.37-55.33-9.98-107.55-34.06-156.94Zm299.92,245.54c-17.34-3.34-34.76-6.68-52.33-9.87-10.82-1.96-21.67-3.74-32.53-5.39,19.51-64.74,28.5-131.73,16.35-202.29,11.21,1.78,22.41,3.65,33.55,5.67,17.63,3.18,35.17,6.62,52.66,10.06,10.14,1.99,20.34,3.99,30.59,5.95,3.15,67.85-5.22,135.12-18.5,201.56-9.87-1.86-19.79-3.77-29.79-5.69Zm74.19-191.09c35.94,6.39,72.51,11.64,109.7,13.38,1.83,68,.59,136.46-1.83,204.41-42.91-2.45-84.65-8.73-127.01-16.35,13.22-66.12,21.69-133.26,19.15-201.44Zm135.38,13.99c3.62,0,7.24-.04,10.87-.12,71.04-1.54,139.37-16.37,205.76-38.6,2.16,73.65.85,147.44-2.03,220.7-66.83,14.16-134.35,22.93-203.46,22.93-.94,0-1.89,0-2.83,0-3.41-.01-6.8-.06-10.19-.13,2.43-67.99,3.68-136.54,1.88-204.78Zm242.01-47.6c79.73-29.07,156.76-67.87,232.46-106l10.8-5.43c-2.67,89.73-10.19,179.64-18.94,268.35-75.41,25.39-150.25,49.33-225.83,66.9,2.82-74.23,3.97-149.04,1.51-223.82Zm248.2,175.98c76-25.16,151.84-43.23,227.99-56.35-1.69,11.11-3.37,22.19-5.06,33.25-7.79,51.16-15.66,102.82-22.9,154.81-72.87,9.69-145.55,21.51-217.4,36.68,2.78-27.65,5.66-55.16,8.51-82.51,2.97-28.46,5.97-57.1,8.85-85.88Zm248.29-19.23c2.1-13.8,4.21-27.63,6.31-41.51,99.85-15.71,200.3-23.34,302.33-27.72-14.05,62.58-30.77,125.09-48.32,188.33-93.33,7.92-187.85,16.51-282.19,28.41,6.95-49.52,14.44-98.74,21.87-147.52Zm334.91-70.28c61.34-2.31,123.29-3.6,186.04-4.91,35.88-.75,72.25-1.51,108.88-2.48-9.42,33.31-22,65.98-34.39,98.12-2.84,7.38-5.69,14.76-8.49,22.13-6.18,16.26-12.47,32.55-18.82,48.83-83.88,8.94-167.85,15.97-250.15,22.85-10.12.85-20.27,1.69-30.43,2.55,17.02-61.64,33.47-123.94,47.35-187.09Zm276.02,121.98c2.79-7.34,5.62-14.68,8.45-22.02,13.59-35.25,27.4-71.13,37.3-108.1,44.36-1.32,89.01-3.03,133.52-5.5,21.2-1.18,42.34-3.21,63.28-5.65-5.63,27.1-14.67,54.55-23.55,81.47-3.43,10.4-6.8,20.62-9.89,30.58-3.7,11.93-7.49,23.85-11.34,35.76-23.03,4.11-46.69,8.23-71.03,11.86-46.63,6.95-93.67,12.89-140.8,18.17,4.73-12.19,9.43-24.39,14.06-36.57Zm302.25-174.95c-9.71,1.34-19.5,2.69-29.34,4,.97-10.77,1.25-21.5.61-32.11-2.96-49.41-20.92-98.68-45.33-146.6,21.45,6.61,43.02,12.09,64.38,14.81,15.98,2.04,32.15,2.18,48.33,1.25,24.83,49.46,39.81,97.05,46.18,148.08-28.62,2.84-56.93,6.73-84.84,10.58Zm65.92-161.1c12.85-1.5,25.65-3.39,38.3-5.26,18.98-2.81,38.6-5.71,57.48-7.1,16-1.18,31.94-2.28,47.84-3.33,14.54,54.64,24.29,110.09,30.14,165.93-10.62-.73-21.27-1.48-31.97-2.23l-5.8-.41c-30.82-2.17-61.43-1.48-91.73.74-6.37-51.13-20.81-99.26-44.26-148.33Zm-11.95-262.23c-22.08,2.12-45.11,5.77-67.37,9.29-23.53,3.72-47.43,7.5-70.97,9.65-54.43-85.79-106.04-172.55-144.35-260.64,32.16-.91,64.59-2.5,97.55-4.13,21.13-1.04,42.33-2.09,63.65-2.95,32.97-1.33,65.94-2.55,98.92-3.74,23.73,84.56,54.92,166.63,86.39,246.68-21.27,1.87-42.62,3.8-63.81,5.83Zm3.8-253.45c17.81-.63,35.62-1.25,53.44-1.87,81.96-2.85,165.21-5.75,248.81-9.57,7.81,76.6,17.93,152.6,27.94,227.79.27,2.05.55,4.11.82,6.17-69.06,7.91-138.05,13.76-206.03,19.52-12.66,1.07-25.45,2.16-38.31,3.26-31.41-79.76-62.75-161.49-86.67-245.31Zm355.62,212.97c-10.15-76.26-20.13-151.22-27.84-225.59,85.17-4.08,170.61-9.22,255.36-16.31-.01,69.94-.03,139.79-.05,209.57-74.61,17.49-150.57,29.59-226.61,38.88-.29-2.18-.58-4.37-.87-6.54Zm227.38-1668.05c-58.97,5.84-110.36,21.53-160.21,41.19.9-12.53,1.81-25.01,2.7-37.36,3.92-53.83,7.9-108.55,10.71-163.47,43.29-23.01,89.39-41.38,146.71-47.88.03,69.21.06,138.38.09,207.52Zm-183.09,1.97c-1.2,16.52-2.42,33.24-3.61,50.05-17.85,7.53-35.64,15.44-53.66,23.44-21.08,9.37-42.5,18.88-64.49,27.95,13.29-65.31,23.95-127.2,29.72-188.26,22.13-12.12,42.9-24.69,63.27-37.03,12.92-7.83,25.71-15.57,38.59-23.03-2.72,49.31-6.29,98.45-9.82,146.87Zm-117.89-274.47c6.34,57.93,6.19,114.42,1.48,171.62-11.88,6.25-24.16,12.32-36.96,18.09-27.81,12.53-58.79,23.2-95.06,27.25,6.11-49.01,7.02-100.74.17-154.76-3.61-28.45-8.34-56.75-14.02-84.88,32.75-3.46,65.93-10.84,99.96-22.77,12.44-4.36,24.66-8.94,36.69-13.67,2.96,19.68,5.57,39.38,7.73,59.12Zm-52.9-69.66c-30.81,10.79-62.3,18.78-96.75,22.18-20.61-92.81-51.13-183.92-85.69-273.53,36.88-2.02,73.23-5.95,109.62-11.79,18-2.89,36.03-5.99,53.99-9.21,24.15,84.75,45.46,170.51,59.89,256.93-13.48,5.36-27.15,10.55-41.06,15.42Zm-122.68,23.81c-57.69,1.66-124.38-9.58-209.4-41.06-22.54-83.88-54.72-165.89-88.98-246.27,63.4,9.2,122.87,13.76,180.44,13.76,10.42,0,20.78-.15,31.09-.45,34.96,89.94,65.95,181.28,86.85,274.03Zm-239.26-52.65c-19.98-8.1-40.91-17.23-62.93-27.52-38.68-18.06-78.04-38.42-116.1-58.11-12.74-6.59-25.53-13.21-38.39-19.78-24.25-62.63-55.87-122.06-87.22-179.97,2.21.52,4.42,1.04,6.63,1.57,39.35,9.29,80.05,18.9,120.19,27.54,30.55,6.58,60.1,12.22,88.81,16.95,33.69,78.33,65.76,158.12,89.01,239.32Zm-332.96-283.81c28.24,52.12,57.1,105.41,80.67,160.77-68.39-34.04-138.73-65.4-212.53-84.63-22.81-40.76-49.94-77.02-76.43-112.44-3.99-5.33-7.96-10.64-11.9-15.95,72.5,10.39,144.45,26.3,215.09,42.81,1.7,3.15,3.41,6.3,5.11,9.44Zm-228.84-20.92c21.35,28.54,43.12,57.65,62.48,89.05-9.02-1.84-18.1-3.48-27.23-4.91-71.2-11.12-145.52-11.58-220.77-6.76-16.06-33.28-34.38-64.45-52.34-95.01-5.27-8.97-10.51-17.89-15.66-26.79,55.78-1.04,111.52-.46,166.59,3.02,20.14,1.27,40.27,3.14,60.36,5.49,8.78,12.13,17.69,24.05,26.56,35.9Zm-259.98-4.62c15.98,27.2,32.26,54.9,46.83,84-67.33,5.38-135.19,14.44-202.05,23.36-46.06,6.15-89.82,11.99-132.77,16.57-1.12-50.22-4.52-100.28-7.89-149.28,26.22-1.39,52.5-2.91,78.82-4.43,64.02-3.71,129.14-7.49,194.34-9.33,7.48,13.19,15.12,26.19,22.71,39.1Zm-313.99,199.86c-1.44,39.31-4.43,78.8-8.24,118.13-45.88,6.22-92.18,13.96-141.08,22.14-76.36,12.77-154.13,25.77-230.81,32.73,7.32-43.76,19.82-86.95,32.1-129.37,5.47-18.9,11.14-37.84,16.85-56.65,74.72-4.86,149.46-13.61,222.86-22.21,35.88-4.2,72.84-8.53,109.05-12.29.06,15.88-.15,31.73-.73,47.52Zm-372.68,36.5c-13.11,45.29-26.46,91.43-33.83,138.65-55.59,4-110.45,4.44-163.6-1.14-7.19-.76-14.38-1.62-21.58-2.57,1.79-41.89,7.54-84.39,18.34-127.49,4.92-19.64,10.33-39.11,16.02-58.38,10.32.96,20.65,1.82,30.97,2.53,55.47,3.8,111.62,3.38,167.88.48-4.81,15.92-9.58,31.92-14.21,47.92Zm-225.55,1.21c-11.04,44.04-17.02,87.35-19.03,129.97-62.91-10.14-125.78-26.63-187.42-43.79,1.77-40.2,6.87-81.03,16.25-122.24,3.8-16.68,7.99-33.15,12.43-49.43,63.35,11.94,127.95,23.42,192.73,30.68-5.28,18.07-10.33,36.34-14.96,54.81Zm-174.03-188.21c-7.41,23.93-14.96,48.28-22.1,73.13-4.45-.85-8.9-1.69-13.34-2.54-50.93-9.71-103.6-19.75-155.54-27.72-15.66-2.41-31.45-4.72-47.36-6.88,7.15-20.08,14.58-39.71,21.88-59.03,8.53-22.55,16.93-44.77,24.73-67.11,18.85.91,38.15,1.94,57.95,3.1,50.79,2.98,103.35,5.9,157.4,8.56-7.37,26.04-15.43,52.06-23.62,78.49Zm-240.46-32.12c-8,21.14-16.13,42.64-23.92,64.75-68.57-8.41-139.32-13.32-211.6-9.66,7.24-19,14.71-37.56,22.07-55.83,8.32-20.66,16.51-41.03,24.22-61.51,64.76-1.27,134.18-.26,211.18,3-6.99,19.68-14.41,39.33-21.94,59.24Zm-406.64,108.15c44.79-12.55,89.31-20.34,133.39-24.56-3.41,9.81-6.72,19.76-9.88,29.89-11.95,38.28-18.94,76.25-21.79,114.46-47.97,5.98-96.16,18.24-143.79,39.37-6.79,3.02-13.52,6.09-20.18,9.2,1.97-33.99,5.99-68.66,12.58-103.9,3.32-17.77,6.95-35.49,10.75-53.1,12.92-3.9,25.9-7.72,38.93-11.37Zm-74.9,59.75c-7.72,41.29-12.03,81.77-13.7,121.26-24.04,11.84-47.34,24.04-70.16,35.99-24.37,12.76-48.39,25.33-72.58,37.1,2.1-62.12,5.42-123.92,9.03-185.15,32.5-9.59,64.99-20.05,98.04-30.7,18.83-6.06,37.96-12.22,57.29-18.26-2.76,13.19-5.43,26.45-7.92,39.76Zm-54.95,417.11c21.14-9.73,42.67-19.63,64.55-29.29,4.99,25.49,10.42,50.19,15.98,74.04,10.68,45.87,22.56,92.27,34.03,137.14,1.66,6.5,3.33,13.02,5,19.55-25.89,7.95-51.54,16.12-76.72,24.14-42.08,13.42-83.36,26.57-124.58,38.43-4-46.36-8.3-93.01-12.64-140.07-2.44-26.45-4.32-52.92-5.75-79.39,33.4-13.83,66.47-29.04,100.14-44.55Zm-119.9,126.63c4.47,48.53,8.91,96.63,13.01,144.44-65.56,17.95-131.36,32.08-200.38,38.18.02-69.15.03-138.45.04-207.85,65.47-7.03,124.56-24.46,181.96-46.76,1.39,23.99,3.15,47.99,5.36,71.98Zm-20.91,1392.42c7.8,76.55,24.18,151.86,41.48,225.54-68.49-14.52-137.94-26.3-208.29-32.7,0-69.53.02-138.97.03-208.29,53.67,2.46,108.7,7.54,166.77,15.45Zm26.18,3.73c42.99,6.39,87.74,14.31,134.9,23.85,23.43,89.19,63.97,172.56,107.14,253.34-65.33-17.05-131.67-34.33-198.95-49.33-17.64-74.57-34.73-150.81-43.09-227.86Zm285.56,780.21c35.69,9.72,71.96,19.6,108.45,29.16-9.43,43.79-23.91,89.45-42.09,139.23-3.89,10.65-7.71,21.17-11.47,31.59-34.13-6.94-68.15-14.13-101.51-21.19-52.66-11.15-105.98-22.43-159.78-32.7,7.9-64.68,15.12-129.91,19.33-195.09,63.03,15.21,125.46,32.21,187.07,48.99Zm90.46,177.2c18.45-50.5,33.2-96.95,42.96-141.56,31.55,8.1,63.2,15.89,94.74,23.04,62.19,14.11,125.06,21.43,186.88,27.04-18.1,43.67-44.29,86.67-67.02,123.97l-12.89,21.14c-1.66,2.72-3.31,5.42-4.96,8.12-65.71-4.85-132.09-11.63-197.75-23.82-17.32-3.21-34.7-6.59-52.09-10.04,3.33-9.21,6.71-18.51,10.14-27.9Zm37.28,63.17c62.47,11.59,125.29,18.36,187.48,23.2-25.24,41.79-48.58,82.24-67.86,124.55-61.02-1.23-122.5-3.46-183.24-8.23-13.24-1.04-26.54-2.13-39.84-3.27,13.19-48.04,29.29-96.42,47.29-147.09,18.73,3.73,37.48,7.38,56.16,10.85Zm216.2,25.31c30.36,2.11,60.54,3.87,90.41,5.6,32.13,1.87,64.94,3.78,97.87,6.12-18.12,37.3-36.26,75.1-52.18,113.74-38.42-.74-76.84-1.11-114.38-1.47-29.87-.28-60.06-.57-90.4-1.05,19.36-40.68,42.82-80.4,68.68-122.94Zm215.79,13.79c11.53.92,23.06,1.88,34.56,2.95,24.73,2.29,49.43,4.76,74.1,7.23,14.23,1.42,28.55,2.85,42.92,4.25-8.71,33.85-17.2,68.04-24.59,102.55-50.33-1.08-101.82-2.46-154.72-4.06-8.11-.24-16.25-.46-24.39-.66,16.06-38.04,34.19-75.39,52.12-112.26Zm183.97-8.28c.53-2.02,1.05-4.04,1.58-6.05,11.29-43.36,22.71-87.18,32.33-131.45,43.62,7.86,86.66,14.36,131.29,16.87-1.45,36.34-3.16,72.51-4.87,108.35-.36,7.59-.72,15.21-1.08,22.84-53.3-1.58-106.6-5.69-159.25-10.55Zm433.1-147.27c75.19-17.09,149.44-40.47,224.11-65.49-2.52,24.87-5.11,49.64-7.68,74.27-3.14,30.1-6.31,60.4-9.35,90.86-69.41,15.12-141.14,29.92-214.41,40.9,2.69-46.48,5.3-93.38,7.33-140.54Zm230.77,120.77c71.42-15.34,143.79-27.32,216.45-37.12-7,51.99-13.25,104.29-18.08,156.78-69.87,4.48-140.19,9.39-210.01,15.15,3.24-45.11,7.27-90.1,11.64-134.8Zm242.8-40.58c92.98-11.89,186.28-20.51,278.48-28.37-2.99,10.7-6,21.42-9.02,32.18-12.91,46-25.99,92.59-38.36,139.71-35.17,2.15-70.19,4.24-104.98,6.3-47.72,2.84-96.04,5.71-144.63,8.76,4.96-53.05,11.37-105.97,18.51-158.59Zm294.16,10.74c3.87-13.78,7.74-27.58,11.6-41.42,13.32-1.12,26.62-2.23,39.88-3.34,78.12-6.53,157.75-13.19,237.45-21.49-16.6,42.1-33.52,84-50.08,125.04-7.27,18.01-14.58,36.14-21.9,54.36-84.57,7.03-169.21,12.75-253.04,17.97,11.69-44.18,23.96-87.91,36.09-131.11Zm262.65,68.39c18.22-45.14,36.85-91.34,55.06-137.72,51.88-5.68,103.71-12.13,155.11-19.79,19.89-2.96,39.25-6.24,58.17-9.56-20.89,62.74-43.67,125.18-67.28,187.07-8.29.93-16.61,1.87-24.96,2.82-17.17,1.95-34.53,3.91-52.13,5.82-46.85,5.09-93.91,9.6-141.03,13.69,5.7-14.17,11.4-28.28,17.06-42.32Zm297.06-172.19c.13-.02.27-.05.4-.07,54.22-9.75,106.68-19.16,160.92-21.93-9.97,66.38-24.44,132.13-42.09,198.49-62.81.37-124.17,5.81-186.57,12.54,23.7-62.5,46.5-125.59,67.34-189.03Zm187.36-22.78c29.97-.26,60.65,1.75,92.6,7.1l10.59,1.78c13.23,2.22,26.4,4.42,39.51,6.59-2.86,66.88-9.68,133.57-18.94,199.33-7.2-.95-14.38-1.9-21.56-2.85l-34.08-4.51c-37.46-4.94-73.89-7.38-109.74-8.02,17.5-66.54,31.79-132.59,41.62-199.42Zm107.43-16.43l-10.6-1.77c-32.31-5.41-63.19-7.58-93.27-7.51,1.61-12.47,3.07-24.97,4.35-37.52,3.8-37.26,4.63-72.02,2.25-105.3,28.99-2.11,57.94-2.71,87.42-.64l5.8.41c12.12.85,24.19,1.7,36.21,2.52,4.32,51.79,5.42,103.85,4.02,155.85-12.01-1.99-24.07-4.01-36.18-6.04Zm55.73-173.96c-5.76-56.92-15.48-113.53-30.05-169.38,2.47-.16,4.94-.32,7.41-.48,60.02-3.9,118.63-7.72,176.67-14.06,5.48,61.57,9.45,124.7,11.93,189.29-55.04.91-110.06-1.74-165.96-5.36Zm-24.3-195.47c-4.22.27-8.46.55-12.69.83-6.39-22.12-13.57-44.12-21.6-65.96-16.6-45.15-34.51-90.47-51.82-134.3-.33-.84-.66-1.68-1-2.52,10.28-.88,20.51-1.75,30.65-2.61,68.35-5.8,137.73-11.68,207.25-19.65,6.84,51.62,13.69,104.35,19.58,156.63,2,17.72,3.86,35.57,5.6,53.56-57.74,6.33-116.15,10.13-175.97,14.02Zm195.86-70.45c-5.91-52.4-12.75-105.14-19.59-156.78,74.74-9.14,149.51-20.97,223.22-37.96-.02,69.37-.04,138.65-.07,207.84-65.99,20.02-131.6,32.13-197.96,40.36-1.74-17.95-3.6-35.77-5.59-53.46Zm203.43-2090.16c-56.87,6-102.83,22.67-145.3,44.03,2.12-49.8,3.09-99.67,2-149.11-.46-20.63-1.24-41.28-2.28-61.93,46.17-18.07,93.26-32.88,145.48-40.06.04,69.05.07,138.08.11,207.08Zm-.12-232.97c-53.19,6.94-100.74,21.3-146.98,39-4.64-75.22-12.67-150.4-22.23-224.99,55.77-9.62,112.28-17.83,169.08-22.25.05,69.43.09,138.84.13,208.24Zm-172.07,48.95c-21.28,8.7-42.46,17.95-63.95,27.34-17.12,7.48-34.51,15.08-52.23,22.49-14.46-84.78-35.31-168.73-58.87-251.61,22.33-4.13,44.5-8.36,66.32-12.53,28.5-5.45,57.29-10.95,86.3-16.17,9.78,76.5,17.95,153.55,22.43,230.48Zm-262-399.26c18.41,58.49,37.03,117.63,54.43,177.31-16.96,3.02-33.95,5.94-50.9,8.67-38.25,6.15-76.49,10.11-115.39,11.92-24.37-61.71-50.4-122.71-76.15-183.06-14.99-35.13-30.42-71.29-45.2-106.88,68.12-.03,136.26-.05,204.41-.08,9.45,30.65,19.11,61.35,28.8,92.13Zm-211.61,24.9c24.48,57.37,49.21,115.33,72.5,173.89-67.54,1.35-137.54-3.81-213.45-15.62-8.7-20.09-17.47-40.08-26.2-59.97-30.93-70.45-62.83-143.13-88.93-215.17,68.89-.02,137.79-.04,206.73-.07,16.05,38.87,32.96,78.52,49.36,116.94Zm-190.64,108.61c6.51,14.83,13.05,29.73,19.55,44.67-23.15-4.05-46.85-8.68-71.24-13.92-39.9-8.59-80.46-18.17-119.69-27.44-9.6-2.27-19.23-4.54-28.88-6.81-38.17-70.7-76.14-143.72-99.88-221.92,69.12-.02,138.26-.03,207.44-.05,26.96,75.71,60.35,151.8,92.69,225.48Zm-233.55-11.25c-72.12-16.62-145.58-32.11-219.84-41.41-36.59-51.41-68.03-104.58-82.05-172.71,69.48-.01,138.99-.02,208.54-.04,22.09,75.94,57.08,146.28,93.35,214.16Zm-253.64-45.2c-13.04-1.28-26.1-2.36-39.18-3.18-60.49-3.82-121.59-4.2-182.58-2.77-27.76-50.23-51.09-101.58-60.61-162.94,69.28,0,138.6-.01,207.97-.02,12.79,66.48,41.4,120.07,74.4,168.93Zm-250.49-5.16c-61.09,1.96-121.97,5.49-181.89,8.96-26.42,1.53-52.79,3.06-79.09,4.45-3.95-58.38-7.47-118.11-6.62-177.14,69.88,0,139.8,0,209.78,0,9.02,61.85,31.54,114.58,57.82,163.74Zm-284.86,40.33c3.4,49.48,6.85,100.08,7.92,150.6-37.11,3.84-74.98,8.27-111.72,12.57-69.85,8.18-140.91,16.5-211.85,21.43,3.23-10.52,6.46-20.98,9.66-31.34,14.85-48.09,29.9-96.85,43.6-146.42,86.41-.42,174.17-2.51,262.39-6.84Zm-330.5,145.69c-4.14,13.4-8.33,26.97-12.51,40.64-58.48,3.3-116.76,3.98-174.07.05-8.38-.57-16.76-1.25-25.15-2,7.37-23.89,15.02-47.47,22.56-70.67,11.66-35.87,23.45-72.16,33.98-109.2,64.44,1.58,130.14,2.47,196.72,2.4-12.85,45.91-27.03,91.84-41.52,138.77Zm-148.2-166.68c15.49-58.62,27.08-119.25,29.39-183.11,68.58,0,137.21.02,205.92.02-8.61,63.53-22.24,124.55-38.54,185.31-66.57.14-132.3-.69-196.77-2.22Zm-26.27-.66c-69.39-1.86-137.23-4.49-203.02-7.56,14.43-55.89,24.77-112.79,25.68-174.93,69.04.01,138.14.03,207.32.04-2.35,63.81-14.04,123.46-29.99,182.45Zm-229.22-8.81c-55.96-2.73-110.35-5.74-162.82-8.82-17.35-1.02-34.31-1.94-50.94-2.76,16.45-50.83,28.89-103.15,31.81-162.15,69.31.02,138.7.04,208.18.05-.95,61.31-11.56,117.84-26.23,173.69Zm-240.36-12.83c-76.65-3.38-145.89-4.55-210.49-3.52,17.18-49.13,30.61-99.83,35.15-157.46,69.27.03,138.63.05,208.07.07-3.05,58.14-15.91,110.08-32.72,160.92Zm-237.94-2.95c-54.53,1.43-105.93,4.5-155.96,9.21-12.8,1.21-25.63,2.48-38.46,3.79,11.41-55.61,20.61-112.53,23.91-171.13,69.02.03,138.15.06,207.35.08-4.78,57.46-18.97,108.32-36.85,158.05Zm-221.14,15.78c-23.55,2.49-46.98,5.07-70,7.61-38.76,4.27-77.97,8.55-117.46,12.37,3.07-64.4,5.23-129.28,5.43-194,68.89.04,137.89.07,206.98.1-3.43,59.72-12.93,116.7-24.95,173.92Zm-67.19,33.11c20.24-2.23,40.81-4.49,61.48-6.7-5.29,23.88-10.91,47.88-16.62,72.23-5.57,23.76-11.23,47.95-16.64,72.42-24.15,7.44-47.99,15.1-71.36,22.63-29.85,9.61-59.24,19.08-88.56,27.87.63-10.56,1.27-21.11,1.91-31.64,2.87-47.46,5.77-95.54,8.25-143.96,40.88-3.96,81.45-8.43,121.55-12.85ZM26.08,491.54c66-5.07,127.59-18.38,188.59-35.39-3.66,62.79-6.99,126.18-8.96,189.95-55.8,25.43-113.56,45.47-179.63,52.73,0-69.08,0-138.2,0-207.29Zm0,233.11c66.18-6.88,123.75-25.76,178.86-50.05-1.68,69.54-1.56,139.48,1.67,209.55-57.37,22.77-116.03,40.71-180.55,47.98.01-69.09.02-138.26.02-207.48Zm214.41,1904.15c.83,3.49,1.66,6.98,2.49,10.47,12.68,53.31,25.8,108.44,35.82,162.95,2.53,13.76,4.72,27.57,6.61,41.44-85.47-18.88-172.14-34.23-259.76-41.89,0-69.24,0-138.44,0-207.56,72.4,6.72,144.07,19.25,214.83,34.59Zm51.3,475.74c-4.09,65.52-11.31,131.21-19.25,196.37-81.43-14.96-163.9-27.18-246.81-32.64-.02-69.16-.04-138.35-.05-207.54,89.5,7.02,178.38,23.42,266.12,43.81Zm-266.06,189.44c81.64,5.47,163.1,17.61,243.66,32.45-1.63,13.12-3.28,26.21-4.92,39.27-6.04,48.01-12.16,96.65-17.35,145.45-73.41-5.66-147.48-9.82-221.3-10.29-.04-68.9-.06-137.86-.09-206.87Zm264.19,74.92c1.58-12.55,3.16-25.13,4.73-37.73,53.04,10.14,105.65,21.27,157.62,32.28,32.24,6.83,65.09,13.77,98.09,20.5-18.27,51.57-34.58,100.86-47.89,149.96-30.73-2.71-61.39-5.56-91.44-8.37-45.65-4.25-91.84-8.56-138.34-12.36,5.15-48.37,11.22-96.63,17.22-144.28Zm118.74,182.18c28.69,2.67,57.92,5.39,87.26,8-14.22,56.99-24.16,114.21-28.16,174.93-69.63.03-139.17.06-208.59.09-.06-64.29,4.41-129.85,10.9-195.4,46.57,3.8,92.85,8.11,138.58,12.38Zm113.17,10.26c14.85,1.27,29.7,2.5,44.49,3.67,57.88,4.54,116.27,6.8,174.26,8.08-19.89,48.84-34.02,100.9-39.26,160.83-69.37.02-138.65.05-207.83.08,4.05-59.72,14.07-116.2,28.35-172.66Zm246.12,12.29c34.14.59,68.1.92,101.66,1.24,34.34.33,69.42.66,104.52,1.28-19.32,50.76-34.06,103.08-39.37,157.7-69.32.02-138.55.04-207.69.06,5.47-60.09,20.05-111.42,40.89-160.29Zm233.5,3.08c11.35.26,22.68.54,33.97.88,51.34,1.55,101.34,2.89,150.25,3.95-9.83,50.16-16.87,100.95-18.44,152.26-68.98.01-137.87.03-206.69.05,5.57-54.03,20.97-106.24,40.91-157.14Zm210.28,5.38c64.9,1.29,127.91,2.05,189.62,2.11-1.48,49.84-2.17,99.86-1.36,149.56-69.11,0-138.13.02-207.09.03,1.62-50.87,8.83-101.53,18.83-151.71Zm215.28,2.09c72.14-.15,142.59-1.3,212.22-3.72-2.52,50.92-4.54,102.21-5.41,153.28-69.47,0-138.86.01-208.18.02-.82-49.63-.12-99.68,1.37-149.58Zm.84-25.65c1.06-30.47,2.37-60.85,3.76-91.01,6.52.09,13.05.14,19.57.14,3.79,0,7.59-.02,11.38-.05,62.03-.51,123.38-5.73,183.68-13.79-1.94,33.31-3.9,67.01-5.69,100.92-69.77,2.45-140.37,3.62-212.7,3.78Zm244.14-105.63c.05-.9.11-1.81.16-2.72,72.93-10.74,144.24-25.27,213.3-40.24-4.21,43.51-8.08,87.31-11.18,131.24-69.23,5.72-138.25,9.82-207.97,12.6,1.79-33.89,3.75-67.59,5.7-100.89Zm226.37,112.03c69.6-5.77,139.76-10.7,209.52-15.19-5.06,61.2-8.01,122.61-7.77,183.99-69.26,0-138.46,0-207.61,0-.02-56.16,2.23-112.54,5.86-168.8Zm235.41-16.83c49.87-3.14,99.47-6.09,148.45-9,32.05-1.9,64.31-3.82,96.69-5.8-16.81,65.85-31.95,132.72-43.07,200.47-70.08,0-140.1-.02-210.08-.02-.24-61.84,2.81-123.81,8.01-185.64Zm272.05-16.46c82.51-5.11,165.85-10.69,249.2-17.48-28.87,72.24-57.5,145.79-83.51,219.65-69.93-.01-139.82-.03-209.66-.04,11.36-68.17,26.84-135.63,43.97-202.13Zm277.79-19.87c51.6-4.39,103.17-9.26,154.51-14.84,17.64-1.92,35.04-3.88,52.25-5.83,3.91-.44,7.82-.88,11.72-1.33-22.52,58.35-45.65,116.17-68.47,173.23-9.45,23.63-18.89,47.24-28.28,70.86-68.91-.02-137.79-.04-206.63-.05,26.49-74.61,55.64-149.01,84.9-222.04Zm173.83,160.76c24.48-61.2,49.3-123.27,73.37-185.97,63.77-7.02,126.22-12.98,189.87-13.75-23.54,84.9-51.99,171.08-82.64,261.11-68.39-.02-136.75-.04-205.09-.06,8.14-20.44,16.31-40.89,24.49-61.34Zm289.85-199.71c37.08.43,74.68,2.78,113.29,7.88l34.06,4.51c7.06.94,14.14,1.87,21.22,2.81-12.69,84.19-29.09,166.7-46.01,246.01-68.26-.03-136.49-.05-204.71-.08,30.54-89.89,58.8-176.04,82.15-261.12Zm194.02,18.54c58.71,7.7,118.12,15.19,177.95,21.27-4.29,72.51-10.16,146.37-17.61,221.49-68.54-.03-137.06-.06-205.57-.09,16.64-78.29,32.72-159.64,45.23-242.66Zm3.7-25.4c9.22-65.45,16.04-131.84,19.02-198.5,54.92,8.91,109.1,16.93,163.49,22.33-.91,64.52-3.17,130.26-6.8,197.19-59.03-6.02-117.71-13.41-175.71-21.02Zm208.13-173.83c59.36,4.94,119.17,6.43,180.7,2.2-.04,68.89-.08,137.67-.13,206.34-62.55-1.11-125.15-5.29-187.43-11.19,3.65-66.97,5.92-132.77,6.86-197.35Zm180.71-23.54c-61.25,4.31-120.99,2.8-180.41-2.21.55-60.66-.12-120.23-1.98-178.63,60.07-2.26,120.49-9.15,182.5-23.94-.03,68.36-.07,136.62-.11,204.77Zm.12-231.18c-62.12,15.31-122.86,22.39-183.41,24.67-2.5-65.36-6.52-129.25-12.08-191.56,65.36-8.06,130.15-19.86,195.58-39.15-.03,68.77-.06,137.45-.09,206.04Zm-.29-2803.03c-58.1,4.43-115.67,12.75-172.38,22.51-7.65-57.66-16.07-114.93-24.41-171.54-2.92-19.86-5.83-39.72-8.72-59.56,68.45-.04,136.9-.07,205.36-.11.05,69.58.1,139.15.15,208.7ZM1866.56,26.22c-.84,59.75,2.69,119.8,6.65,178.46-85.25,4.17-170.09,6.24-253.7,6.74,15.97-60.42,29.54-122.06,37.93-185.2,69.65,0,139.35,0,209.11,0Zm-1632.92-.42c-.2,65.45-2.43,131.18-5.57,196.44-67,6.09-134.65,10.57-202.02,11.14-.02-69.34-.04-138.59-.06-207.7,69.1.04,138.33.08,207.66.12ZM25.84,3526.5c72.8.47,146.02,4.57,218.67,10.16-6.53,66.08-11.03,132.28-10.97,197.44-69.29.03-138.49.07-207.56.11-.05-69.13-.09-138.38-.13-207.71Zm1633.64,207.22c.88-51.33,2.92-102.96,5.48-154.23,69.57-2.74,138.46-6.8,207.56-12.45-3.52,55.49-5.7,111.15-5.68,166.67h-1.29c-68.75,0-137.44,0-206.07,0Zm1867.93.39c7.33-74.24,13.13-147.27,17.39-219,62.67,5.91,125.74,10.1,188.88,11.21-.05,69.41-.1,138.72-.15,207.89-68.71-.04-137.42-.07-206.12-.1Z"/>
</svg>