<?xml version="1.0" encoding="UTF-8"?>
<svg id="Layer_1" data-name="Layer 1" xmlns="http://www.w3.org/2000/svg" viewBox="0 0 3752 3752">
  <path d="m3752,0h0S.01,0,.01,0H.01S.01,0,.01,0h-.01.01s-.01,3751.99-.01,3751.99h0s.01,0,.01,0h3751.99S3752,0,3752,0Zm-1847.87,2578.2l.56,12.17h-57.4l.56-12.17h56.27Zm-55.76-10.41l.51-10.8h54.25l.51,10.8h-55.27Zm56.83,33l.64,13.69h-59.71l.67-13.69h58.39Zm1.13,24.1l.73,15.35h-62.12l.73-15.35h60.67Zm1.24,25.76l.81,17.2h-64.76l.81-17.2h63.14Zm1.32,27.61l.91,19.26h-67.58l.91-19.26h65.75Zm1.4,29.67l1.02,21.55h-70.61l1.02-21.55h68.57Zm1.5,31.96l1.15,24.12h-73.89s1.15-24.12,1.15-24.12h71.58Zm1.64,34.53l1.29,27.01h-77.43s1.29-27.01,1.29-27.01h74.85Zm3.71,78.11l1.61,34h-85.49s1.61-34,1.61-34h82.27Zm-81.78-10.41l1.45-30.28h78.4s1.45,30.28,1.45,30.28h-81.3Zm86.22,103.48l2.04,43.14h-95.19l2.04-43.14h91.1Zm-90.62-10.41l1.83-38.25h86.48s1.8,38.25,1.8,38.25h-90.11Zm696.84,178.63l-28.93-55.44h100.24l34.19,55.44h-105.5Zm111.89,10.41l39,63.24h-112.48l-32.98-63.24h106.47Zm-1520.94-10.41l34.16-55.44h100.24l-28.93,55.44h-105.47Zm100.05,10.41l-32.98,63.24h-112.46l38.97-63.24h106.47Zm1137.97-135.48l-18.4-43.14h89.98l22.51,43.14h-94.09Zm99.51,10.41l25.46,48.81h-99.7l-20.82-48.81h95.05Zm-122.37-63.96l-16.33-38.25h85.38l19.96,38.25h-89.01Zm-139.05-82.66l11.28,34h-85.09l-8.06-34h81.86Zm-2.58-40.69h77.7l12.92,30.28h-80.55l-10.07-30.28Zm13.51,40.69h81.57l14.5,34h-84.79l-11.28-34Zm100.5,44.41l16.33,38.25h-89.39l-12.7-38.25h85.76Zm6.85-10.41l-14.5-34h81.17l17.73,34h-84.39Zm-18.96-44.41l-12.92-30.28h77.33l15.79,30.28h-80.2Zm-17.35-40.69l-11.52-27.01h73.75l14.07,27.01h-76.31Zm-11.28,0h-76.71l-8.97-27.01h74.13l11.55,27.01Zm-84.2,10.41l10.05,30.28h-80.87l-7.17-30.28h78Zm-161.1,40.69h82.08l8.06,34h-85.3l-4.83-34Zm1.26,82.66h-90.06l-1.83-38.25h86.46l5.43,38.25Zm79.37-133.75l-6.39-27.01h74.45l8.97,27.01h-77.03Zm-1.02,40.69h-81.09l-4.32-30.28h78.24l7.17,30.28Zm-86.89-40.69l-3.84-27.01h74.69l6.39,27.01h-77.25Zm-3.2,51.1l4.83,34h-85.46l-1.61-34h82.24Zm-82.72-10.41l-1.45-30.28h78.37l4.32,30.28h-81.25Zm2.5,271.69h-107.06l2.63-55.44h101.79l2.63,55.44Zm-104.56-271.69h-81.25l4.3-30.28h78.37l-1.42,30.28Zm-.51,10.41l-1.61,34h-85.44l4.83-34h82.21Zm-88.53,44.41h86.43l-1.83,38.25h-90.06l5.45-38.25Zm-9-10.41h-85.33l8.06-34h82.11l-4.83,34Zm12.09-85.1h-77.25l6.42-27.01h74.67l-3.84,27.01Zm-1.48,10.41l-4.3,30.28h-81.11l7.17-30.28h78.24Zm-86.43-10.41h-77l8.97-27.01h74.45l-6.42,27.01Zm-2.47,10.41l-7.17,30.28h-80.87l10.05-30.28h78Zm-347.5,176.9l22.51-43.14h90l-18.42,43.14h-94.09Zm89.65,10.41l-20.84,48.81h-99.7l25.46-48.81h95.08Zm-61.72-63.96l19.96-38.25h85.38l-16.33,38.25h-89.01Zm128.73-93.07h-80.17l15.79-30.28h77.3l-12.92,30.28Zm24.2-30.28h77.7l-10.05,30.28h-80.58l12.92-30.28Zm-28.63,40.69l-14.53,34h-84.39l17.75-34h81.17Zm-7.68,44.41h85.76l-12.68,38.25h-89.41l16.33-38.25Zm4.46-10.41l14.5-34h81.54l-11.28,34h-84.77Zm106.98-34h81.86l-8.06,34h-85.09l11.28-34Zm6.04-51.1h-76.71l11.52-27.01h74.13l-8.94,27.01Zm-87.99,0h-76.33l14.1-27.01h73.75l-11.52,27.01Zm-68.52-37.42h-72.33l14.88-24.11h70.02l-12.57,24.11Zm-5.43,10.41l-14.1,27.01h-75.85l16.65-27.01h73.3Zm-19.53,37.42l-15.79,30.28h-79.72l18.67-30.28h76.84Zm-21.22,40.69l-17.73,34h-83.93l20.95-34h80.71Zm-23.18,44.41l-19.93,38.25h-88.55l23.58-38.25h84.9Zm-25.38,48.66l-22.51,43.14h-93.6l26.59-43.14h89.52Zm-27.93,53.55l-25.46,48.81h-99.24l30.11-48.81h94.6Zm-19.18,59.22h100.69l-23.66,55.44h-105.96l28.93-55.44Zm111.97,0h101.07l-18.4,55.44h-106.33l23.66-55.44Zm4.43-10.41l20.84-48.81h95.46l-16.2,48.81h-100.1Zm25.27-59.22l18.42-43.14h90.38l-14.32,43.14h-94.49Zm119.74-43.14h90.7l-10.23,43.14h-94.78l14.32-43.14Zm3.46-10.41l12.68-38.25h86.08l-9.05,38.25h-89.71Zm97.9,10.41h90.92l-6.15,43.14h-95l10.23-43.14Zm2.47-10.41l9.05-38.25h86.3l-5.43,38.25h-89.92Zm98.92,10.41h91.05l-2.04,43.14h-95.16l6.15-43.14Zm92.96,178.63h108.05l3.01,63.24h-114.04s2.98-63.24,2.98-63.24Zm109.96-178.63h91.08l6.12,43.14h-95.13l-2.07-43.14Zm94.62-48.66h86.3l9.08,38.25h-89.92l-5.45-38.25Zm97.85,48.66l10.23,43.14h-95.03l-6.12-43.14h90.92Zm8.19-10.41l-9.08-38.25h86.08l12.7,38.25h-89.71Zm93.15,10.41l14.34,43.14h-94.78l-10.23-43.14h90.67Zm10.93,0h90.38l18.42,43.14h-94.46l-14.34-43.14Zm113.24,53.55l20.84,48.81h-100.07l-16.22-48.81h95.46Zm25.27,59.22l23.66,55.44h-106.33l-18.4-55.44h101.07Zm11.31,0h100.67l28.93,55.44h-105.93l-23.66-55.44Zm106.95-10.41l-25.46-48.81h94.62l30.08,48.81h-99.24Zm-30.89-59.22l-22.51-43.14h89.55l26.59,43.14h-93.63Zm-27.93-53.55l-19.96-38.25h84.93l23.58,38.25h-88.55Zm-25.38-48.66l-17.73-34h80.71l20.95,34h-83.93Zm-23.18-44.41l-15.79-30.28h76.87l18.67,30.28h-79.74Zm-21.22-40.69l-14.07-27.01h73.3l16.65,27.01h-75.88Zm-19.5-37.42l-12.6-24.12h70.02l14.88,24.12h-72.3Zm-18.02-34.53l-11.23-21.55h66.99l13.27,21.55h-69.03Zm-6.28,10.41l12.6,24.12h-72.79l-10.29-24.12h70.48Zm-74.91-10.41l-9.21-21.55h67.47l11.23,21.55h-69.48Zm-6.85,10.41l10.29,24.12h-73.16l-8-24.12h70.88Zm-74.32-10.41l-7.17-21.55h67.84l9.19,21.55h-69.86Zm.51,34.53h-73.46l-5.72-24.12h71.18l8,24.12Zm-81.65-34.53l-5.1-21.55h68.14l7.14,21.55h-70.18Zm-2.47,34.53h-73.7l-3.44-24.12h71.42l5.72,24.12Zm-78.61-34.53l-3.06-21.55h68.38l5.1,21.55h-70.42Zm-.24,71.94h-77.38l-1.29-27.01h74.83l3.84,27.01Zm-78.4,197.72l2.31,48.81h-100.8l2.31-48.81h96.18Zm-97.17-197.72h-77.41l3.84-27.01h74.83l-1.26,27.01Zm-77.65-71.94h-70.42l5.13-21.55h68.35l-3.06,21.55Zm-1.48,10.41l-3.44,24.11h-73.67l5.72-24.11h71.39Zm-79.61-10.41h-70.18l7.14-21.55h68.17l-5.13,21.55Zm-2.44,10.41l-5.72,24.11h-73.48l8-24.11h71.2Zm-78.67-10.41h-69.89l9.19-21.55h67.84l-7.14,21.55Zm-3.46,10.41l-8,24.11h-73.16l10.29-24.11h70.88Zm-77.7-10.41h-69.51l11.25-21.55h67.44l-9.19,21.55Zm-4.46,10.41l-10.29,24.11h-72.76l12.57-24.11h70.48Zm-76.76-10.41h-69.03l13.27-21.55h67.01l-11.25,21.55Zm-81.22,0h-68.52l15.31-21.55h66.47l-13.27,21.55Zm-6.42,10.41l-14.88,24.11h-71.79s17.16-24.11,17.16-24.11h69.51Zm-21.3,34.53l-16.65,27.01h-75.34s19.23-27.01,19.23-27.01h72.76Zm-23.07,37.42l-18.67,30.28h-79.18l21.54-30.28h76.31Zm-25.06,40.69l-20.98,34h-83.4s24.17-34,24.17-34h80.2Zm-27.4,44.41l-23.58,38.25h-88.02l27.21-38.25h84.39Zm-30,48.66l-26.59,43.14h-93.09l30.67-43.14h89.01Zm-33.01,53.55l-30.08,48.81h-98.73l34.73-48.81h94.09Zm-36.5,59.22l-34.16,55.44h-104.99l39.46-55.44h99.7Zm-40.58,65.85l-39,63.24h-111.95s44.99-63.24,44.99-63.24h105.96Zm-45.42,73.65l-44.69,72.51h-119.82l51.57-72.51h112.94Zm12.22,0h113.45l-37.82,72.51h-120.35l44.72-72.51Zm125.16,0h113.91l-30.94,72.51h-120.78l37.82-72.51Zm5.43-10.41l32.98-63.24h106.92l-26.97,63.24h-112.94Zm151.21-63.24h107.3l-20.98,63.24h-113.32l26.99-63.24Zm118.23,0h107.65l-14.99,63.24h-113.64l20.98-63.24Zm3.46-10.41l18.4-55.44h101.39l-13.13,55.44h-106.66Zm21.86-65.85l16.2-48.81h95.78l-11.58,48.81h-100.4Zm122.64-48.81h95.99l-6.93,48.81h-100.64l11.58-48.81Zm98.03,59.22h101.77l-2.63,55.44h-107l7.87-55.44Zm1.5-10.41l6.93-48.81h96.13l-2.31,48.81h-100.75Zm104.02,149.91h115.04s3.44,72.51,3.44,72.51h-121.91l3.44-72.51Zm118.31-149.91l-2.31-48.81h96.13l6.96,48.81h-100.77Zm102.25,10.41l7.9,55.44h-107.03l-2.63-55.44h101.77Zm2.04-59.22h96.02l11.55,48.81h-100.61l-6.96-48.81Zm106.66,0h95.78l16.2,48.81h-100.4l-11.58-48.81Zm115.44,59.22l18.4,55.44h-106.63l-13.16-55.44h101.39Zm21.86,65.85l20.98,63.24h-113.61l-14.99-63.24h107.62Zm10.93,0h107.33l26.99,63.24h-113.32l-21-63.24Zm118.61,0h106.92l32.98,63.24h-112.91l-26.99-63.24Zm145.36,73.65l37.82,72.51h-120.81l-30.94-72.51h113.93Zm11.68,0h113.48l44.69,72.51h-120.33l-37.84-72.51Zm125.67,0h112.94s51.57,72.51,51.57,72.51h-119.82l-44.69-72.51Zm-6.42-10.41l-38.97-63.24h105.96l44.96,63.24h-111.95Zm-45.39-73.65l-34.19-55.44h99.73l39.43,55.44h-104.96Zm-40.61-65.85l-30.08-48.81h94.09l34.73,48.81h-98.73Zm-36.5-59.22l-26.59-43.14h89.01l30.7,43.14h-93.12Zm-33.01-53.55l-23.58-38.25h84.39s27.21,38.25,27.21,38.25h-88.02Zm-30-48.66l-20.95-34h80.17l24.2,34h-83.42Zm-27.37-44.41l-18.67-30.28h76.33s21.54,30.28,21.54,30.28h-79.21Zm-25.09-40.69l-16.65-27.01h72.79s19.2,27.01,19.2,27.01h-75.34Zm-23.07-37.42l-14.85-24.12h69.48l17.16,24.12h-71.79Zm-21.27-34.53l-13.29-21.55h66.47l15.34,21.55h-68.52Zm-19.71-31.96l-11.87-19.26h63.65l13.7,19.26h-65.48Zm-18.29-29.67l-10.58-17.2h61.02l12.25,17.2h-62.69Zm-5.77,10.41l11.87,19.26h-66.02l-10.05-19.26h64.19Zm-69.62-10.41l-8.97-17.2h61.56l10.61,17.2h-63.2Zm-6.28,10.41l10.05,19.26h-66.45l-8.22-19.26h64.62Zm-69.08-10.41l-7.33-17.2h62.02l8.97,17.2h-63.65Zm-6.82,10.41l8.22,19.26h-66.85l-6.39-19.26h65.02Zm-68.49-10.41l-5.72-17.2h62.42l7.33,17.2h-64.03Zm-1.1,29.67h-67.15l-4.57-19.26h65.32l6.39,19.26Zm-74.18-29.67l-4.08-17.2h62.71l5.72,17.2h-64.35Zm-3.63,29.67h-67.39l-2.74-19.26h65.56l4.57,19.26Zm-68.41,66.48h-73.83l-1.15-24.12h71.55l3.44,24.12Zm-168.48,0h-73.83l3.41-24.11h71.55l-1.13,24.11Zm-74.85-66.48h-67.39l4.57-19.26h65.56l-2.74,19.26Zm-71.04-29.67h-64.33l5.69-17.2h62.71l-4.08,17.2Zm-2.44,10.41l-4.57,19.26h-67.17l6.39-19.26h65.35Zm-72.84-10.41h-64.03l7.33-17.2h62.42l-5.72,17.2Zm-3.44,10.41l-6.39,19.26h-66.85l8.22-19.26h65.02Zm-71.87-10.41h-63.65l8.97-17.2h62.02l-7.33,17.2Zm-4.46,10.41l-8.22,19.26h-66.45l10.05-19.26h64.62Zm-70.91-10.41h-63.2l10.61-17.2h61.56l-8.97,17.2Zm-5.43,10.41l-10.05,19.26h-66.02l11.87-19.26h64.19Zm-69.97-10.41h-62.66l12.22-17.2h61.05l-10.61,17.2Zm-6.42,10.41l-11.87,19.26h-65.48l13.7-19.26h63.65Zm-69-10.41h-62.1l13.86-17.2h60.49l-12.25,17.2Zm-7.41,10.41l-13.7,19.26h-64.92l15.52-19.26h63.09Zm-21.08,29.67l-15.34,21.55h-67.95l17.38-21.55h65.91Zm-22.75,31.96l-17.14,24.11h-71.23l19.45-24.11h68.92Zm-24.55,34.52l-19.2,27.01h-74.77l21.76-27.01h72.22Zm-26.62,37.42l-21.54,30.28h-78.61l24.39-30.28h75.77Zm-28.95,40.69l-24.17,33.99h-82.83l27.4-33.99h79.61Zm-31.59,44.41l-27.21,38.25h-87.45l30.83-38.25h83.83Zm-34.59,48.66l-30.7,43.14h-92.53l34.78-43.14h88.45Zm-38.11,53.55l-34.7,48.81h-98.17l39.35-48.81h93.52Zm-42.11,59.22l-39.43,55.44h-104.4l44.69-55.44h99.13Zm-46.84,65.85l-44.99,63.24h-111.38l50.98-63.24h105.39Zm-52.37,73.65l-51.6,72.51h-119.22l58.44-72.51h112.38Zm-58.98,82.92l-59.52,83.65h-128.14l67.41-83.65h120.25Zm12.73,0h120.81l-51.57,83.65h-128.73s59.49-83.65,59.49-83.65Zm133,0h121.35l-43.65,83.65h-129.27l51.57-83.65Zm133.03,0h121.8l-35.72,83.65h-129.7l43.62-83.65Zm133.08,0h122.15l-27.74,83.65h-130.1l35.69-83.65Zm4.43-10.41l30.94-72.51h114.31l-24.07,72.51h-121.19Zm156.18-72.51h114.63l-17.19,72.51h-121.51l24.07-72.51Zm125.29,0h114.85l-10.34,72.51h-121.7l17.19-72.51Zm2.47-10.41l14.99-63.24h107.86l-9,63.24h-113.85Zm17.46-73.65l13.13-55.44h101.61l-7.87,55.44h-106.87Zm115.87,10.41h108l-3.01,63.24h-113.99l9-63.24Zm110.95,156.57h122.88l3.98,83.65h-130.83s3.98-83.65,3.98-83.65Zm125.86-156.57h108l9,63.24h-114.01l-2.98-63.24Zm109.1-65.85h101.61l13.16,55.44h-106.87l-7.9-55.44Zm117.24,65.85l14.99,63.24h-113.85l-9-63.24h107.86Zm17.46,73.65l17.19,72.51h-121.72l-10.31-72.51h114.85Zm10.66,0h114.61l24.07,72.51h-121.48l-17.19-72.51Zm125.54,0h114.31l30.94,72.51h-121.19l-24.07-72.51Zm149.71,82.92l35.69,83.65h-130.1l-27.77-83.65h122.18Zm11.28,0h121.78l43.62,83.65h-129.7l-35.69-83.65Zm133.49,0h121.32l51.57,83.65h-129.27l-43.62-83.65Zm133.51,0h120.81l59.49,83.65h-128.73s-51.57-83.65-51.57-83.65Zm133.57,0h120.22l67.44,83.65h-128.17l-59.49-83.65Zm-7.41-10.41l-51.57-72.51h112.35l58.47,72.51h-119.25Zm-58.98-82.92l-44.99-63.24h105.39l50.98,63.24h-111.38Zm-52.4-73.65l-39.43-55.44h99.16l44.67,55.44h-104.4Zm-46.81-65.85l-34.73-48.81h93.52l39.35,48.81h-98.14Zm-42.14-59.22l-30.67-43.14h88.45l34.75,43.14h-92.53Zm-38.09-53.55l-27.21-38.25h83.83l30.83,38.25h-87.45Zm-34.62-48.66l-24.17-34h79.61l27.42,34h-82.86Zm-31.59-44.41l-21.54-30.28h75.77l24.41,30.28h-78.64Zm-28.93-40.69l-19.23-27.01h72.22l21.78,27.01h-74.77Zm-26.62-37.42l-17.16-24.12h68.95l19.45,24.12h-71.23Zm-24.58-34.53l-15.31-21.55h65.91l17.35,21.55h-67.95Zm-22.72-31.96l-13.7-19.26h63.09l15.52,19.26h-64.92Zm-21.11-29.67l-12.22-17.2h60.46l13.89,17.2h-62.12Zm-19.63-27.61l-10.93-15.35h58.04l12.38,15.35h-59.49Zm-18.32-25.76l-9.75-13.69h55.76l11.04,13.69h-57.05Zm-5.34,10.41l10.9,15.35h-60.03l-9.48-15.35h58.61Zm-65.02-10.41l-8.43-13.69h56.32l9.72,13.69h-57.61Zm-5.77,10.41l9.45,15.35h-60.57l-8-15.35h59.12Zm-64.54-10.41l-7.14-13.69h56.83l8.43,13.69h-58.12Zm-6.28,10.41l8,15.35h-61.02l-6.55-15.35h59.57Zm-64.03-10.41l-5.83-13.69h57.29l7.14,13.69h-58.61Zm-.3,25.76h-61.4l-5.1-15.35h59.95l6.55,15.35Zm-69.97-25.76l-4.54-13.69h57.69l5.83,13.69h-58.98Zm-2.36,25.76h-61.75l-3.63-15.35h60.27l5.1,15.35Zm-67.84-25.76l-3.25-13.69h57.99l4.54,13.69h-59.28Zm-2.09,36.17l4.08,17.2h-64.57l-2.44-17.2h62.93Zm-64.43-10.41l-2.18-15.35h60.51l3.63,15.35h-61.96Zm-.83,67.69l3.06,21.55h-70.56l-1.02-21.55h68.52Zm-69.03-10.41l-.91-19.26h65.72l2.74,19.26h-67.55Zm-1.4-29.67l-.81-17.2h63.06l2.47,17.2h-64.73Zm-85.54,0h-64.7l2.44-17.2h63.09l-.83,17.2Zm-.48,10.41l-.91,19.26h-67.52l2.74-19.26h65.7Zm-1.4,29.67l-1.02,21.55h-70.58l3.09-21.55h68.52Zm-69.38-67.69h-61.96l3.65-15.35h60.49l-2.18,15.35Zm-1.48,10.41l-2.44,17.2h-64.59l4.08-17.2h62.96Zm-65.02-36.17h-59.3l4.54-13.69h57.99l-3.22,13.69Zm-2.47,10.41l-3.65,15.35h-61.72l5.1-15.35h60.27Zm-67.76-10.41h-58.98l5.86-13.69h57.67l-4.54,13.69Zm-3.46,10.41l-5.08,15.35h-61.43l6.55-15.35h59.95Zm-66.8-10.41h-58.58l7.14-13.69h57.26l-5.83,13.69Zm-4.43,10.41l-6.55,15.35h-61.05l8.03-15.35h59.57Zm-65.86-10.41h-58.15l8.46-13.69h56.83l-7.14,13.69Zm-5.43,10.41l-8.03,15.35h-60.57l9.45-15.35h59.14Zm-64.92-10.41h-57.61l9.75-13.69h56.3l-8.43,13.69Zm-6.42,10.41l-9.45,15.35h-60.06l10.9-15.35h58.61Zm-63.92-10.41h-57.05l11.04-13.69h55.73l-9.72,13.69Zm-7.41,10.41l-10.93,15.35h-59.46l12.35-15.35h58.04Zm-62.98-10.41h-56.43l12.35-13.69h55.11l-11.04,13.69Zm-8.38,10.41l-12.38,15.35h-58.87l13.83-15.35h57.42Zm-20.79,25.76l-13.86,17.2h-61.48l15.5-17.2h59.84Zm-22.24,27.61l-15.52,19.26h-64.3l17.35-19.26h62.47Zm-23.93,29.67l-17.38,21.55h-67.31l19.39-21.55h65.29Zm-25.76,31.96l-19.45,24.11h-70.58l21.7-24.11h68.33Zm-27.83,34.52l-21.78,27.01h-74.16l24.33-27.01h71.6Zm-30.16,37.42l-24.41,30.28h-78.02l27.29-30.28h75.15Zm-32.82,40.69l-27.4,33.99h-82.21l30.62-33.99h78.99Zm-35.8,44.41l-30.83,38.25h-86.83l34.49-38.25h83.18Zm-39.21,48.66l-34.78,43.14h-91.91l38.86-43.14h87.83Zm-43.16,53.55l-39.35,48.81h-97.55l43.99-48.81h92.9Zm-47.75,59.22l-44.69,55.44h-103.78l49.96-55.44h98.52Zm-53.07,65.85l-50.98,63.24h-110.76l56.97-63.24h104.78Zm-59.38,73.65l-58.44,72.51h-118.63l65.35-72.51h111.73Zm-66.85,82.92l-67.41,83.65h-127.55l75.36-83.65h119.6Zm-75.82,94.06l-78.35,97.2h-137.76l87.59-97.2h128.52Zm13.35,0h129.16l-69.13,97.2h-138.38l78.35-97.2Zm141.89,0h129.73s-59.92,97.2-59.92,97.2h-138.94l69.13-97.2Zm141.95,0h130.24l-50.71,97.2h-139.45l59.92-97.2Zm141.95,0h130.69l-41.5,97.2h-139.91l50.71-97.2Zm141.97,0h131.1l-32.26,97.2h-140.31l41.47-97.2Zm142.03,0h131.39l-23.04,97.2h-140.6l32.26-97.2Zm3.46-10.41l27.74-83.65h122.5l-19.85,83.65h-130.4Zm160.91-83.65h122.69l-11.9,83.65h-130.64l19.85-83.65Zm133.16,0h122.85l-3.95,83.65h-130.8l11.9-83.65Zm1.5-10.41l10.31-72.51h114.98l-3.44,72.51h-121.86Zm127.28,104.47h131.79s4.62,97.2,4.62,97.2h-141.03l4.62-97.2Zm133.81-176.98h114.98l10.31,72.51h-121.86l-3.44-72.51Zm126.77,82.92l11.9,83.65h-130.77l-3.98-83.65h122.85Zm10.47,0h122.72l19.82,83.65h-130.64l-11.9-83.65Zm133.38,0h122.47l27.77,83.65h-130.42l-19.82-83.65Zm153.68,94.06l32.28,97.2h-140.63l-23.04-97.2h131.39Zm10.93,0h131.1l41.5,97.2h-140.31l-32.28-97.2Zm142.38,0h130.72l50.68,97.2h-139.91l-41.5-97.2Zm142.43,0h130.24l59.92,97.2h-139.48l-50.68-97.2Zm142.43,0h129.73s69.13,97.2,69.13,97.2h-138.94l-59.92-97.2Zm142.48,0h129.14l78.37,97.2h-138.38l-69.13-97.2Zm142.48,0h128.54l87.56,97.2h-137.76l-78.35-97.2Zm-8.38-10.41l-67.44-83.65h119.6l75.36,83.65h-127.52Zm-75.85-94.06l-58.44-72.51h111.76l65.32,72.51h-118.63Zm-66.82-82.92l-50.98-63.24h104.75l56.99,63.24h-110.76Zm-59.38-73.65l-44.69-55.44h98.52l49.96,55.44h-103.78Zm-53.07-65.85l-39.35-48.81h92.9l43.97,48.81h-97.52Zm-47.75-59.22l-34.78-43.14h87.83l38.86,43.14h-91.91Zm-43.16-53.55l-30.83-38.25h83.21l34.46,38.25h-86.83Zm-39.24-48.66l-27.4-34h78.99l30.65,34h-82.24Zm-35.78-44.41l-24.41-30.28h75.12l27.29,30.28h-78Zm-32.82-40.69l-21.76-27.01h71.58l24.33,27.01h-74.16Zm-30.16-37.42l-19.45-24.12h68.33l21.73,24.12h-70.61Zm-27.83-34.53l-17.38-21.55h65.29l19.42,21.55h-67.33Zm-25.76-31.96l-15.52-19.26h62.47l17.35,19.26h-64.3Zm-23.93-29.67l-13.86-17.2h59.84l15.5,17.2h-61.48Zm-22.24-27.61l-12.38-15.35h57.4l13.83,15.35h-58.85Zm-20.79-25.76l-11.01-13.69h55.11l12.33,13.69h-56.43Zm-19.42-24.1l-9.8-12.17h52.96l10.99,12.17h-54.15Zm-18.21-22.58l-8.7-10.8h50.98l9.72,10.8h-52Zm-4.94,10.41l9.8,12.17h-54.74l-8.68-12.17h53.61Zm-61-10.41l-7.71-10.8h51.6l8.7,10.8h-52.59Zm-5.34,10.41l8.65,12.17h-55.33l-7.49-12.17h54.17Zm-60.59-10.41l-6.66-10.8h52.16l7.68,10.8h-53.18Zm-5.77,10.41l7.49,12.17h-55.84l-6.37-12.17h54.71Zm-60.14-10.41l-5.64-10.8h52.7l6.66,10.8h-53.72Zm.08,22.58h-56.32l-5.18-12.17h55.14l6.37,12.17Zm-65.94-22.58l-4.62-10.8h53.13l5.64,10.8h-54.15Zm-1.67,22.58h-56.7l-4.03-12.17h55.54l5.18,12.17Zm-64.19-22.58l-3.57-10.8h53.53l4.59,10.8h-54.55Zm-3.44,22.58h-56.99l-2.87-12.17h55.84l4.03,12.17Zm-62.34-22.58l-2.58-10.8h53.85l3.57,10.8h-54.85Zm.4,46.68h-59.52l-1.96-13.69h58.23l3.25,13.69Zm-62.96-24.1l-1.72-12.17h56.08l2.87,12.17h-57.24Zm-3.2-22.58l-1.56-10.8h54.07l2.58,10.8h-55.09Zm-.19,72.44h-62.1l-.73-15.35h60.65l2.18,15.35Zm-63.31-25.76l-.64-13.69h58.34l1.96,13.69h-59.65Zm-1.15-24.1l-.56-12.17h56.21l1.72,12.17h-57.37Zm-1.07-22.58l-.51-10.8h54.2l1.56,10.8h-55.25Zm-76.04,0h-55.22l1.53-10.8h54.2l-.51,10.8Zm-.48,10.41l-.59,12.17h-57.37l1.75-12.17h56.21Zm-1.07,22.58l-.64,13.69h-59.65l1.93-13.69h58.36Zm-1.15,24.1l-.73,15.35h-62.1l2.18-15.35h60.65Zm-62.98-57.09h-55.09l2.55-10.8h54.07l-1.53,10.8Zm-1.48,10.41l-1.75,12.17h-57.24l2.9-12.17h56.08Zm-3.22,22.58l-1.96,13.69h-59.49l3.22-13.69h58.23Zm-61.05-33h-54.87l3.6-10.8h53.82l-2.55,10.8Zm-2.47,10.41l-2.9,12.17h-56.99l4.03-12.17h55.87Zm-63.33-10.41h-54.55l4.62-10.8h53.5l-3.57,10.8Zm-3.46,10.41l-4.03,12.17h-56.7l5.21-12.17h55.52Zm-62.37-10.41h-54.17l5.64-10.8h53.13l-4.59,10.8Zm-4.46,10.41l-5.18,12.17h-56.3l6.34-12.17h55.14Zm-61.43-10.41h-53.69l6.66-10.8h52.67l-5.64,10.8Zm-5.43,10.41l-6.34,12.17h-55.87l7.52-12.17h54.68Zm-60.46-10.41h-53.21l7.68-10.8h52.16l-6.63,10.8Zm-6.42,10.41l-7.52,12.17h-55.33l8.68-12.17h54.17Zm-59.52-10.41h-52.62l8.7-10.8h51.6l-7.68,10.8Zm-7.41,10.41l-8.65,12.17h-54.76l9.8-12.17h53.61Zm-58.55-10.41h-52l9.75-10.8h50.95l-8.7,10.8Zm-8.38,10.41l-9.83,12.17h-54.12l10.96-12.17h52.99Zm-57.58-10.41h-51.35l10.77-10.8h50.31l-9.72,10.8Zm-9.4,10.41l-10.96,12.17h-53.48l12.11-12.17h52.32Zm-20.33,22.58l-12.33,13.69h-55.76l13.62-13.69h54.47Zm-21.73,24.1l-13.83,15.35h-58.2l15.31-15.35h56.73Zm-23.21,25.76l-15.5,17.2h-60.81l17.11-17.2h59.2Zm-24.87,27.61l-17.35,19.26h-63.63l19.18-19.26h61.8Zm-26.72,29.67l-19.42,21.55h-66.66l21.46-21.55h64.62Zm-28.79,31.96l-21.73,24.11h-69.94l24.01-24.11h67.66Zm-31.13,34.52l-24.31,27.01h-73.51l26.91-27.01h70.91Zm-33.71,37.42l-27.26,30.28h-77.35l30.14-30.28h74.48Zm-36.66,40.69l-30.62,33.99h-81.57l33.87-33.99h78.32Zm-39.99,44.41l-34.46,38.25h-86.19l38.09-38.25h82.56Zm-43.86,48.66l-38.86,43.14h-91.24l42.95-43.14h87.16Zm-48.24,53.55l-43.99,48.81h-96.85l48.61-48.81h92.23Zm-53.37,59.22l-49.93,55.44h-103.14l55.22-55.44h97.85Zm-59.33,65.85l-56.97,63.24h-110.09l62.96-63.24h104.1Zm-66.34,73.65l-65.35,72.51h-117.96l72.22-72.51h111.09Zm-74.72,82.92l-75.36,83.65h-126.88l83.29-83.65h118.96Zm-84.74,94.06l-87.59,97.2h-137.09l96.8-97.2h127.87Zm-96.96,107.61l-102.63,113.9h-148.88l113.42-113.9h138.08Zm13.99,0h138.72l-91.8,113.9h-149.55l102.63-113.9Zm152.07,0h139.37l-81.03,113.9h-150.17l91.83-113.9Zm152.1,0h139.93l-70.21,113.9h-150.73s81.01-113.9,81.01-113.9Zm152.15,0h140.44l-59.41,113.9h-151.27l70.24-113.9Zm152.15,0h140.9l-48.61,113.9h-151.7l59.41-113.9Zm152.18,0h141.3l-37.82,113.9h-152.1l48.61-113.9Zm152.23,0h141.6l-26.99,113.9h-152.42l37.82-113.9Zm152.26,0h141.84l-16.2,113.9h-152.64l26.99-113.9Zm2.47-10.41l23.04-97.2h131.63l-13.83,97.2h-140.85Zm165.15-97.2h131.77l-4.59,97.2h-141.01l13.83-97.2Zm137.06,107.61h142l5.43,113.9h-152.82s5.4-113.9,5.4-113.9Zm147.29-107.61h131.77l13.83,97.2h-140.98l-4.62-97.2Zm142.24,0h131.63l23.04,97.2h-140.85l-13.83-97.2Zm157.15,107.61l27.02,113.9h-152.64l-16.22-113.9h141.84Zm10.66,0h141.6l37.82,113.9h-152.4l-27.02-113.9Zm152.53,0h141.3l48.61,113.9h-152.1l-37.82-113.9Zm152.58,0h140.93l59.41,113.9h-151.72l-48.61-113.9Zm152.64,0h140.44l70.21,113.9h-151.24l-59.41-113.9Zm152.64,0h139.93l81.01,113.9h-150.73s-70.21-113.9-70.21-113.9Zm152.69,0h139.34l91.83,113.9h-150.17l-81.01-113.9Zm152.69,0h138.75l102.6,113.9h-149.52l-91.83-113.9Zm152.72,0h138.08l113.42,113.9h-148.88l-102.63-113.9Zm-9.37-10.41l-87.59-97.2h127.9l96.77,97.2h-137.09Zm-96.96-107.61l-75.36-83.65h118.96l83.29,83.65h-126.88Zm-84.74-94.06l-65.32-72.51h111.09l72.2,72.51h-117.96Zm-74.72-82.92l-56.97-63.24h104.1l62.98,63.24h-110.12Zm-66.34-73.65l-49.96-55.44h97.87l55.19,55.44h-103.11Zm-59.33-65.85l-43.99-48.81h92.26l48.61,48.81h-96.88Zm-53.37-59.22l-38.86-43.14h87.16l42.97,43.14h-91.27Zm-48.24-53.55l-34.46-38.25h82.54l38.09,38.25h-86.16Zm-43.86-48.66l-30.62-34h78.35l33.84,34h-81.57Zm-39.99-44.41l-27.29-30.28h74.48l30.16,30.28h-77.35Zm-36.66-40.69l-24.33-27.01h70.93l26.89,27.01h-73.48Zm-33.71-37.42l-21.73-24.12h67.66l24.01,24.12h-69.94Zm-31.13-34.53l-19.39-21.55h64.62l21.46,21.55h-66.69Zm-28.79-31.96l-17.35-19.26h61.83l19.18,19.26h-63.65Zm-26.72-29.67l-15.5-17.2h59.2l17.14,17.2h-60.83Zm-24.87-27.61l-13.83-15.35h56.75l15.28,15.35h-58.2Zm-23.21-25.76l-12.33-13.69h54.44l13.64,13.69h-55.76Zm-21.73-24.1l-10.96-12.17h52.32l12.11,12.17h-53.48Zm-20.33-22.58l-9.72-10.8h50.31l10.74,10.8h-51.33Zm-1301.34-21.21v-1341.16h1341.17v1341.16h-1341.17Zm1291.61-1351.58l9.72-10.8h51.33l-10.74,10.8h-50.31Zm-649.17-21.21l-.56-12.17h57.4l-.56,12.17h-56.27Zm55.79,10.41l-.51,10.8h-54.25l-.51-10.8h55.27Zm-56.83-33l-.67-13.69h59.71l-.64,13.69h-58.39Zm-1.15-24.1l-.73-15.35h62.12l-.73,15.35h-60.67Zm-1.24-25.76l-.81-17.2h64.76l-.81,17.2h-63.14Zm-1.29-27.61l-.91-19.26h67.58l-.91,19.26h-65.75Zm-1.42-29.67l-1.02-21.55h70.61l-1.02,21.55h-68.57Zm-1.5-31.96l-1.15-24.11h73.89s-1.15,24.11-1.15,24.11h-71.58Zm-1.64-34.53l-1.29-27.01h77.43s-1.29,27.01-1.29,27.01h-74.85Zm-3.71-78.11l-1.61-33.99h85.49s-1.61,33.99-1.61,33.99h-82.27Zm81.78,10.41l-1.45,30.28h-78.4s-1.45-30.28-1.45-30.28h81.3Zm-86.19-103.48l-2.04-43.14h95.19l-2.04,43.14h-91.1Zm90.59,10.41l-1.8,38.25h-86.48s-1.83-38.25-1.83-38.25h90.11Zm-696.84-178.63l28.93,55.44h-100.24l-34.16-55.44h105.47Zm-111.89-10.41l-38.97-63.24h112.46l32.98,63.24h-106.47Zm1520.97,10.41l-34.19,55.44h-100.24l28.93-55.44h105.5Zm-100.07-10.41l32.98-63.24h112.48l-39,63.24h-106.47Zm-1137.97,135.48l18.42,43.14h-90l-22.51-43.14h94.09Zm-99.51-10.41l-25.46-48.81h99.7l20.84,48.81h-95.08Zm122.37,63.96l16.33,38.25h-85.38l-19.96-38.25h89.01Zm139.05,82.65l-11.28-33.99h85.09l8.06,33.99h-81.86Zm2.58,40.69h-77.7l-12.92-30.28h80.58l10.05,30.28Zm-13.51-40.69h-81.54l-14.5-33.99h84.77l11.28,33.99Zm-100.5-44.41l-16.33-38.25h89.41l12.68,38.25h-85.76Zm-6.85,10.41l14.53,33.99h-81.17l-17.75-33.99h84.39Zm18.96,44.41l12.92,30.28h-77.3l-15.79-30.28h80.17Zm17.38,40.69l11.52,27.01h-73.75l-14.1-27.01h76.33Zm11.28,0h76.71l8.94,27.01h-74.13l-11.52-27.01Zm84.17-10.41l-10.05-30.28h80.87l7.17,30.28h-78Zm161.12-40.69h-82.11l-8.06-33.99h85.33l4.83,33.99Zm-1.29-82.65h90.06l1.83,38.25h-86.43l-5.45-38.25Zm-79.37,133.75l6.42,27.01h-74.45l-8.97-27.01h77Zm1.02-40.69h81.11l4.3,30.28h-78.24l-7.17-30.28Zm86.89,40.69l3.84,27.01h-74.67l-6.42-27.01h77.25Zm3.22-51.1l-4.83-33.99h85.44l1.61,33.99h-82.21Zm82.72,10.41l1.42,30.28h-78.37l-4.3-30.28h81.25Zm-2.5-271.69h107.06l-2.63,55.44h-101.79l-2.63-55.44Zm104.56,271.69h81.25l-4.32,30.28h-78.37l1.45-30.28Zm.48-10.41l1.61-34h85.46l-4.83,34h-82.24Zm88.55-44.41h-86.46l1.83-38.25h90.06l-5.43,38.25Zm9,10.41h85.3l-8.06,34h-82.08l4.83-34Zm-12.11,85.09h77.25l-6.39,27.01h-74.69l3.84-27.01Zm1.48-10.41l4.32-30.28h81.09l-7.17,30.28h-78.24Zm86.43,10.41h77.03l-8.97,27.01h-74.45l6.39-27.01Zm2.47-10.41l7.17-30.28h80.87l-10.05,30.28h-78Zm347.5-176.9l-22.51,43.14h-89.98l18.4-43.14h94.09Zm-89.63-10.41l20.82-48.81h99.7l-25.46,48.81h-95.05Zm61.69,63.96l-19.96,38.25h-85.38l16.33-38.25h89.01Zm-128.73,93.07h80.2l-15.79,30.28h-77.33l12.92-30.28Zm-24.2,30.28h-77.7l10.07-30.28h80.55l-12.92,30.28Zm28.66-40.69l14.5-34h84.39l-17.73,34h-81.17Zm7.65-44.41h-85.76l12.7-38.25h89.39l-16.33,38.25Zm-4.43,10.41l-14.5,34h-81.57l11.28-34h84.79Zm-107,34h-81.86l8.06-34h85.09l-11.28,34Zm-6.02,51.1h76.71l-11.55,27.01h-74.13l8.97-27.01Zm87.99,0h76.31l-14.07,27.01h-73.75l11.52-27.01Zm68.52,37.42h72.3l-14.88,24.12h-70.02l12.6-24.12Zm5.43-10.41l14.07-27.01h75.88l-16.65,27.01h-73.3Zm19.5-37.42l15.79-30.28h79.74l-18.67,30.28h-76.87Zm21.25-40.69l17.73-34h83.93l-20.95,34h-80.71Zm23.15-44.41l19.96-38.25h88.55l-23.58,38.25h-84.93Zm25.38-48.66l22.51-43.14h93.63l-26.59,43.14h-89.55Zm27.93-53.55l25.46-48.81h99.24l-30.08,48.81h-94.62Zm19.18-59.22h-100.67l23.66-55.44h105.93l-28.93,55.44Zm-111.97,0h-101.07l18.4-55.44h106.33l-23.66,55.44Zm-4.43,10.41l-20.84,48.81h-95.46l16.22-48.81h100.07Zm-25.27,59.22l-18.42,43.14h-90.38l14.34-43.14h94.46Zm-119.74,43.14h-90.67l10.23-43.14h94.78l-14.34,43.14Zm-3.44,10.41l-12.7,38.25h-86.08l9.08-38.25h89.71Zm-97.9-10.41h-90.92l6.12-43.14h95.03l-10.23,43.14Zm-2.47,10.41l-9.08,38.25h-86.3l5.45-38.25h89.92Zm-98.92-10.41h-91.08l2.07-43.14h95.13l-6.12,43.14Zm-92.98-178.63h-108.05l-2.98-63.24h114.04s-3.01,63.24-3.01,63.24Zm-109.96,178.63h-91.05l-6.15-43.14h95.16l2.04,43.14Zm-94.62,48.66h-86.3l-9.05-38.25h89.92l5.43,38.25Zm-97.82-48.66l-10.23-43.14h95l6.15,43.14h-90.92Zm-8.19,10.41l9.05,38.25h-86.08l-12.68-38.25h89.71Zm-93.17-10.41l-14.32-43.14h94.78l10.23,43.14h-90.7Zm-10.93,0h-90.38l-18.42-43.14h94.49l14.32,43.14Zm-113.24-53.55l-20.84-48.81h100.1l16.2,48.81h-95.46Zm-25.27-59.22l-23.66-55.44h106.33l18.4,55.44h-101.07Zm-11.28,0h-100.69l-28.93-55.44h105.96l23.66,55.44Zm-106.98,10.41l25.46,48.81h-94.6l-30.11-48.81h99.24Zm30.89,59.22l22.51,43.14h-89.52l-26.59-43.14h93.6Zm27.96,53.55l19.93,38.25h-84.9l-23.58-38.25h88.55Zm25.38,48.66l17.73,33.99h-80.71l-20.95-33.99h83.93Zm23.15,44.41l15.79,30.28h-76.84l-18.67-30.28h79.72Zm21.22,40.69l14.1,27.01h-73.3l-16.65-27.01h75.85Zm19.53,37.42l12.57,24.11h-70.02l-14.88-24.11h72.33Zm18,34.53l11.25,21.55h-67.01l-13.27-21.55h69.03Zm6.28-10.41l-12.57-24.11h72.76l10.29,24.11h-70.48Zm74.94,10.41l9.19,21.55h-67.44l-11.25-21.55h69.51Zm6.82-10.41l-10.29-24.11h73.16l8,24.11h-70.88Zm74.34,10.41l7.14,21.55h-67.84l-9.19-21.55h69.89Zm-.54-34.53h73.48l5.72,24.11h-71.2l-8-24.11Zm81.65,34.53l5.13,21.55h-68.17l-7.14-21.55h70.18Zm2.5-34.53h73.67l3.44,24.11h-71.39l-5.72-24.11Zm78.59,34.53l3.06,21.55h-68.35l-5.13-21.55h70.42Zm.24-71.94h77.41l1.26,27.01h-74.83l-3.84-27.01Zm78.4-197.72l-2.31-48.81h100.8l-2.31,48.81h-96.18Zm97.2,197.72h77.38l-3.84,27.01h-74.83l1.29-27.01Zm77.62,71.94h70.42l-5.1,21.55h-68.38l3.06-21.55Zm1.48-10.41l3.44-24.12h73.7l-5.72,24.12h-71.42Zm79.61,10.41h70.18l-7.14,21.55h-68.14l5.1-21.55Zm2.47-10.41l5.72-24.12h73.46l-8,24.12h-71.18Zm78.67,10.41h69.86l-9.19,21.55h-67.84l7.17-21.55Zm3.44-10.41l8-24.12h73.16l-10.29,24.12h-70.88Zm77.73,10.41h69.48l-11.23,21.55h-67.47l9.21-21.55Zm4.43-10.41l10.29-24.12h72.79l-12.6,24.12h-70.48Zm76.76,10.41h69.03l-13.27,21.55h-66.99l11.23-21.55Zm81.25,0h68.52l-15.34,21.55h-66.47l13.29-21.55Zm6.42-10.41l14.85-24.12h71.79s-17.16,24.12-17.16,24.12h-69.48Zm21.27-34.53l16.65-27.01h75.34s-19.2,27.01-19.2,27.01h-72.79Zm23.07-37.42l18.67-30.28h79.21l-21.54,30.28h-76.33Zm25.09-40.69l20.95-34h83.42s-24.2,34-24.2,34h-80.17Zm27.37-44.41l23.58-38.25h88.02l-27.21,38.25h-84.39Zm30-48.66l26.59-43.14h93.12l-30.7,43.14h-89.01Zm33.01-53.55l30.08-48.81h98.73l-34.73,48.81h-94.09Zm36.5-59.22l34.19-55.44h104.96l-39.43,55.44h-99.73Zm40.61-65.85l38.97-63.24h111.95s-44.96,63.24-44.96,63.24h-105.96Zm45.39-73.65l44.69-72.51h119.82l-51.57,72.51h-112.94Zm-12.19,0h-113.48l37.84-72.51h120.33l-44.69,72.51Zm-125.16,0h-113.93l30.94-72.51h120.81l-37.82,72.51Zm-5.45,10.41l-32.98,63.24h-106.92l26.99-63.24h112.91Zm-151.19,63.24h-107.33l21-63.24h113.32l-26.99,63.24Zm-118.26,0h-107.62l14.99-63.24h113.61l-20.98,63.24Zm-3.46,10.41l-18.4,55.44h-101.39l13.16-55.44h106.63Zm-21.86,65.85l-16.2,48.81h-95.78l11.58-48.81h100.4Zm-122.61,48.81h-96.02l6.96-48.81h100.61l-11.55,48.81Zm-98.06-59.22h-101.77l2.63-55.44h107.03l-7.9,55.44Zm-1.48,10.41l-6.96,48.81h-96.13l2.31-48.81h100.77Zm-104.05-149.91h-115.04s-3.44-72.51-3.44-72.51h121.91l-3.44,72.51Zm-118.31,149.91l2.31,48.81h-96.13l-6.93-48.81h100.75Zm-102.25-10.41l-7.87-55.44h107l2.63,55.44h-101.77Zm-2.04,59.22h-95.99l-11.58-48.81h100.64l6.93,48.81Zm-106.66,0h-95.78l-16.2-48.81h100.4l11.58,48.81Zm-115.44-59.22l-18.4-55.44h106.66l13.13,55.44h-101.39Zm-21.86-65.85l-20.98-63.24h113.64l14.99,63.24h-107.65Zm-10.93,0h-107.3l-26.99-63.24h113.32l20.98,63.24Zm-118.61,0h-106.92l-32.98-63.24h112.94l26.97,63.24Zm-145.33-73.65l-37.82-72.51h120.78l30.94,72.51h-113.91Zm-11.71,0h-113.45l-44.72-72.51h120.35l37.82,72.51Zm-125.67,0h-112.94s-51.57-72.51-51.57-72.51h119.82l44.69,72.51Zm6.42,10.41l39,63.24h-105.96l-44.99-63.24h111.95Zm45.42,73.65l34.16,55.44h-99.7l-39.46-55.44h104.99Zm40.58,65.85l30.08,48.81h-94.09l-34.73-48.81h98.73Zm36.5,59.22l26.59,43.14h-89.01l-30.67-43.14h93.09Zm33.01,53.55l23.58,38.25h-84.39s-27.21-38.25-27.21-38.25h88.02Zm30,48.66l20.98,33.99h-80.2l-24.17-33.99h83.4Zm27.37,44.41l18.67,30.28h-76.31s-21.54-30.28-21.54-30.28h79.18Zm25.09,40.69l16.65,27.01h-72.76s-19.23-27.01-19.23-27.01h75.34Zm23.07,37.42l14.88,24.11h-69.51l-17.16-24.11h71.79Zm21.3,34.52l13.27,21.55h-66.47l-15.31-21.55h68.52Zm19.69,31.96l11.87,19.26h-63.65l-13.7-19.26h65.48Zm18.29,29.67l10.61,17.2h-61.05l-12.22-17.2h62.66Zm5.77-10.41l-11.87-19.26h66.02l10.05,19.26h-64.19Zm69.62,10.41l8.97,17.2h-61.56l-10.61-17.2h63.2Zm6.28-10.41l-10.05-19.26h66.45l8.22,19.26h-64.62Zm69.08,10.41l7.33,17.2h-62.02l-8.97-17.2h63.65Zm6.85-10.41l-8.22-19.26h66.85l6.39,19.26h-65.02Zm68.46,10.41l5.72,17.2h-62.42l-7.33-17.2h64.03Zm1.1-29.67h67.17l4.57,19.26h-65.35l-6.39-19.26Zm74.18,29.67l4.08,17.2h-62.71l-5.69-17.2h64.33Zm3.65-29.67h67.39l2.74,19.26h-65.56l-4.57-19.26Zm68.41-66.48h73.83l1.13,24.11h-71.55l-3.41-24.11Zm168.48,0h73.83l-3.44,24.12h-71.55l1.15-24.12Zm74.85,66.48h67.39l-4.57,19.26h-65.56l2.74-19.26Zm71.01,29.67h64.35l-5.72,17.2h-62.71l4.08-17.2Zm2.47-10.41l4.57-19.26h67.15l-6.39,19.26h-65.32Zm72.81,10.41h64.03l-7.33,17.2h-62.42l5.72-17.2Zm3.46-10.41l6.39-19.26h66.85l-8.22,19.26h-65.02Zm71.85,10.41h63.65l-8.97,17.2h-62.02l7.33-17.2Zm4.46-10.41l8.22-19.26h66.45l-10.05,19.26h-64.62Zm70.91,10.41h63.2l-10.61,17.2h-61.56l8.97-17.2Zm5.43-10.41l10.05-19.26h66.02l-11.87,19.26h-64.19Zm69.97,10.41h62.69l-12.25,17.2h-61.02l10.58-17.2Zm6.42-10.41l11.87-19.26h65.48l-13.7,19.26h-63.65Zm69,10.41h62.12l-13.89,17.2h-60.46l12.22-17.2Zm7.41-10.41l13.7-19.26h64.92l-15.52,19.26h-63.09Zm21.11-29.67l15.31-21.55h67.95l-17.35,21.55h-65.91Zm22.72-31.96l17.16-24.12h71.23l-19.45,24.12h-68.95Zm24.55-34.53l19.23-27.01h74.77l-21.78,27.01h-72.22Zm26.62-37.42l21.54-30.28h78.64l-24.41,30.28h-75.77Zm28.95-40.69l24.17-34h82.86l-27.42,34h-79.61Zm31.59-44.41l27.21-38.25h87.45l-30.83,38.25h-83.83Zm34.62-48.66l30.67-43.14h92.53l-34.75,43.14h-88.45Zm38.09-53.55l34.73-48.81h98.14l-39.35,48.81h-93.52Zm42.11-59.22l39.43-55.44h104.4l-44.67,55.44h-99.16Zm46.84-65.85l44.99-63.24h111.38l-50.98,63.24h-105.39Zm52.4-73.65l51.57-72.51h119.25l-58.47,72.51h-112.35Zm58.98-82.92l59.49-83.65h128.17l-67.44,83.65h-120.22Zm-12.76,0h-120.81l51.57-83.65h128.73s-59.49,83.65-59.49,83.65Zm-133,0h-121.32l43.62-83.65h129.27l-51.57,83.65Zm-133.03,0h-121.78l35.69-83.65h129.7l-43.62,83.65Zm-133.06,0h-122.18l27.77-83.65h130.1l-35.69,83.65Zm-4.46,10.41l-30.94,72.51h-114.31l24.07-72.51h121.19Zm-156.18,72.51h-114.61l17.19-72.51h121.48l-24.07,72.51Zm-125.27,0h-114.85l10.31-72.51h121.72l-17.19,72.51Zm-2.47,10.41l-14.99,63.24h-107.86l9-63.24h113.85Zm-17.46,73.65l-13.16,55.44h-101.61l7.9-55.44h106.87Zm-115.87-10.41h-108l2.98-63.24h114.01l-9,63.24Zm-110.98-156.57h-122.88l-3.98-83.65h130.83s-3.98,83.65-3.98,83.65Zm-125.83,156.57h-108l-9-63.24h113.99l3.01,63.24Zm-109.13,65.85h-101.61l-13.13-55.44h106.87l7.87,55.44Zm-117.21-65.85l-14.99-63.24h113.85l9,63.24h-107.86Zm-17.46-73.65l-17.19-72.51h121.7l10.34,72.51h-114.85Zm-10.66,0h-114.63l-24.07-72.51h121.51l17.19,72.51Zm-125.56,0h-114.31l-30.94-72.51h121.19l24.07,72.51Zm-149.68-82.92l-35.69-83.65h130.1l27.74,83.65h-122.15Zm-11.28,0h-121.8l-43.62-83.65h129.7l35.72,83.65Zm-133.49,0h-121.35l-51.57-83.65h129.27l43.65,83.65Zm-133.54,0h-120.81l-59.49-83.65h128.73s51.57,83.65,51.57,83.65Zm-133.54,0h-120.25l-67.41-83.65h128.14l59.52,83.65Zm7.39,10.41l51.6,72.51h-112.38l-58.44-72.51h119.22Zm58.98,82.92l44.99,63.24h-105.39l-50.98-63.24h111.38Zm52.4,73.65l39.43,55.44h-99.13l-44.69-55.44h104.4Zm46.84,65.85l34.7,48.81h-93.52l-39.35-48.81h98.17Zm42.11,59.22l30.7,43.14h-88.45l-34.78-43.14h92.53Zm38.09,53.55l27.21,38.25h-83.83l-30.83-38.25h87.45Zm34.62,48.66l24.17,33.99h-79.61l-27.4-33.99h82.83Zm31.59,44.41l21.54,30.28h-75.77l-24.39-30.28h78.61Zm28.95,40.69l19.2,27.01h-72.22l-21.76-27.01h74.77Zm26.62,37.42l17.14,24.11h-68.92l-19.45-24.11h71.23Zm24.55,34.52l15.34,21.55h-65.91l-17.38-21.55h67.95Zm22.72,31.96l13.7,19.26h-63.09l-15.52-19.26h64.92Zm21.11,29.67l12.25,17.2h-60.49l-13.86-17.2h62.1Zm19.63,27.61l10.93,15.35h-58.04l-12.35-15.35h59.46Zm18.34,25.76l9.72,13.69h-55.73l-11.04-13.69h57.05Zm5.32-10.41l-10.9-15.35h60.06l9.45,15.35h-58.61Zm65.02,10.41l8.43,13.69h-56.3l-9.75-13.69h57.61Zm5.77-10.41l-9.45-15.35h60.57l8.03,15.35h-59.14Zm64.57,10.41l7.14,13.69h-56.83l-8.46-13.69h58.15Zm6.28-10.41l-8.03-15.35h61.05l6.55,15.35h-59.57Zm64,10.41l5.83,13.69h-57.26l-7.14-13.69h58.58Zm.3-25.76h61.43l5.08,15.35h-59.95l-6.55-15.35Zm69.97,25.76l4.54,13.69h-57.67l-5.86-13.69h58.98Zm2.39-25.76h61.72l3.65,15.35h-60.27l-5.1-15.35Zm67.84,25.76l3.22,13.69h-57.99l-4.54-13.69h59.3Zm2.07-36.18l-4.08-17.2h64.59l2.44,17.2h-62.96Zm64.43,10.41l2.18,15.35h-60.49l-3.65-15.35h61.96Zm.86-67.69l-3.09-21.55h70.58l1.02,21.55h-68.52Zm69,10.41l.91,19.26h-65.7l-2.74-19.26h67.52Zm1.4,29.67l.83,17.2h-63.09l-2.44-17.2h64.7Zm85.54,0h64.73l-2.47,17.2h-63.06l.81-17.2Zm.48-10.41l.91-19.26h67.55l-2.74,19.26h-65.72Zm1.42-29.67l1.02-21.55h70.56l-3.06,21.55h-68.52Zm69.35,67.69h61.96l-3.63,15.35h-60.51l2.18-15.35Zm1.5-10.41l2.44-17.2h64.57l-4.08,17.2h-62.93Zm65.02,36.18h59.28l-4.54,13.69h-57.99l3.25-13.69Zm2.47-10.41l3.63-15.35h61.75l-5.1,15.35h-60.27Zm67.74,10.41h58.98l-5.83,13.69h-57.69l4.54-13.69Zm3.46-10.41l5.1-15.35h61.4l-6.55,15.35h-59.95Zm66.8,10.41h58.61l-7.14,13.69h-57.29l5.83-13.69Zm4.46-10.41l6.55-15.35h61.02l-8,15.35h-59.57Zm65.86,10.41h58.12l-8.43,13.69h-56.83l7.14-13.69Zm5.43-10.41l8-15.35h60.57l-9.45,15.35h-59.12Zm64.89,10.41h57.61l-9.72,13.69h-56.32l8.43-13.69Zm6.42-10.41l9.48-15.35h60.03l-10.9,15.35h-58.61Zm63.95,10.41h57.05l-11.04,13.69h-55.76l9.75-13.69Zm7.39-10.41l10.93-15.35h59.49l-12.38,15.35h-58.04Zm62.98,10.41h56.43l-12.33,13.69h-55.11l11.01-13.69Zm8.41-10.41l12.38-15.35h58.85l-13.83,15.35h-57.4Zm20.76-25.76l13.86-17.2h61.48l-15.5,17.2h-59.84Zm22.27-27.61l15.52-19.26h64.3l-17.35,19.26h-62.47Zm23.9-29.67l17.38-21.55h67.33l-19.42,21.55h-65.29Zm25.76-31.96l19.45-24.12h70.61l-21.73,24.12h-68.33Zm27.85-34.53l21.76-27.01h74.16l-24.33,27.01h-71.58Zm30.16-37.42l24.41-30.28h78l-27.29,30.28h-75.12Zm32.79-40.69l27.4-34h82.24l-30.65,34h-78.99Zm35.8-44.41l30.83-38.25h86.83l-34.46,38.25h-83.21Zm39.21-48.66l34.78-43.14h91.91l-38.86,43.14h-87.83Zm43.19-53.55l39.35-48.81h97.52l-43.97,48.81h-92.9Zm47.73-59.22l44.69-55.44h103.78l-49.96,55.44h-98.52Zm53.1-65.85l50.98-63.24h110.76l-56.99,63.24h-104.75Zm59.36-73.65l58.44-72.51h118.63l-65.32,72.51h-111.76Zm66.85-82.92l67.44-83.65h127.52l-75.36,83.65h-119.6Zm75.82-94.06l78.35-97.2h137.76l-87.56,97.2h-128.54Zm-13.35,0h-129.14l69.13-97.2h138.38l-78.37,97.2Zm-141.89,0h-129.73s59.92-97.2,59.92-97.2h138.94l-69.13,97.2Zm-141.92,0h-130.24l50.68-97.2h139.48l-59.92,97.2Zm-141.95,0h-130.72l41.5-97.2h139.91l-50.68,97.2Zm-142,0h-131.1l32.28-97.2h140.31l-41.5,97.2Zm-142.03,0h-131.39l23.04-97.2h140.63l-32.28,97.2Zm-3.44,10.41l-27.77,83.65h-122.47l19.82-83.65h130.42Zm-160.91,83.65h-122.72l11.9-83.65h130.64l-19.82,83.65Zm-133.19,0h-122.85l3.98-83.65h130.77l-11.9,83.65Zm-1.48,10.41l-10.31,72.51h-114.98l3.44-72.51h121.86Zm-127.31-104.47h-131.79s-4.62-97.2-4.62-97.2h141.03l-4.62,97.2Zm-133.78,176.98h-114.98l-10.31-72.51h121.86l3.44,72.51Zm-126.8-82.92l-11.9-83.65h130.8l3.95,83.65h-122.85Zm-10.47,0h-122.69l-19.85-83.65h130.64l11.9,83.65Zm-133.35,0h-122.5l-27.74-83.65h130.4l19.85,83.65Zm-153.71-94.06l-32.26-97.2h140.6l23.04,97.2h-131.39Zm-10.93,0h-131.1l-41.47-97.2h140.31l32.26,97.2Zm-142.38,0h-130.69l-50.71-97.2h139.91l41.5,97.2Zm-142.4,0h-130.24l-59.92-97.2h139.45l50.71,97.2Zm-142.46,0h-129.73s-69.13-97.2-69.13-97.2h138.94l59.92,97.2Zm-142.46,0h-129.16l-78.35-97.2h138.38l69.13,97.2Zm-142.51,0h-128.52l-87.59-97.2h137.76l78.35,97.2Zm8.41,10.41l67.41,83.65h-119.6l-75.36-83.65h127.55Zm75.82,94.06l58.44,72.51h-111.73l-65.35-72.51h118.63Zm66.85,82.92l50.98,63.24h-104.78l-56.97-63.24h110.76Zm59.36,73.65l44.69,55.44h-98.52l-49.96-55.44h103.78Zm53.1,65.85l39.35,48.81h-92.9l-43.99-48.81h97.55Zm47.73,59.22l34.78,43.14h-87.83l-38.86-43.14h91.91Zm43.16,53.55l30.83,38.25h-83.18l-34.49-38.25h86.83Zm39.24,48.66l27.4,33.99h-78.99l-30.62-33.99h82.21Zm35.8,44.41l24.41,30.28h-75.15l-27.29-30.28h78.02Zm32.79,40.69l21.78,27.01h-71.6l-24.33-27.01h74.16Zm30.16,37.42l19.45,24.11h-68.33l-21.7-24.11h70.58Zm27.83,34.52l17.38,21.55h-65.29l-19.39-21.55h67.31Zm25.78,31.96l15.52,19.26h-62.47l-17.35-19.26h64.3Zm23.9,29.67l13.86,17.2h-59.84l-15.5-17.2h61.48Zm22.27,27.61l12.38,15.35h-57.42l-13.83-15.35h58.87Zm20.76,25.76l11.04,13.69h-55.11l-12.35-13.69h56.43Zm19.42,24.1l9.83,12.17h-52.99l-10.96-12.17h54.12Zm18.21,22.58l8.7,10.8h-50.95l-9.75-10.8h52Zm4.94-10.41l-9.8-12.17h54.76l8.65,12.17h-53.61Zm61.02,10.41l7.68,10.8h-51.6l-8.7-10.8h52.62Zm5.34-10.41l-8.68-12.17h55.33l7.52,12.17h-54.17Zm60.59,10.41l6.63,10.8h-52.16l-7.68-10.8h53.21Zm5.77-10.41l-7.52-12.17h55.87l6.34,12.17h-54.68Zm60.11,10.41l5.64,10.8h-52.67l-6.66-10.8h53.69Zm-.05-22.58h56.3l5.18,12.17h-55.14l-6.34-12.17Zm65.94,22.58l4.59,10.8h-53.13l-5.64-10.8h54.17Zm1.64-22.58h56.7l4.03,12.17h-55.52l-5.21-12.17Zm64.19,22.58l3.57,10.8h-53.5l-4.62-10.8h54.55Zm3.44-22.58h56.99l2.9,12.17h-55.87l-4.03-12.17Zm62.37,22.58l2.55,10.8h-53.82l-3.6-10.8h54.87Zm-.4-46.68h59.49l1.96,13.69h-58.23l-3.22-13.69Zm62.93,24.1l1.75,12.17h-56.08l-2.9-12.17h57.24Zm3.22,22.58l1.53,10.8h-54.07l-2.55-10.8h55.09Zm.16-72.44h62.1l.73,15.35h-60.65l-2.18-15.35Zm63.33,25.76l.64,13.69h-58.36l-1.93-13.69h59.65Zm1.13,24.1l.59,12.17h-56.21l-1.75-12.17h57.37Zm1.07,22.58l.51,10.8h-54.2l-1.53-10.8h55.22Zm76.04,0h55.25l-1.56,10.8h-54.2l.51-10.8Zm.51-10.41l.56-12.17h57.37l-1.72,12.17h-56.21Zm1.07-22.58l.64-13.69h59.65l-1.96,13.69h-58.34Zm1.13-24.1l.73-15.35h62.1l-2.18,15.35h-60.65Zm63.01,57.09h55.09l-2.58,10.8h-54.07l1.56-10.8Zm1.48-10.41l1.72-12.17h57.24l-2.87,12.17h-56.08Zm3.2-22.58l1.96-13.69h59.52l-3.25,13.69h-58.23Zm61.08,33h54.85l-3.57,10.8h-53.85l2.58-10.8Zm2.47-10.41l2.87-12.17h56.99l-4.03,12.17h-55.84Zm63.31,10.41h54.55l-4.59,10.8h-53.53l3.57-10.8Zm3.46-10.41l4.03-12.17h56.7l-5.18,12.17h-55.54Zm62.39,10.41h54.15l-5.64,10.8h-53.13l4.62-10.8Zm4.43-10.41l5.18-12.17h56.32l-6.37,12.17h-55.14Zm61.43,10.41h53.72l-6.66,10.8h-52.7l5.64-10.8Zm5.43-10.41l6.37-12.17h55.84l-7.49,12.17h-54.71Zm60.49,10.41h53.18l-7.68,10.8h-52.16l6.66-10.8Zm6.42-10.41l7.49-12.17h55.33l-8.65,12.17h-54.17Zm59.52,10.41h52.59l-8.7,10.8h-51.6l7.71-10.8Zm7.39-10.41l8.68-12.17h54.74l-9.8,12.17h-53.61Zm58.55,10.41h52l-9.72,10.8h-50.98l8.7-10.8Zm8.41-10.41l9.8-12.17h54.15l-10.99,12.17h-52.96Zm66.96,0l10.96-12.17h53.48l-12.11,12.17h-52.32Zm20.36-22.58l12.33-13.69h55.76l-13.64,13.69h-54.44Zm21.7-24.1l13.83-15.35h58.2l-15.28,15.35h-56.75Zm23.21-25.76l15.5-17.2h60.83l-17.14,17.2h-59.2Zm24.87-27.61l17.35-19.26h63.65l-19.18,19.26h-61.83Zm26.75-29.67l19.39-21.55h66.69l-21.46,21.55h-64.62Zm28.79-31.96l21.73-24.12h69.94l-24.01,24.12h-67.66Zm31.1-34.53l24.33-27.01h73.48l-26.89,27.01h-70.93Zm33.71-37.42l27.29-30.28h77.35l-30.16,30.28h-74.48Zm36.66-40.69l30.62-34h81.57l-33.84,34h-78.35Zm40.02-44.41l34.46-38.25h86.16l-38.09,38.25h-82.54Zm43.83-48.66l38.86-43.14h91.27l-42.97,43.14h-87.16Zm48.24-53.55l43.99-48.81h96.88l-48.61,48.81h-92.26Zm53.37-59.22l49.96-55.44h103.11l-55.19,55.44h-97.87Zm59.33-65.85l56.97-63.24h110.12l-62.98,63.24h-104.1Zm66.37-73.65l65.32-72.51h117.96l-72.2,72.51h-111.09Zm74.69-82.92l75.36-83.65h126.88l-83.29,83.65h-118.96Zm84.74-94.06l87.59-97.2h137.09l-96.77,97.2h-127.9Zm96.96-107.61l102.63-113.9h148.88l-113.42,113.9h-138.08Zm-13.97,0h-138.75l91.83-113.9h149.52l-102.6,113.9Zm-152.1,0h-139.34l81.01-113.9h150.17l-91.83,113.9Zm-152.1,0h-139.93l70.21-113.9h150.73s-81.01,113.9-81.01,113.9Zm-152.13,0h-140.44l59.41-113.9h151.24l-70.21,113.9Zm-152.15,0h-140.93l48.61-113.9h151.72l-59.41,113.9Zm-152.21,0h-141.3l37.82-113.9h152.1l-48.61,113.9Zm-152.23,0h-141.6l27.02-113.9h152.4l-37.82,113.9Zm-152.26,0h-141.84l16.22-113.9h152.64l-27.02,113.9Zm-2.47,10.41l-23.04,97.2h-131.63l13.83-97.2h140.85Zm-165.15,97.2h-131.77l4.62-97.2h140.98l-13.83,97.2Zm-137.06-107.61h-142l-5.4-113.9h152.82s-5.43,113.9-5.43,113.9Zm-147.29,107.61h-131.77l-13.83-97.2h141.01l4.59,97.2Zm-142.24,0h-131.63l-23.04-97.2h140.85l13.83,97.2Zm-157.15-107.61l-26.99-113.9h152.64l16.2,113.9h-141.84Zm-10.66,0h-141.6l-37.82-113.9h152.42l26.99,113.9Zm-152.53,0h-141.3l-48.61-113.9h152.1l37.82,113.9Zm-152.58,0h-140.9l-59.41-113.9h151.7l48.61,113.9Zm-152.61,0h-140.44l-70.24-113.9h151.27l59.41,113.9Zm-152.66,0h-139.93l-81.01-113.9h150.73s70.21,113.9,70.21,113.9Zm-152.66,0h-139.37l-91.83-113.9h150.17l81.03,113.9Zm-152.72,0h-138.72l-102.63-113.9h149.55l91.8,113.9Zm-152.72,0h-138.08l-113.42-113.9h148.88l102.63,113.9Zm9.37,10.41l87.59,97.2h-127.87l-96.8-97.2h137.09Zm96.96,107.61l75.36,83.65h-118.96l-83.29-83.65h126.88Zm84.74,94.06l65.35,72.51h-111.09l-72.22-72.51h117.96Zm74.72,82.92l56.97,63.24h-104.1l-62.96-63.24h110.09Zm66.37,73.65l49.93,55.44h-97.85l-55.22-55.44h103.14Zm59.3,65.85l43.99,48.81h-92.23l-48.61-48.81h96.85Zm53.37,59.22l38.86,43.14h-87.16l-42.95-43.14h91.24Zm48.26,53.55l34.46,38.25h-82.56l-38.09-38.25h86.19Zm43.83,48.66l30.62,33.99h-78.32l-33.87-33.99h81.57Zm40.02,44.41l27.26,30.28h-74.48l-30.14-30.28h77.35Zm36.66,40.69l24.31,27.01h-70.91l-26.91-27.01h73.51Zm33.71,37.42l21.73,24.11h-67.66l-24.01-24.11h69.94Zm31.1,34.52l19.42,21.55h-64.62l-21.46-21.55h66.66Zm28.79,31.96l17.35,19.26h-61.8l-19.18-19.26h63.63Zm26.72,29.67l15.5,17.2h-59.2l-17.11-17.2h60.81Zm24.87,27.61l13.83,15.35h-56.73l-15.31-15.35h58.2Zm23.23,25.76l12.33,13.69h-54.47l-13.62-13.69h55.76Zm21.7,24.1l10.96,12.17h-52.32l-12.11-12.17h53.48Zm20.36,22.58l9.72,10.8h-50.31l-10.77-10.8h51.35Zm1322.53,75.03v52l-10.8,8.7v-50.96l10.8-9.74Zm-10.8-4.26v-50.31l10.8-10.76v51.34l-10.8,9.72Zm10.8,69.59v52.62l-10.8,7.68v-51.58l10.8-8.72Zm0,65.36v53.19l-10.8,6.65v-52.16l10.8-7.68Zm0,65.39v53.7l-10.8,5.64v-52.68l10.8-6.66Zm0,65.41v54.16l-10.8,4.61v-53.13l10.8-5.64Zm0,65.45v54.55l-10.8,3.57v-53.52l10.8-4.61Zm0,65.48v54.86l-10.8,2.56v-53.84l10.8-3.59Zm0,65.52v55.09l-10.8,1.53v-54.05l10.8-2.56Zm0,65.56v55.23l-10.8.51v-54.2l10.8-1.54Zm0,65.62v55.27l-10.8-.51v-54.25l10.8-.51Zm0,65.66v55.23l-10.8-1.54v-54.2l10.8.51Zm0,65.71v55.09l-10.8-2.56v-54.07l10.8,1.54Zm0,65.75v54.86l-10.8-3.59v-53.84l10.8,2.56Zm0,65.79v54.55l-10.8-4.61v-53.53l10.8,3.59Zm0,65.84v54.16l-10.8-5.64v-53.13l10.8,4.61Zm0,65.86v53.72l-10.8-6.66v-52.68l10.8,5.63Zm0,65.91v53.18l-10.8-7.68v-52.16l10.8,6.66Zm0,65.94v52.6l-10.8-8.7v-51.6l10.8,7.69Zm0,65.95v52l-10.8-9.74v-50.96l10.8,8.7Zm0,65.98v51.33l-10.8-10.74v-50.31l10.8,9.72Zm22.59-1267.86v54.13l-12.17,9.82v-52.98l12.17-10.97Zm-12.17-3.02v-52.32l12.17-12.11v53.48l-12.17,10.96Zm12.17,70.5v54.75l-12.17,8.66v-53.61l12.17-9.8Zm0,67.5v55.33l-12.17,7.51v-54.17l12.17-8.66Zm0,67.52v55.85l-12.17,6.35v-54.7l12.17-7.51Zm0,67.56v56.3l-12.17,5.2v-55.14l12.17-6.35Zm0,67.59v56.68l-12.17,4.04v-55.53l12.17-5.2Zm0,67.63v56.99l-12.17,2.89v-55.85l12.17-4.03Zm0,67.66v57.24l-12.17,1.73v-56.08l12.17-2.89Zm0,67.71v57.37l-12.17.58v-56.21l12.17-1.73Zm0,67.75v57.41l-12.17-.56v-56.27l12.17-.58Zm0,67.8v57.37l-12.17-1.73v-56.21l12.17.58Zm0,67.84v57.24l-12.17-2.89v-56.08l12.17,1.73Zm0,67.9v56.99l-12.17-4.04v-55.84l12.17,2.89Zm0,67.93v56.7l-12.17-5.2v-55.53l12.17,4.03Zm0,67.98v56.31l-12.17-6.35v-55.14l12.17,5.18Zm0,68.02v55.84l-12.17-7.49v-54.7l12.17,6.35Zm0,68.05v55.33l-12.17-8.66v-54.17l12.17,7.51Zm0,68.07v54.75l-12.17-9.82v-53.6l12.17,8.66Zm0,68.1v54.13l-12.17-10.97v-52.98l12.17,9.82Zm0,68.11v53.48l-12.17-12.11v-52.32l12.17,10.96Zm24.11-1309.92v56.43l-13.7,11.03v-55.11l13.7-12.34Zm-13.7-1.65v-54.46l13.7-13.63v55.76l-13.7,12.33Zm13.7,71.42v57.05l-13.7,9.74v-55.74l13.7-11.04Zm0,69.79v57.61l-13.7,8.43v-56.31l13.7-9.74Zm0,69.81v58.14l-13.7,7.14v-56.83l13.7-8.45Zm0,69.85v58.59l-13.7,5.83v-57.28l13.7-7.14Zm0,69.87v58.98l-13.7,4.54v-57.68l13.7-5.84Zm0,69.91v59.29l-13.7,3.24v-57.99l13.7-4.54Zm0,69.95v59.51l-13.7,1.95v-58.22l13.7-3.24Zm0,69.99v59.65l-13.7.64v-58.35l13.7-1.95Zm0,70.03v59.71l-13.7-.66v-58.39l13.7-.66Zm0,70.09v59.65l-13.7-1.95v-58.35l13.7.64Zm0,70.13v59.52l-13.7-3.25v-58.22l13.7,1.95Zm0,70.18v59.29l-13.7-4.54v-58l13.7,3.25Zm0,70.22v58.98l-13.7-5.84v-57.68l13.7,4.54Zm0,70.26v58.59l-13.7-7.14v-57.29l13.7,5.84Zm0,70.3v58.14l-13.7-8.45v-56.83l13.7,7.14Zm0,70.33v57.61l-13.7-9.74v-56.31l13.7,8.43Zm0,70.36v57.05l-13.7-11.04v-55.74l13.7,9.74Zm0,70.38v56.42l-13.7-12.33v-55.11l13.7,11.03Zm0,70.41v55.76l-13.7-13.63v-54.46l13.7,12.33Zm25.76-1354.84v58.86l-15.35,12.38v-57.41l15.35-13.83Zm-15.35-.16v-56.74l15.35-15.3v58.2l-15.35,13.83Zm15.35,72.37v59.48l-15.35,10.92v-58.03l15.35-12.37Zm0,72.22v60.06l-15.35,9.47v-58.61l15.35-10.92Zm0,72.26v60.57l-15.35,8.02v-59.13l15.35-9.45Zm0,72.28v61.04l-15.35,6.55v-59.57l15.35-8.02Zm0,72.32v61.43l-15.35,5.09v-59.96l15.35-6.55Zm0,72.36v61.73l-15.35,3.64v-60.27l15.35-5.1Zm0,72.4v61.96l-15.35,2.18v-60.5l15.35-3.64Zm0,72.44v62.1l-15.35.73v-60.65l15.35-2.18Zm0,72.48v62.14l-15.35-.73v-60.67l15.35-.74Zm0,72.53v62.1l-15.35-2.19v-60.63l15.35.73Zm0,72.57v61.96l-15.35-3.64v-60.5l15.35,2.18Zm0,72.63v61.73l-15.35-5.1v-60.27l15.35,3.64Zm0,72.67v61.41l-15.35-6.55v-59.96l15.35,5.1Zm0,72.71v61.04l-15.35-8.02v-59.57l15.35,6.55Zm0,72.73v60.58l-15.35-9.47v-59.12l15.35,8Zm0,72.79v60.04l-15.35-10.92v-58.59l15.35,9.47Zm0,72.8v59.48l-15.35-12.37v-58.04l15.35,10.93Zm0,72.83v58.86l-15.35-13.83v-57.41l15.35,12.38Zm0,72.84v58.2l-15.35-15.28v-56.75l15.35,13.83Zm27.61-1402.93v61.49l-17.2,13.86v-59.85l17.2-15.5Zm-17.2,1.52v-59.2l17.2-17.12v60.82l-17.2,15.5Zm17.2,73.31v62.11l-17.2,12.23v-60.47l17.2-13.87Zm0,74.85v62.67l-17.2,10.6v-61.04l17.2-12.23Zm0,74.87v63.2l-17.2,8.97v-61.56l17.2-10.61Zm0,74.91v63.64l-17.2,7.35v-62.02l17.2-8.97Zm0,74.94v64.03l-17.2,5.72v-62.42l17.2-7.33Zm0,74.98v64.34l-17.2,4.08v-62.71l17.2-5.71Zm0,75v64.58l-17.2,2.44v-62.94l17.2-4.08Zm0,75.06v64.72l-17.2.82v-63.09l17.2-2.44Zm0,75.11v64.76l-17.2-.82v-63.13l17.2-.81Zm0,75.15v64.72l-17.2-2.46v-63.08l17.2.82Zm0,75.19v64.57l-17.2-4.07v-62.94l17.2,2.44Zm0,75.23v64.35l-17.2-5.71v-62.71l17.2,4.07Zm0,75.28v64.04l-17.2-7.35v-62.41l17.2,5.71Zm0,75.32v63.65l-17.2-8.97v-62.02l17.2,7.33Zm0,75.36v63.2l-17.2-10.61v-61.56l17.2,8.97Zm0,75.39v62.67l-17.2-12.23v-61.04l17.2,10.6Zm0,75.42v62.11l-17.2-13.87v-60.47l17.2,12.23Zm0,75.45v61.48l-17.2-15.5v-59.84l17.2,13.86Zm0,75.47v60.82l-17.2-17.12v-59.2l17.2,15.5Zm29.67-1454.54v64.3l-19.26,15.52v-62.47l19.26-17.35Zm-19.26,3.36v-61.8l19.26-19.18v63.63l-19.26,17.35Zm19.26,74.28v64.92l-19.26,13.7v-63.09l19.26-15.52Zm0,77.66v65.49l-19.26,11.87v-63.67l19.26-13.7Zm0,77.69v66.02l-19.26,10.05v-64.19l19.26-11.87Zm0,77.72v66.46l-19.26,8.22v-64.64l19.26-10.05Zm0,77.76v66.85l-19.26,6.39v-65.02l19.26-8.22Zm0,77.78v67.17l-19.26,4.57v-65.35l19.26-6.39Zm0,77.84v67.39l-19.26,2.74v-65.56l19.26-4.57Zm0,77.86v67.54l-19.26.91v-65.71l19.26-2.74Zm0,77.92v67.58l-19.26-.91v-65.75l19.26-.91Zm0,77.96v67.54l-19.26-2.74v-65.71l19.26.91Zm0,78.01v67.39l-19.26-4.57v-65.56l19.26,2.74Zm0,78.05v67.16l-19.26-6.39v-65.33l19.26,4.57Zm0,78.1v66.85l-19.26-8.22v-65.02l19.26,6.39Zm0,78.13v66.46l-19.26-10.05v-64.64l19.26,8.22Zm0,78.17v66.02l-19.26-11.87v-64.19l19.26,10.05Zm0,78.21v65.48l-19.26-13.7v-63.65l19.26,11.87Zm0,78.24v64.92l-19.26-15.52v-63.09l19.26,13.7Zm0,78.25v64.3l-19.26-17.35v-62.47l19.26,15.52Zm0,78.28v63.64l-19.26-19.18v-61.81l19.26,17.35Zm31.96-1510.05v67.32l-21.55,17.38v-65.29l21.55-19.41Zm-21.55,5.43v-64.62l21.55-21.46v66.66l-21.55,19.42Zm21.55,75.24v67.95l-21.55,15.32v-65.91l21.55-17.36Zm0,80.7v68.52l-21.55,13.28v-66.47l21.55-15.32Zm0,80.71v69.04l-21.55,11.24v-67l21.55-13.28Zm0,80.75v69.5l-21.55,9.2v-67.46l21.55-11.24Zm0,80.78v69.89l-21.55,7.16v-67.84l21.55-9.2Zm0,80.82v70.19l-21.55,5.12v-68.15l21.55-7.16Zm0,80.86v70.42l-21.55,3.06v-68.37l21.55-5.12Zm0,80.9v70.57l-21.55,1.02v-68.52l21.55-3.08Zm0,80.95v70.61l-21.55-1.02v-68.57l21.55-1.02Zm0,80.99v70.56l-21.55-3.06v-68.52l21.55,1.02Zm0,81.05v70.42l-21.55-5.12v-68.38l21.55,3.08Zm0,81.07v70.19l-21.55-7.14v-68.15l21.55,5.1Zm0,81.14v69.87l-21.55-9.19v-67.84l21.55,7.16Zm0,81.17v69.5l-21.55-11.24v-67.46l21.55,9.2Zm0,81.21v69.03l-21.55-13.28v-66.99l21.55,11.24Zm0,81.23v68.52l-21.55-15.32v-66.47l21.55,13.28Zm0,81.26v67.95l-21.55-17.36v-65.91l21.55,15.32Zm0,81.3v67.32l-21.55-19.42v-65.28l21.55,17.38Zm0,81.3v66.68l-21.55-21.46v-64.62l21.55,19.41Zm34.53-1569.95v70.6l-24.12,19.43v-68.31l24.12-21.72Zm-24.12,7.74v-67.66l24.12-24.01v69.94l-24.12,21.73Zm24.12,76.2v71.23l-24.12,17.15v-68.93l24.12-19.45Zm0,83.97v71.79l-24.12,14.87v-69.51l24.12-17.15Zm0,83.99v72.32l-24.12,12.58v-70.03l24.12-14.87Zm0,84.03v72.77l-24.12,10.29v-70.48l24.12-12.58Zm0,84.05v73.16l-24.12,8v-70.88l24.12-10.29Zm0,84.09v73.47l-24.12,5.72v-71.19l24.12-8Zm0,84.13v73.69l-24.12,3.44v-71.4l24.12-5.72Zm0,84.17v73.83l-24.12,1.14v-71.55l24.12-3.42Zm0,84.21v73.89l-24.12-1.15v-71.59l24.12-1.14Zm0,84.27v73.83l-24.12-3.42v-71.55l24.12,1.14Zm0,84.31v73.7l-24.12-5.72v-71.4l24.12,3.42Zm0,84.36v73.47l-24.12-8v-71.19l24.12,5.72Zm0,84.4v73.16l-24.12-10.3v-70.87l24.12,8Zm0,84.44v72.77l-24.12-12.58v-70.48l24.12,10.29Zm0,84.48v72.3l-24.12-14.87v-70.02l24.12,12.58Zm0,84.51v71.79l-24.12-17.16v-69.5l24.12,14.87Zm0,84.54v71.23l-24.12-19.45v-68.93l24.12,17.15Zm0,84.56v70.6l-24.12-21.73v-68.31l24.12,19.45Zm0,84.59v69.94l-24.12-24.01v-67.66l24.12,21.73Zm37.41-1634.78v74.16l-27.01,21.77v-71.59l27.01-24.33Zm-27.01,10.34v-70.92l27.01-26.9v73.5l-27.01,24.32Zm27.01,77.15v74.77l-27.01,19.2v-72.21l27.01-21.77Zm0,87.52v75.34l-27.01,16.65v-72.77l27.01-19.22Zm-27.01,1455.17v-71.59l27.01,21.77v74.16l-27.01-24.33Zm27.01,38.31v73.5l-27.01-26.9v-70.92l27.01,24.32Zm-27.01-123.24v-72.22l27.01,19.22v74.77l-27.01-21.77Zm0-84.97v-72.77l27.01,16.65v75.34l-27.01-19.22Zm27.01-496.06v77.25l-27.01-6.41v-74.68l27.01,3.84Zm-27.01-14.33v-74.81l27.01,1.28v77.39l-27.01-3.85Zm27.01,102.24v77.02l-27.01-8.97v-74.45l27.01,6.41Zm0,87.95v76.71l-27.01-11.54v-74.14l27.01,8.97Zm0,87.99v76.32l-27.01-14.09v-73.75l27.01,11.52Zm0,88.03v75.86l-27.01-16.65v-73.3l27.01,14.09Zm-27.01-451.41v-74.85l27.01-1.29v77.43l-27.01-1.29Zm27.01-514.56v76.32l-27.01,11.52v-73.75l27.01-14.09Zm-27.01,2.38v-73.3l27.01-16.65v75.86l-27.01,14.09Zm27.01,85.22v76.71l-27.01,8.96v-74.14l27.01-11.52Zm0,87.64v77.02l-27.01,6.41v-74.45l27.01-8.97Zm0,87.68v77.25l-27.01,3.84v-74.68l27.01-6.41Zm0,87.72v77.39l-27.01,1.28v-74.83l27.01-3.84Zm40.69-737.43v78.01l-30.28,24.41v-75.14l30.28-27.29Zm-30.28,13.29v-74.48l30.28-30.15v77.35l-30.28,27.27Zm30.28,78.06v78.63l-30.28,21.54v-75.77l30.28-24.4Zm0,91.37v79.19l-30.27,18.67v-76.32s30.27-21.54,30.27-21.54Zm-30.27,1517.81v-75.14l30.27,24.41v78l-30.27-27.27Zm30.27,41.27v77.35l-30.27-30.15v-74.48l30.27,27.27Zm-30.27-129.74v-75.77l30.27,21.54v78.63l-30.27-24.4Zm0-88.51v-76.32l30.27,18.65v79.21l-30.27-21.54Zm0-88.53v-76.86l30.27,15.79v79.73l-30.27-18.67Zm0-88.55v-77.31l30.27,12.92v80.19l-30.27-15.79Zm0-88.59v-77.7l30.27,10.06v80.56l-30.27-12.92Zm0-88.63v-78.01l30.27,7.18v80.87l-30.27-10.05Zm0-88.66v-78.24l30.27,4.31v81.1l-30.27-7.17Zm0-88.71v-78.37l30.27,1.44v81.25l-30.27-4.31Zm0-88.77v-78.41l30.27-1.44v81.29l-30.27-1.44Zm0-88.79v-78.37l30.27-4.31v81.25l-30.27,1.44Zm0-88.85v-78.24l30.27-7.17v81.1l-30.27,4.31Zm0-88.9v-78l30.27-10.06v80.88l-30.27,7.17Zm0-88.93v-77.7l30.27-12.92v80.56l-30.27,10.06Zm0-88.98v-77.31l30.27-15.79v80.19l-30.27,12.92Zm0-89.02v-76.84l30.27-18.67v79.72l-30.27,15.79Zm74.68-409.65v82.23l-34,27.4v-78.99l34-30.63Zm-34,16.64v-78.33l34-33.86v81.57l-34,30.62Zm34,78.92v82.85l-34,24.17v-79.61l34-27.41Zm0,95.59v83.41l-34,20.96v-80.19l34-24.19Zm0,95.62v83.93l-34,17.73v-80.71l34-20.95Zm0,95.63v84.39l-34,14.52v-81.17l34-17.74Zm0,95.68v84.78l-34,11.28v-81.56l34-14.5Zm0,95.71v85.09l-34,8.06v-81.86l34-11.28Zm0,95.75v85.32l-34,4.83v-82.09l34-8.06Zm0,95.79v85.45l-34,1.61v-82.23l34-4.83Zm0,95.84v85.49l-34-1.61v-82.27l34-1.61Zm0,95.88v85.45l-34-4.83v-82.23l34,1.61Zm0,95.93v85.32l-34-8.06v-82.09l34,4.83Zm0,95.98v85.09l-34-11.28v-81.86l34,8.06Zm0,96.02v84.78l-34-14.5v-81.56l34,11.28Zm0,96.07v84.38l-34-17.73v-81.17l34,14.52Zm0,96.09v83.93l-34-20.95v-80.71l34,17.73Zm0,96.14v83.41l-34-24.19v-80.19l34,20.96Zm0,96.15v82.85l-34-27.41v-79.62l34,24.19Zm0,96.18v82.23l-34-30.63v-78.99l34,27.4Zm0,96.21v81.57l-34-33.86v-78.33l34,30.62Zm48.65-1865.67v86.83l-38.25,30.83v-83.19l38.25-34.47Zm-38.25,20.48v-82.55l38.25-38.09v86.18l-38.25,34.46Zm38.25,79.7v87.45l-38.25,27.21v-83.83l38.25-30.83Zm0,100.21v88.02l-38.25,23.58v-84.39l38.25-27.21Zm-38.25,1660.68v-83.21l38.25,30.83v86.83l-38.25-34.46Zm38.25,48.45v86.18l-38.25-38.09v-82.55l38.25,34.46Zm-38.25-145v-83.83l38.25,27.19v87.46l-38.25-30.83Zm0-96.58v-84.39l38.25,23.57v88.03l-38.25-27.21Zm0-96.6v-84.91l38.25,19.94v88.55l-38.25-23.58Zm0-96.62v-85.38l38.25,16.33v89l-38.25-19.94Zm0-96.66v-85.76l38.25,12.69v89.39l-38.25-16.32Zm0-96.7v-86.07l38.25,9.06v89.71l-38.25-12.7Zm0-96.73v-86.31l38.25,5.45v89.92l-38.25-9.06Zm0-96.78v-86.44l38.25,1.81v90.07l-38.25-5.44Zm0-96.82v-86.48l38.25-1.81v90.11l-38.25-1.81Zm0-96.88v-86.43l38.25-5.45v90.07l-38.25,1.81Zm0-96.92v-86.3l38.25-9.06v89.92l-38.25,5.44Zm0-96.96v-86.08l38.25-12.69v89.71l-38.25,9.06Zm0-97.01v-85.76l38.25-16.33v89.4l-38.25,12.69Zm0-97.05v-85.37l38.25-19.96v89.01l-38.25,16.32Zm0-97.08v-84.91l38.25-23.58v88.55l-38.25,19.94Zm91.8-457.35v91.91l-43.15,34.78v-87.83l43.15-38.86Zm-43.15,24.87v-87.16l43.15-42.96v91.25l-43.15,38.86Zm43.15,80.37v92.54l-43.15,30.69v-88.45l43.15-34.78Zm0,105.29v93.11l-43.15,26.59v-89.01l43.15-30.69Zm0,105.31v93.62l-43.15,22.51v-89.53l43.15-26.59Zm0,105.33v94.09l-43.15,18.41v-89.99l43.15-22.51Zm0,105.37v94.47l-43.15,14.32v-90.38l43.15-18.41Zm0,105.41v94.78l-43.15,10.23v-90.69l43.15-14.33Zm0,105.45v95.01l-43.15,6.14v-90.92l43.15-10.23Zm0,105.49v95.15l-43.15,2.05v-91.06l43.15-6.14Zm0,105.54v95.19l-43.15-2.04v-91.1l43.15-2.04Zm0,105.58v95.15l-43.15-6.14v-91.06l43.15,2.05Zm0,105.62v95.01l-43.15-10.23v-90.92l43.15,6.14Zm0,105.67v94.78l-43.15-14.33v-90.69l43.15,10.23Zm0,105.72v94.46l-43.15-18.41v-90.38l43.15,14.33Zm0,105.76v94.09l-43.15-22.51v-89.99l43.15,18.41Zm0,105.78v93.63l-43.15-26.59v-89.53l43.15,22.49Zm0,105.84v93.11l-43.15-30.69v-89.02l43.15,26.6Zm0,105.85v92.53l-43.15-34.77v-88.45l43.15,30.69Zm0,105.88v91.91l-43.15-38.86v-87.83l43.15,34.78Zm0,105.9v91.25l-43.15-42.96v-87.17l43.15,38.88Zm59.22-2059.38v97.54l-48.82,39.35v-92.9l48.82-43.98Zm-48.82,29.99v-92.23l48.82-48.61v96.87l-48.82,43.98Zm48.82,80.88v98.15l-48.82,34.71v-93.52l48.82-39.35Zm0,110.9v98.73l-48.82,30.08v-94.09l48.82-34.73Zm0,110.93v99.24l-48.82,25.46v-94.61l48.82-30.09Zm0,110.95v99.7l-48.82,20.83v-95.07l48.82-25.46Zm0,110.98v100.09l-48.82,16.21v-95.46l48.82-20.84Zm0,111.02v100.41l-48.82,11.56v-95.76l48.82-16.21Zm0,111.07v100.63l-48.82,6.94v-96.01l48.82-11.56Zm0,111.1v100.76l-48.82,2.31v-96.13l48.82-6.94Zm0,111.15v100.8l-48.82-2.31v-96.18l48.82-2.31Zm0,111.19v100.76l-48.82-6.94v-96.14l48.82,2.32Zm0,111.23v100.63l-48.82-11.56v-96.01l48.82,6.94Zm0,111.29v100.4l-48.82-16.2v-95.78l48.82,11.58Zm0,111.34v100.09l-48.82-20.84v-95.46l48.82,16.21Zm0,111.37v99.7l-48.82-25.46v-95.07l48.82,20.83Zm0,111.41v99.24l-48.82-30.09v-94.61l48.82,25.46Zm0,111.44v98.73l-48.82-34.73v-94.09l48.82,30.08Zm0,111.48v98.15l-48.82-39.35v-93.53l48.82,34.73Zm0,111.49v97.54l-48.82-43.98v-92.9l48.82,39.35Zm0,111.52v96.88l-48.82-48.61v-92.25l48.82,43.98Zm65.84-2172.06v103.78l-55.44,44.69v-98.52l55.44-49.96Zm-55.44,35.96v-97.86l55.44-55.21v103.12l-55.44,49.94Zm55.44,81.15v104.4l-55.44,39.44v-99.15l55.44-44.69Zm0,117.14v104.98l-55.44,34.18v-99.71l55.44-39.44Zm0,117.17v105.49l-55.44,28.93v-100.24l55.44-34.18Zm0,117.2v105.94l-55.44,23.66v-100.68l55.44-28.93Zm0,117.24v106.33l-55.44,18.4v-101.08l55.44-23.65Zm0,117.26v106.64l-55.44,13.15v-101.39l55.44-18.4Zm0,117.3v106.87l-55.44,7.88v-101.61l55.44-13.15Zm0,117.34v107.02l-55.44,2.62v-101.75l55.44-7.88Zm0,117.4v107.06l-55.44-2.63v-101.79l55.44-2.63Zm0,117.44v107.02l-55.44-7.9v-101.75l55.44,2.63Zm0,117.49v106.87l-55.44-13.15v-101.61l55.44,7.88Zm0,117.53v106.64l-55.44-18.4v-101.39l55.44,13.15Zm0,117.57v106.33l-55.44-23.66v-101.07l55.44,18.4Zm0,117.63v105.94l-55.44-28.93v-100.68l55.44,23.66Zm0,117.64v105.5l-55.44-34.18v-100.24l55.44,28.91Zm0,117.69v104.96l-55.44-39.43v-99.71l55.44,34.18Zm0,117.71v104.4l-55.44-44.68v-99.15l55.44,39.43Zm0,117.75v103.77l-55.44-49.94v-98.52l55.44,44.69Zm0,117.76v103.12l-55.44-55.21v-97.86l55.44,49.94Zm73.65-2297.75v110.76l-63.22,50.98v-104.76l63.22-56.98Zm-63.22,42.99v-104.1l63.22-62.97v110.11l-63.22,56.97Zm63.22,81.11v111.38l-63.22,44.99v-105.39l63.22-50.98Zm0,124.14v111.95s-63.22,38.99-63.22,38.99v-105.96l63.22-44.97Zm.01,124.15v112.47l-63.24,32.98v-106.48l63.24-38.97Zm0,124.18v112.93l-63.24,26.98v-106.92l63.24-32.98Zm0,124.21v113.32l-63.24,20.99v-107.31l63.24-26.99Zm0,124.25v113.64l-63.24,14.99v-107.64l63.24-20.99Zm0,124.3v113.85l-63.24,9v-107.86l63.24-14.99Zm0,124.33v114l-63.24,2.99v-108l63.24-9Zm0,124.38v114.04l-63.24-2.99v-108.05l63.24-2.99Zm0,124.42v114l-63.24-9v-108l63.24,2.99Zm0,124.48v113.85l-63.24-14.99v-107.86l63.24,9Zm0,124.52v113.62l-63.24-20.99v-107.62l63.24,14.99Zm0,124.57v113.32l-63.24-26.99v-107.31l63.24,20.99Zm0,124.6v112.93l-63.24-32.98v-106.92l63.24,26.98Zm0,124.64v112.47l-63.24-38.99v-106.47l63.24,32.98Zm0,124.68v111.95l-63.24-44.97v-105.96l63.24,38.99Zm0,124.69v111.38l-63.24-50.98v-105.38l63.24,44.97Zm0,124.73v110.76l-63.24-56.98v-104.76l63.24,50.98Zm0,124.74v110.11l-63.24-62.97v-104.1l63.24,56.97Zm82.91-2438.81v118.62l-72.5,58.46v-111.74l72.5-65.33Zm-72.5,51.34v-111.09l72.5-72.21v117.96l-72.5,65.33Zm72.5,80.63v119.24l-72.5,51.58v-112.36l72.5-58.46Zm0,132v119.82l-72.5,44.69v-112.94l72.5-51.57Zm-72.5,2170.24v-111.74l72.5,58.44v118.63l-72.5-65.33Zm72.5,79.31v117.98l-72.5-72.21v-111.09l72.5,65.32Zm-72.5-204.41v-112.36l72.5,51.57v119.25l-72.5-58.46Zm0-125.11v-112.94l72.5,44.69v119.82l-72.5-51.57Zm0-125.15v-113.46l72.5,37.83v120.34l-72.5-44.71Zm0-125.16v-113.92l72.5,30.94v120.8l-72.5-37.82Zm0-125.2v-114.31l72.5,24.07v121.19l-72.5-30.94Zm0-125.24v-114.62l72.5,17.19v121.49l-72.5-24.07Zm0-125.28v-114.85l72.5,10.31v121.72l-72.5-17.19Zm0-125.32v-114.98l72.5,3.44v121.86l-72.5-10.31Zm0-125.36v-115.04l72.5-3.44v121.91l-72.5-3.44Zm0-125.42v-114.98l72.5-10.31v121.86l-72.5,3.44Zm0-125.46v-114.85l72.5-17.19v121.71l-72.5,10.33Zm0-125.51v-114.62l72.5-24.07v121.49l-72.5,17.19Zm0-125.55v-114.31l72.5-30.94v121.19l-72.5,24.07Zm0-125.59v-113.92l72.5-37.82v120.8l-72.5,30.94Zm0-125.63v-113.45l72.5-44.71v120.34l-72.5,37.82Zm166.56-638.87v127.54l-83.65,67.43v-119.6l83.65-75.36Zm-83.65,61.37v-118.96l83.65-83.29v126.88l-83.65,75.36Zm83.65,79.51v128.16l-83.65,59.51v-120.23l83.65-67.43Zm0,140.91v128.73l-83.65,51.57v-120.81l83.65-59.49Zm0,140.93v129.27l-83.65,43.63v-121.33l83.65-51.57Zm0,140.97v129.71l-83.65,35.71v-121.79l83.65-43.63Zm0,141.01v130.1l-83.65,27.76v-122.17l83.65-35.69Zm0,141.03v130.41l-83.65,19.84v-122.49l83.65-27.76Zm0,141.07v130.64l-83.65,11.9v-122.7l83.65-19.84Zm0,141.11v130.79l-83.65,3.96v-122.85l83.65-11.9Zm0,141.17v130.83l-83.65-3.98v-122.89l83.65-3.96Zm0,141.21v130.79l-83.65-11.9v-122.85l83.65,3.96Zm0,141.26v130.64l-83.65-19.84v-122.7l83.65,11.9Zm0,141.3v130.41l-83.65-27.77v-122.47l83.65,19.84Zm0,141.34v130.1l-83.65-35.69v-122.17l83.65,27.76Zm0,141.4v129.7l-83.65-43.63v-121.78l83.65,35.71Zm0,141.41v129.27l-83.65-51.57v-121.33l83.65,43.63Zm0,141.46v128.73l-83.65-59.49v-120.81l83.65,51.57Zm0,141.49v128.16l-83.65-67.43v-120.23l83.65,59.51Zm0,141.5v127.54l-83.65-75.36v-119.61l83.65,67.44Zm0,141.53v126.88l-83.65-83.29v-118.96l83.65,75.36Zm107.62-2779.96v137.74l-97.2,78.36v-128.53l97.2-87.57Zm-97.2,73.58v-127.87l97.2-96.78v137.09l-97.2,87.57Zm97.2,77.51v138.38l-97.2,69.13v-129.15l97.2-78.36Zm0,151.12v138.94l-97.2,59.92v-129.73l97.2-69.13Zm-97.2,2473.15v-128.53l97.2,78.35v137.76l-97.2-87.57Zm97.2,101.57v137.09l-97.2-96.78v-127.89l97.2,87.59Zm-97.2-243.45v-129.15l97.2,69.13v138.38l-97.2-78.36Zm0-141.89v-129.73l97.2,59.92v138.94l-97.2-69.13Zm0-141.93v-130.24l97.2,50.7v139.46l-97.2-59.92Zm0-141.95v-130.71l97.2,41.48v139.92l-97.2-50.7Zm0-141.99v-131.1l97.2,32.27v140.31l-97.2-41.48Zm0-142.03v-131.39l97.2,23.04v140.62l-97.2-32.27Zm0-142.05v-131.63l97.2,13.83v140.85l-97.2-23.04Zm0-142.11v-131.77l97.2,4.61v140.99l-97.2-13.83Zm0-142.16v-131.81l97.2-4.61v141.03l-97.2-4.62Zm0-142.19v-131.77l97.2-13.83v140.99l-97.2,4.61Zm0-142.24v-131.63l97.2-23.04v140.85l-97.2,13.83Zm0-142.3v-131.39l97.2-32.27v140.62l-97.2,23.04Zm0-142.34v-131.08l97.2-41.48v140.31l-97.2,32.26Zm0-142.38v-130.69l97.2-50.7v139.91l-97.2,41.48Zm0-142.4v-130.24l97.2-59.92v139.46l-97.2,50.7Zm221.5-755.52v149.53l-113.89,91.82v-138.74l113.89-102.61Zm-113.89,88.63v-138.08l113.89-113.42v148.88l-113.89,102.63Zm113.89,74.24v150.17l-113.89,81.02v-139.36l113.89-91.83Zm0,162.91v150.74l-113.89,70.21v-139.93l113.89-81.02Zm0,162.94v151.25l-113.89,59.41v-140.44l113.89-70.22Zm0,162.96v151.71l-113.89,48.61v-140.91l113.89-59.41Zm0,162.99v152.1l-113.89,37.8v-141.29l113.89-48.61Zm0,163.03v152.41l-113.89,27.01v-141.6l113.89-37.82Zm0,163.07v152.64l-113.89,16.21v-141.84l113.89-27.01Zm0,163.11v152.78l-113.89,5.4v-141.97l113.89-16.21Zm0,163.17v152.82l-113.89-5.41v-142.01l113.89-5.4Zm0,163.21v152.78l-113.89-16.21v-141.97l113.89,5.4Zm0,163.26v152.64l-113.89-27.01v-141.84l113.89,16.21Zm0,163.3v152.41l-113.89-37.82v-141.6l113.89,27.01Zm0,163.34v152.1l-113.89-48.61v-141.3l113.89,37.82Zm0,163.38v151.71l-113.89-59.41v-140.91l113.89,48.61Zm0,163.42v151.25l-113.89-70.22v-140.44l113.89,59.41Zm0,163.45v150.73l-113.89-81.01v-139.93l113.89,70.21Zm0,163.49v150.15l-113.89-91.82v-139.36l113.89,81.02Zm0,163.5v149.53l-113.89-102.61v-138.74l113.89,91.82Zm0,163.53v148.88l-113.89-113.42v-138.08l113.89,102.63Zm145.24-3231.78v163.31l-134.82,108.68v-150.53l134.82-121.47Zm-134.82,107.47v-149.86l134.82-134.27v162.66l-134.82,121.47Zm134.82,69.17v163.94l-134.82,95.9v-151.15l134.82-108.7Zm0,176.69v164.51l-134.82,83.11v-151.72l134.82-95.9Zm-134.82,2873.83v-150.53l134.82,108.68v163.31l-134.82-121.47Zm134.82,135.46v162.66l-134.82-134.27v-149.87l134.82,121.48Zm-134.82-299.34v-151.15l134.82,95.9v163.94l-134.82-108.7Zm0-163.89v-151.72l134.82,83.11v164.51l-134.82-95.9Zm134.82-954.38v166.42l-134.82-31.96v-153.63l134.82,19.18Zm-134.82-29.65v-153.76l134.82,6.39v166.55l-134.82-19.18Zm134.82,206.73v166.17l-134.82-44.75v-153.4l134.82,31.98Zm0,177.12v165.86l-134.82-57.54v-153.08l134.82,44.76Zm0,177.16v165.48l-134.82-70.33v-152.69l134.82,57.54Zm0,177.19v165.03l-134.82-83.11v-152.25l134.82,70.33Zm-134.82-902.35v-153.81l134.82-6.39v166.6l-134.82-6.41Zm134.82-1044.43v165.48l-134.82,57.54v-152.7l134.82-70.32Zm-134.82,58.62v-152.25l134.82-83.11v165.03l-134.82,70.33Zm134.82,118.15v165.86l-134.82,44.76v-153.09l134.82-57.53Zm0,176.8v166.19l-134.82,31.98v-153.4l134.82-44.76Zm0,176.85v166.42l-134.82,19.18v-153.63l134.82-31.96Zm0,176.89v166.55l-134.82,6.39v-153.76l134.82-19.18Zm-14.62-1605.36l-134.27,134.82h-149.87l121.48-134.82h162.66Zm-176.65,0l-121.45,134.82h-150.54l108.7-134.82h163.3Zm-176.65,0l-108.7,134.82h-151.13l95.88-134.82h163.94Zm-176.68,0l-95.91,134.82h-151.72s83.13-134.82,83.13-134.82h164.51Zm-176.7,0l-83.13,134.82h-152.23l70.32-134.82h165.05Zm-176.76,0l-70.32,134.82h-152.69l57.53-134.82h165.48Zm-176.76,0l-57.56,134.82h-153.07l44.75-134.82h165.88Zm-176.81,0l-44.75,134.82h-153.42l31.99-134.82h166.17Zm-176.84,0l-31.96,134.82h-153.63l19.18-134.82h166.42Zm-343.44,0h166.55l-19.18,134.82h-153.76l6.39-134.82Zm145.9,145.23l-16.22,113.9h-141.97l5.4-113.9h152.8ZM1959.3,10.41l-6.39,134.82h-153.82s-6.39-134.82-6.39-134.82h166.6Zm-164.7,259.14h-141.97l-16.2-113.9h152.77l5.4,113.9Zm-12.27-259.14l6.39,134.82h-153.76l-19.18-134.82h166.55Zm-177.02,0l19.18,134.82h-153.63l-31.96-134.82h166.42Zm-177.08,0l31.96,134.82h-153.39l-44.77-134.82h166.2Zm-177.13,0l44.77,134.82h-153.09l-57.53-134.82h165.85Zm-177.16,0l57.56,134.82h-152.72L908.46,10.41h165.48Zm-177.19,0l70.34,134.82h-152.26L731.73,10.41h165.02Zm-177.21,0l83.1,134.82h-151.72S555.03,10.41,555.03,10.41h164.51Zm-177.27,0l95.91,134.82h-151.16L378.33,10.41h163.94Zm-177.27,0l108.67,134.82h-150.52L201.68,10.41h163.33Zm-177.32,0l121.48,134.82h-149.87L25.03,10.41h162.66Zm996.53,2482.35v-52l10.8-8.7v50.96l-10.8,9.74Zm10.8,4.26v50.31l-10.8,10.74v-51.33l10.8-9.72Zm-10.8-69.6v-52.6l10.8-7.69v51.6l-10.8,8.7Zm0-65.36v-53.18l10.8-6.66v52.16l-10.8,7.68Zm0-65.37v-53.72l10.8-5.63v52.68l-10.8,6.66Zm0-65.41v-54.16l10.8-4.61v53.13l-10.8,5.64Zm0-65.45v-54.55l10.8-3.59v53.53l-10.8,4.61Zm0-65.48v-54.86l10.8-2.56v53.84l-10.8,3.59Zm0-65.52v-55.09l10.8-1.54v54.07l-10.8,2.56Zm0-65.56v-55.23l10.8-.51v54.2l-10.8,1.54Zm0-65.62v-55.27l10.8.51v54.25l-10.8.51Zm0-65.66v-55.23l10.8,1.54v54.2l-10.8-.51Zm0-65.71v-55.09l10.8,2.56v54.05l-10.8-1.53Zm0-65.75v-54.86l10.8,3.59v53.84l-10.8-2.56Zm0-65.79v-54.55l10.8,4.61v53.52l-10.8-3.57Zm0-65.84v-54.16l10.8,5.64v53.13l-10.8-4.61Zm0-65.87v-53.7l10.8,6.66v52.68l-10.8-5.64Zm0-65.9v-53.19l10.8,7.68v52.16l-10.8-6.65Zm0-65.94v-52.62l10.8,8.72v51.58l-10.8-7.68Zm0-65.95v-52l10.8,9.74v50.96l-10.8-8.7Zm0-65.98v-51.34l10.8,10.76v50.31l-10.8-9.72Zm-22.59,1267.86v-54.13l12.17-9.82v52.98l-12.17,10.97Zm12.17,3.02v52.32l-12.17,12.11v-53.48l12.17-10.96Zm-12.17-70.5v-54.75l12.17-8.66v53.6l-12.17,9.82Zm0-67.5v-55.33l12.17-7.51v54.17l-12.17,8.66Zm0-67.54v-55.84l12.17-6.35v54.7l-12.17,7.49Zm0-67.55v-56.31l12.17-5.18v55.14l-12.17,6.35Zm0-67.59v-56.7l12.17-4.03v55.53l-12.17,5.2Zm0-67.63v-56.99l12.17-2.89v55.84l-12.17,4.04Zm0-67.66v-57.24l12.17-1.73v56.08l-12.17,2.89Zm0-67.71v-57.37l12.17-.58v56.21l-12.17,1.73Zm0-67.76v-57.41l12.17.58v56.27l-12.17.56Zm0-67.79v-57.37l12.17,1.73v56.21l-12.17-.58Zm0-67.84v-57.24l12.17,2.89v56.08l-12.17-1.73Zm0-67.9v-56.99l12.17,4.03v55.85l-12.17-2.89Zm0-67.94v-56.68l12.17,5.2v55.53l-12.17-4.04Zm0-67.98v-56.3l12.17,6.35v55.14l-12.17-5.2Zm0-68.01v-55.85l12.17,7.51v54.7l-12.17-6.35Zm0-68.05v-55.33l12.17,8.66v54.17l-12.17-7.51Zm0-68.07v-54.75l12.17,9.8v53.61l-12.17-8.66Zm0-68.1v-54.13l12.17,10.97v52.98l-12.17-9.82Zm0-68.11v-53.48l12.17,12.11v52.32l-12.17-10.96Zm-24.09,1309.9v-56.42l13.68-11.03v55.11l-13.68,12.33Zm13.68,1.67v54.46l-13.68,13.63v-55.76l13.68-12.33Zm-13.68-71.42v-57.05l13.68-9.74v55.74l-13.68,11.04Zm0-69.79v-57.61l13.68-8.43v56.31l-13.68,9.74Zm0-69.81v-58.14l13.68-7.14v56.83l-13.68,8.45Zm0-69.85v-58.59l13.68-5.84v57.29l-13.68,7.14Zm0-69.87v-58.98l13.68-4.54v57.68l-13.68,5.84Zm0-69.91v-59.29l13.68-3.25v58l-13.68,4.54Zm0-69.95v-59.52l13.68-1.95v58.22l-13.68,3.25Zm0-69.99v-59.65l13.68-.64v58.35l-13.68,1.95Zm0-70.03v-59.71l13.68.66v58.39l-13.68.66Zm0-70.09v-59.65l13.68,1.95v58.35l-13.68-.64Zm0-70.14v-59.51l13.68,3.24v58.22l-13.68-1.95Zm0-70.17v-59.29l13.68,4.54v57.99l-13.68-3.24Zm0-70.22v-58.98l13.68,5.84v57.68l-13.68-4.54Zm0-70.26v-58.59l13.68,7.14v57.28l-13.68-5.83Zm0-70.3v-58.14l13.68,8.45v56.83l-13.68-7.14Zm0-70.33v-57.61l13.68,9.74v56.31l-13.68-8.43Zm0-70.36v-57.05l13.68,11.04v55.74l-13.68-9.74Zm0-70.38v-56.43l13.68,12.34v55.11l-13.68-11.03Zm0-70.41v-55.76l13.68,13.63v54.46l-13.68-12.33Zm-25.77,1354.84v-58.86l15.35-12.38v57.41l-15.35,13.83Zm15.35.15v56.75l-15.35,15.28v-58.2l15.35-13.83Zm-15.35-72.36v-59.48l15.35-10.93v58.04l-15.35,12.37Zm0-72.24v-60.04l15.35-9.47v58.59l-15.35,10.92Zm0-72.25v-60.58l15.35-8v59.12l-15.35,9.47Zm0-72.28v-61.04l15.35-6.55v59.57l-15.35,8.02Zm0-72.33v-61.41l15.35-5.1v59.96l-15.35,6.55Zm0-72.34v-61.73l15.35-3.64v60.27l-15.35,5.1Zm0-72.4v-61.96l15.35-2.18v60.5l-15.35,3.64Zm0-72.44v-62.1l15.35-.73v60.63l-15.35,2.19Zm0-72.49v-62.14l15.35.74v60.67l-15.35.73Zm0-72.52v-62.1l15.35,2.18v60.65l-15.35-.73Zm0-72.57v-61.96l15.35,3.64v60.5l-15.35-2.18Zm0-72.63v-61.73l15.35,5.1v60.27l-15.35-3.64Zm0-72.67v-61.43l15.35,6.55v59.96l-15.35-5.09Zm0-72.71v-61.04l15.35,8.02v59.57l-15.35-6.55Zm0-72.75v-60.57l15.35,9.45v59.13l-15.35-8.02Zm0-72.77v-60.06l15.35,10.92v58.61l-15.35-9.47Zm0-72.8v-59.48l15.35,12.37v58.03l-15.35-10.92Zm0-72.83v-58.86l15.35,13.83v57.41l-15.35-12.38Zm0-72.85v-58.2l15.35,15.3v56.74l-15.35-13.83Zm-27.61,1402.93v-61.48l17.2-13.86v59.84l-17.2,15.5Zm17.2-1.5v59.2l-17.2,17.12v-60.82l17.2-15.5Zm-17.2-73.31v-62.11l17.2-12.23v60.47l-17.2,13.87Zm0-74.85v-62.67l17.2-10.6v61.04l-17.2,12.23Zm0-74.87v-63.2l17.2-8.97v61.56l-17.2,10.61Zm0-74.91v-63.65l17.2-7.33v62.02l-17.2,8.97Zm0-74.94v-64.04l17.2-5.71v62.41l-17.2,7.35Zm0-74.98v-64.35l17.2-4.07v62.71l-17.2,5.71Zm0-75.02v-64.57l17.2-2.44v62.94l-17.2,4.07Zm0-75.04v-64.72l17.2-.82v63.08l-17.2,2.46Zm0-75.11v-64.76l17.2.81v63.13l-17.2.82Zm0-75.15v-64.72l17.2,2.44v63.09l-17.2-.82Zm0-75.19v-64.58l17.2,4.08v62.94l-17.2-2.44Zm0-75.24v-64.34l17.2,5.71v62.71l-17.2-4.08Zm0-75.28v-64.03l17.2,7.33v62.42l-17.2-5.72Zm0-75.32v-63.64l17.2,8.97v62.02l-17.2-7.35Zm0-75.35v-63.2l17.2,10.61v61.56l-17.2-8.97Zm0-75.39v-62.67l17.2,12.23v61.04l-17.2-10.6Zm0-75.42v-62.11l17.2,13.87v60.47l-17.2-12.23Zm0-75.45v-61.49l17.2,15.5v59.85l-17.2-13.86Zm0-75.47v-60.82l17.2,17.12v59.2l-17.2-15.5Zm-29.67,1454.54v-64.3l19.26-15.52v62.47l-19.26,17.35Zm19.26-3.37v61.81l-19.26,19.18v-63.64l19.26-17.35Zm-19.26-74.26v-64.92l19.26-13.7v63.09l-19.26,15.52Zm0-77.67v-65.48l19.26-11.87v63.65l-19.26,13.7Zm0-77.67v-66.02l19.26-10.05v64.19l-19.26,11.87Zm0-77.73v-66.46l19.26-8.22v64.64l-19.26,10.05Zm0-77.74v-66.85l19.26-6.39v65.02l-19.26,8.22Zm0-77.8v-67.16l19.26-4.57v65.33l-19.26,6.39Zm0-77.82v-67.39l19.26-2.74v65.56l-19.26,4.57Zm0-77.86v-67.54l19.26-.91v65.71l-19.26,2.74Zm0-77.92v-67.58l19.26.91v65.75l-19.26.91Zm0-77.96v-67.54l19.26,2.74v65.71l-19.26-.91Zm0-78.01v-67.39l19.26,4.57v65.56l-19.26-2.74Zm0-78.05v-67.17l19.26,6.39v65.35l-19.26-4.57Zm0-78.1v-66.85l19.26,8.22v65.02l-19.26-6.39Zm0-78.14v-66.46l19.26,10.05v64.64l-19.26-8.22Zm0-78.16v-66.02l19.26,11.87v64.19l-19.26-10.05Zm0-78.21v-65.49l19.26,13.7v63.67l-19.26-11.87Zm0-78.24v-64.92l19.26,15.52v63.09l-19.26-13.7Zm0-78.25v-64.3l19.26,17.35v62.47l-19.26-15.52Zm0-78.29v-63.63l19.26,19.18v61.8l-19.26-17.35Zm-31.96,1510.07v-67.32l21.54-17.38v65.28l-21.54,19.42Zm21.54-5.43v64.62l-21.54,21.46v-66.68l21.54-19.41Zm-21.54-75.24v-67.95l21.54-15.32v65.91l-21.54,17.36Zm0-80.7v-68.52l21.54-13.28v66.47l-21.54,15.32Zm0-80.72v-69.03l21.54-11.24v66.99l-21.54,13.28Zm0-80.74v-69.5l21.54-9.2v67.46l-21.54,11.24Zm0-80.79v-69.87l21.54-7.16v67.84l-21.54,9.19Zm0-80.82v-70.19l21.54-5.1v68.15l-21.54,7.14Zm0-80.84v-70.42l21.54-3.08v68.38l-21.54,5.12Zm0-80.91v-70.56l21.54-1.02v68.52l-21.54,3.06Zm0-80.94v-70.61l21.54,1.02v68.57l-21.54,1.02Zm0-80.99v-70.57l21.54,3.08v68.52l-21.54-1.02Zm0-81.05v-70.42l21.54,5.12v68.37l-21.54-3.06Zm0-81.09v-70.19l21.54,7.16v68.15l-21.54-5.12Zm0-81.13v-69.89l21.54,9.2v67.84l-21.54-7.16Zm0-81.17v-69.5l21.54,11.24v67.46l-21.54-9.2Zm0-81.21v-69.04l21.54,13.28v67l-21.54-11.24Zm0-81.23v-68.52l21.54,15.32v66.47l-21.54-13.28Zm0-81.26v-67.95l21.54,17.36v65.91l-21.54-15.32Zm0-81.3v-67.32l21.54,19.41v65.29l-21.54-17.38Zm0-81.31v-66.66l21.54,21.46v64.62l-21.54-19.42Zm-34.53,1569.96v-70.6l24.12-19.45v68.31l-24.12,21.73Zm24.12-7.74v67.66l-24.12,24.01v-69.94l24.12-21.73Zm-24.12-76.2v-71.23l24.12-17.15v68.93l-24.12,19.45Zm0-83.97v-71.79l24.12-14.87v69.5l-24.12,17.16Zm0-84v-72.3l24.12-12.58v70.02l-24.12,14.87Zm0-84.01v-72.77l24.12-10.29v70.48l-24.12,12.58Zm0-84.05v-73.16l24.12-8v70.87l-24.12,10.3Zm0-84.09v-73.47l24.12-5.72v71.19l-24.12,8Zm0-84.13v-73.7l24.12-3.42v71.4l-24.12,5.72Zm0-84.17v-73.83l24.12-1.14v71.55l-24.12,3.42Zm0-84.21v-73.89l24.12,1.14v71.59l-24.12,1.15Zm0-84.27v-73.83l24.12,3.42v71.55l-24.12-1.14Zm0-84.32v-73.69l24.12,5.72v71.4l-24.12-3.44Zm0-84.35v-73.47l24.12,8v71.19l-24.12-5.72Zm0-84.4v-73.16l24.12,10.29v70.88l-24.12-8Zm0-84.44v-72.77l24.12,12.58v70.48l-24.12-10.29Zm0-84.48v-72.32l24.12,14.87v70.03l-24.12-12.58Zm0-84.51v-71.79l24.12,17.15v69.51l-24.12-14.87Zm0-84.54v-71.23l24.12,19.45v68.93l-24.12-17.15Zm0-84.56v-70.6l24.12,21.72v68.31l-24.12-19.43Zm0-84.59v-69.94l24.12,24.01v67.66l-24.12-21.73Zm-37.41,1634.78v-74.16l27.01-21.77v71.59l-27.01,24.33Zm27.01-10.34v70.92l-27.01,26.9v-73.5l27.01-24.32Zm-27.01-77.15v-74.77l27.01-19.22v72.22l-27.01,21.77Zm0-87.52v-75.34l27.01-16.65v72.77l-27.01,19.22Zm0-87.55v-75.86l27.01-14.09v73.3l-27.01,16.65Zm0-87.57v-76.32l27.01-11.52v73.75l-27.01,14.09Zm0-87.6v-76.71l27.01-8.97v74.14l-27.01,11.54Zm0-87.64v-77.02l27.01-6.41v74.45l-27.01,8.97Zm0-87.68v-77.25l27.01-3.84v74.68l-27.01,6.41Zm0-87.72v-77.39l27.01-1.28v74.81l-27.01,3.85Zm0-87.77v-77.43l27.01,1.29v74.85l-27.01,1.29Zm0-87.81v-77.39l27.01,3.84v74.83l-27.01-1.28Zm0-87.87v-77.25l27.01,6.41v74.68l-27.01-3.84Zm0-87.91v-77.02l27.01,8.97v74.45l-27.01-6.41Zm0-87.95v-76.71l27.01,11.52v74.14l-27.01-8.96Zm0-87.99v-76.32l27.01,14.09v73.75l-27.01-11.52Zm0-88.03v-75.86l27.01,16.65v73.3l-27.01-14.09Zm0-88.07v-75.34l27.01,19.22v72.77l-27.01-16.65Zm0-88.08v-74.77l27.01,21.77v72.21l-27.01-19.2Zm0-88.11v-74.16l27.01,24.33v71.59l-27.01-21.77Zm0-88.14v-73.5l27.01,26.9v70.92l-27.01-24.32Zm-40.69,1705.14v-78l30.27-24.41v75.14l-30.27,27.27Zm30.27-13.28v74.48l-30.27,30.15v-77.35l30.27-27.27Zm-30.27-78.06v-78.63l30.27-21.54v75.77l-30.27,24.4Zm0-91.37v-79.21l30.27-18.65v76.32l-30.27,21.54Zm0-91.4v-79.73l30.27-15.79v76.86l-30.27,18.67Zm0-91.43v-80.19l30.27-12.92v77.31l-30.27,15.79Zm0-91.47v-80.56l30.27-10.06v77.7l-30.27,12.92Zm0-91.51v-80.87l30.27-7.18v78.01l-30.27,10.05Zm0-91.53v-81.1l30.27-4.31v78.24l-30.27,7.17Zm0-91.57v-81.25l30.27-1.44v78.37l-30.27,4.31Zm0-91.64v-81.29l30.28,1.44v78.41s-30.28,1.44-30.28,1.44Zm0-91.67v-81.25l30.28,4.31v78.37l-30.28-1.44Zm0-91.72v-81.1l30.28,7.17v78.24l-30.28-4.31Zm0-91.76v-80.88l30.28,10.06v78l-30.28-7.17Zm0-91.82v-80.56l30.28,12.92v77.7l-30.28-10.06Zm0-91.84v-80.19l30.28,15.79v77.31l-30.28-12.92Zm0-91.9v-79.72l30.28,18.67v76.84l-30.28-15.79Zm0-91.92v-79.19l30.28,21.54v76.32l-30.28-18.67Zm0-91.94v-78.63l30.28,24.4v75.77l-30.28-21.54Zm0-91.98v-78.01l30.28,27.29v75.14l-30.28-24.41Zm0-91.99v-77.35l30.28,30.15v74.48l-30.28-27.27Zm-44.41,1781.82v-82.23l34-27.4v78.99l-34,30.63Zm34-16.64v78.33l-34,33.86v-81.57l34-30.62Zm-34-78.92v-82.85l34-24.19v79.62l-34,27.41Zm0-95.59v-83.41l34-20.96v80.19l-34,24.19Zm0-95.62v-83.93l34-17.73v80.71l-34,20.95Zm0-95.64v-84.38l34-14.52v81.17l-34,17.73Zm0-95.67v-84.78l34-11.28v81.56l-34,14.5Zm0-95.71v-85.09l34-8.06v81.86l-34,11.28Zm0-95.75v-85.32l34-4.83v82.09l-34,8.06Zm0-95.79v-85.45l34-1.61v82.23l-34,4.83Zm0-95.84v-85.49l34,1.61v82.27l-34,1.61Zm0-95.88v-85.45l34,4.83v82.23l-34-1.61Zm0-95.93v-85.32l34,8.06v82.09l-34-4.83Zm0-95.98v-85.09l34,11.28v81.86l-34-8.06Zm0-96.02v-84.78l34,14.5v81.56l-34-11.28Zm0-96.07v-84.39l34,17.74v81.17l-34-14.52Zm0-96.09v-83.93l34,20.95v80.71l-34-17.73Zm0-96.14v-83.41l34,24.19v80.19l-34-20.96Zm0-96.15v-82.85l34,27.41v79.61l-34-24.17Zm0-96.18v-82.23l34,30.63v78.99l-34-27.4Zm0-96.21v-81.57l34,33.86v78.33l-34-30.62Zm-48.65,1865.66v-86.83l38.25-30.83v83.21l-38.25,34.46Zm38.25-20.47v82.55l-38.25,38.09v-86.18l38.25-34.46Zm-38.25-79.7v-87.46l38.25-27.19v83.83l-38.25,30.83Zm0-100.21v-88.03l38.25-23.57v84.39l-38.25,27.21Zm0-100.22v-88.55l38.25-19.94v84.91l-38.25,23.58Zm0-100.26v-89l38.25-16.33v85.38l-38.25,19.94Zm0-100.29v-89.39l38.25-12.69v85.76l-38.25,16.32Zm0-100.32v-89.71l38.25-9.06v86.07l-38.25,12.7Zm0-100.37v-89.92l38.25-5.45v86.31l-38.25,9.06Zm0-100.41v-90.07l38.25-1.81v86.44l-38.25,5.44Zm0-100.45v-90.11l38.25,1.81v86.48l-38.25,1.81Zm0-100.5v-90.07l38.25,5.45v86.43l-38.25-1.81Zm0-100.54v-89.92l38.25,9.06v86.3l-38.25-5.44Zm0-100.59v-89.71l38.25,12.69v86.08l-38.25-9.06Zm0-100.64v-89.4l38.25,16.33v85.76l-38.25-12.69Zm0-100.68v-89.01l38.25,19.96v85.37l-38.25-16.32Zm0-100.71v-88.55l38.25,23.58v84.91l-38.25-19.94Zm0-100.76v-88.02l38.25,27.21v84.39l-38.25-23.58Zm0-100.77v-87.45l38.25,30.83v83.83l-38.25-27.21Zm0-100.8v-86.83l38.25,34.47v83.19l-38.25-30.83Zm0-100.81v-86.18l38.25,38.09v82.55l-38.25-34.46Zm-53.56,1957.76v-91.91l43.15-34.78v87.83l-43.15,38.86Zm43.15-24.88v87.17l-43.15,42.96v-91.25l43.15-38.88Zm-43.15-80.37v-92.53l43.15-30.69v88.45l-43.15,34.77Zm0-105.27v-93.11l43.15-26.6v89.02l-43.15,30.69Zm0-105.31v-93.63l43.15-22.49v89.53l-43.15,26.59Zm0-105.33v-94.09l43.15-18.41v89.99l-43.15,22.51Zm0-105.38v-94.46l43.15-14.33v90.38l-43.15,18.41Zm0-105.39v-94.78l43.15-10.23v90.69l-43.15,14.33Zm0-105.45v-95.01l43.15-6.14v90.92l-43.15,10.23Zm0-105.49v-95.15l43.15-2.05v91.06l-43.15,6.14Zm0-105.54v-95.19l43.15,2.04v91.1l-43.15,2.04Zm0-105.58v-95.15l43.15,6.14v91.06l-43.15-2.05Zm0-105.62v-95.01l43.15,10.23v90.92l-43.15-6.14Zm0-105.67v-94.78l43.15,14.33v90.69l-43.15-10.23Zm0-105.72v-94.47l43.15,18.41v90.38l-43.15-14.32Zm0-105.76v-94.09l43.15,22.51v89.99l-43.15-18.41Zm0-105.8v-93.62l43.15,26.59v89.53l-43.15-22.51Zm0-105.82v-93.11l43.15,30.69v89.01l-43.15-26.59Zm0-105.85v-92.54l43.15,34.78v88.45l-43.15-30.69Zm0-105.88v-91.91l43.15,38.86v87.83l-43.15-34.78Zm0-105.9v-91.25l43.15,42.96v87.16l-43.15-38.86Zm-59.22,2059.38v-97.54l48.82-39.35v92.9l-48.82,43.98Zm48.82-30v92.25l-48.82,48.61v-96.88l48.82-43.98Zm-48.82-80.87v-98.15l48.82-34.73v93.53l-48.82,39.35Zm0-110.9v-98.73l48.82-30.08v94.09l-48.82,34.73Zm0-110.93v-99.24l48.82-25.46v94.61l-48.82,30.09Zm0-110.95v-99.7l48.82-20.83v95.07l-48.82,25.46Zm0-110.98v-100.09l48.82-16.21v95.46l-48.82,20.84Zm0-111.03v-100.4l48.82-11.58v95.78l-48.82,16.2Zm0-111.06v-100.63l48.82-6.94v96.01l-48.82,11.56Zm0-111.1v-100.76l48.82-2.32v96.14l-48.82,6.94Zm0-111.15v-100.8l48.82,2.31v96.18l-48.82,2.31Zm0-111.19v-100.76l48.82,6.94v96.13l-48.82-2.31Zm0-111.23v-100.63l48.82,11.56v96.01l-48.82-6.94Zm0-111.29v-100.41l48.82,16.21v95.76l-48.82-11.56Zm0-111.34v-100.09l48.82,20.84v95.46l-48.82-16.21Zm0-111.37v-99.7l48.82,25.46v95.07l-48.82-20.83Zm0-111.41v-99.24l48.82,30.09v94.61l-48.82-25.46Zm0-111.44v-98.73l48.82,34.73v94.09l-48.82-30.08Zm0-111.48v-98.15l48.82,39.35v93.52l-48.82-34.71Zm0-111.49v-97.54l48.82,43.98v92.9l-48.82-39.35Zm0-111.53v-96.87l48.82,48.61v92.23l-48.82-43.98Zm-65.84,2172.06v-103.77l55.44-44.69v98.52l-55.44,49.94Zm55.44-35.95v97.86l-55.44,55.21v-103.12l55.44-49.94Zm-55.44-81.17v-104.4l55.44-39.43v99.15l-55.44,44.68Zm0-117.14v-104.96l55.44-34.18v99.71l-55.44,39.43Zm0-117.16v-105.5l55.44-28.91v100.24l-55.44,34.18Zm0-117.2v-105.94l55.44-23.66v100.68l-55.44,28.93Zm0-117.24v-106.33l55.44-18.4v101.07l-55.44,23.66Zm0-117.26v-106.64l55.44-13.15v101.39l-55.44,18.4Zm0-117.3v-106.87l55.44-7.88v101.61l-55.44,13.15Zm0-117.34v-107.02l55.44-2.63v101.75l-55.44,7.9Zm0-117.4v-107.06l55.44,2.63v101.79l-55.44,2.63Zm0-117.44v-107.02l55.44,7.88v101.75l-55.44-2.62Zm0-117.49v-106.87l55.44,13.15v101.61l-55.44-7.88Zm0-117.53v-106.64l55.44,18.4v101.39l-55.44-13.15Zm0-117.57v-106.33l55.44,23.65v101.08l-55.44-18.4Zm0-117.63v-105.94l55.44,28.93v100.68l-55.44-23.66Zm0-117.65v-105.49l55.44,34.18v100.24l-55.44-28.93Zm0-117.68v-104.98l55.44,39.44v99.71l-55.44-34.18Zm0-117.72v-104.4l55.44,44.69v99.15l-55.44-39.44Zm0-117.73v-103.78l55.44,49.96v98.52l-55.44-44.69Zm0-117.76v-103.12l55.44,55.21v97.86l-55.44-49.94Zm-73.66,2297.75v-110.76l63.24-50.98v104.76l-63.24,56.98Zm63.24-42.99v104.1l-63.24,62.97v-110.11l63.24-56.97Zm-63.24-81.13v-111.38l63.24-44.97v105.38l-63.24,50.98Zm0-124.13v-111.95l63.24-38.99v105.96l-63.24,44.97Zm0-124.15v-112.47l63.24-32.98v106.47l-63.24,38.99Zm0-124.18v-112.93l63.24-26.98v106.92l-63.24,32.98Zm0-124.21v-113.32l63.24-20.99v107.31l-63.24,26.99Zm0-124.26v-113.62l63.24-14.99v107.62l-63.24,20.99Zm0-124.29v-113.85l63.24-9v107.86l-63.24,14.99Zm0-124.33v-114l63.24-2.99v108l-63.24,9Zm0-124.38v-114.04s63.24,2.99,63.24,2.99v108.05l-63.24,2.99Zm.01-124.42v-114l63.22,9v108l-63.22-2.99Zm0-124.48v-113.85l63.22,14.99v107.86l-63.22-9Zm0-124.52v-113.64l63.22,20.99v107.64l-63.22-14.99Zm0-124.57v-113.32l63.22,26.99v107.31l-63.22-20.99Zm0-124.6v-112.93l63.22,32.98v106.92l-63.22-26.98Zm0-124.64v-112.47l63.22,38.97v106.48l-63.22-32.98Zm0-124.68v-111.95l63.22,44.97v105.96l-63.22-38.99Zm0-124.7v-111.38l63.22,50.98v105.39l-63.22-44.99Zm0-124.72v-110.76l63.22,56.98v104.76l-63.22-50.98Zm0-124.74v-110.11l63.22,62.97v104.1l-63.22-56.97Zm-82.93,2438.81v-118.63l72.5-58.44v111.74l-72.5,65.33Zm72.5-51.34v111.09l-72.5,72.21v-117.98l72.5-65.32Zm-72.5-80.63v-119.25l72.5-51.57v112.36l-72.5,58.46Zm0-132v-119.82l72.5-44.69v112.94l-72.5,51.57Zm0-132.01v-120.34l72.5-37.83v113.46l-72.5,44.71Zm0-132.05v-120.8l72.5-30.94v113.92l-72.5,37.82Zm0-132.08v-121.19l72.5-24.07v114.31l-72.5,30.94Zm0-132.12v-121.49l72.5-17.19v114.62l-72.5,24.07Zm0-132.16v-121.72l72.5-10.31v114.85l-72.5,17.19Zm0-132.2v-121.86l72.5-3.44v114.98l-72.5,10.31Zm0-132.24v-121.91l72.5,3.44v115.04l-72.5,3.44Zm0-132.29v-121.86l72.5,10.31v114.98l-72.5-3.44Zm0-132.35v-121.71l72.5,17.19v114.85l-72.5-10.33Zm0-132.37v-121.49l72.5,24.07v114.62l-72.5-17.19Zm0-132.43v-121.19l72.5,30.94v114.31l-72.5-24.07Zm0-132.47v-120.8l72.5,37.82v113.92l-72.5-30.94Zm0-132.51v-120.34l72.5,44.71v113.45l-72.5-37.82Zm0-132.53v-119.82l72.5,51.57v112.94l-72.5-44.69Zm0-132.57v-119.24l72.5,58.46v112.36l-72.5-51.58Zm0-132.59v-118.62l72.5,65.33v111.74l-72.5-58.46Zm0-132.61v-117.96l72.5,72.21v111.09l-72.5-65.33Zm-94.06,2598.27v-127.54l83.65-67.44v119.61l-83.65,75.36Zm83.65-61.37v118.96l-83.65,83.29v-126.88l83.65-75.36Zm-83.65-79.51v-128.16l83.65-59.51v120.23l-83.65,67.43Zm0-140.91v-128.73l83.65-51.57v120.81l-83.65,59.49Zm0-140.93v-129.27l83.65-43.63v121.33l-83.65,51.57Zm0-140.98v-129.7l83.65-35.71v121.78l-83.65,43.63Zm0-140.99v-130.1l83.65-27.76v122.17l-83.65,35.69Zm0-141.03v-130.41l83.65-19.84v122.47l-83.65,27.77Zm0-141.07v-130.64l83.65-11.9v122.7l-83.65,19.84Zm0-141.11v-130.79l83.65-3.96v122.85l-83.65,11.9Zm0-141.17v-130.83l83.65,3.96v122.89l-83.65,3.98Zm0-141.21v-130.79l83.65,11.9v122.85l-83.65-3.96Zm0-141.26v-130.64l83.65,19.84v122.7l-83.65-11.9Zm0-141.3v-130.41l83.65,27.76v122.49l-83.65-19.84Zm0-141.34v-130.1l83.65,35.69v122.17l-83.65-27.76Zm0-141.4v-129.71l83.65,43.63v121.79l-83.65-35.71Zm0-141.41v-129.27l83.65,51.57v121.33l-83.65-43.63Zm0-141.46v-128.73l83.65,59.49v120.81l-83.65-51.57Zm0-141.49v-128.16l83.65,67.43v120.23l-83.65-59.51Zm0-141.5v-127.54l83.65,75.36v119.6l-83.65-67.43Zm0-141.53v-126.88l83.65,83.29v118.96l-83.65-75.36Zm-107.61,2779.96v-137.76l97.19-78.35v128.53l-97.19,87.57Zm97.19-73.59v127.89l-97.19,96.78v-137.09l97.19-87.59Zm-97.19-77.5v-138.38l97.19-69.13v129.15l-97.19,78.36Zm0-151.12v-138.94l97.19-59.92v129.73l-97.19,69.13Zm0-151.15v-139.46l97.19-50.7v130.24l-97.19,59.92Zm0-151.17v-139.92l97.19-41.48v130.71l-97.19,50.7Zm0-151.2v-140.31l97.19-32.27v131.1l-97.19,41.48Zm0-151.24v-140.62l97.19-23.04v131.39l-97.19,32.27Zm0-151.28v-140.85l97.19-13.83v131.63l-97.19,23.04Zm0-151.32v-140.99l97.19-4.61v131.77l-97.19,13.83Zm0-151.37v-141.03l97.19,4.61v131.81l-97.19,4.62Zm0-151.41v-140.99l97.19,13.83v131.77l-97.19-4.61Zm0-151.47v-140.85l97.19,23.04v131.63l-97.19-13.83Zm0-151.51v-140.62l97.19,32.27v131.39l-97.19-23.04Zm0-151.55v-140.31l97.19,41.48v131.08l-97.19-32.26Zm0-151.6v-139.91l97.19,50.7v130.69l-97.19-41.48Zm0-151.62v-139.46l97.19,59.92v130.24l-97.19-50.7Zm0-151.67v-138.94l97.2,69.13v129.73s-97.2-59.92-97.2-59.92Zm0-151.68v-138.38l97.2,78.36v129.15l-97.2-69.13Zm0-151.72v-137.74l97.2,87.57v128.53l-97.2-78.36Zm0-151.74v-137.09l97.2,96.78v127.87l-97.2-87.57Zm-124.33,2988.92v-149.53l113.91-91.82v138.74l-113.91,102.61Zm113.91-88.63v138.08l-113.91,113.42v-148.88l113.91-102.63Zm-113.91-74.25v-150.15l113.91-81.02v139.36l-113.91,91.82Zm0-162.91v-150.73s113.91-70.21,113.91-70.21v139.93l-113.91,81.01Zm.01-162.92v-151.25l113.89-59.41v140.44l-113.89,70.22Zm0-162.96v-151.71l113.89-48.61v140.91l-113.89,59.41Zm0-162.99v-152.1l113.89-37.82v141.3l-113.89,48.61Zm0-163.03v-152.41l113.89-27.01v141.6l-113.89,37.82Zm0-163.07v-152.64l113.89-16.21v141.84l-113.89,27.01Zm0-163.11v-152.78l113.89-5.4v141.97l-113.89,16.21Zm0-163.17v-152.82l113.89,5.4v142.01l-113.89,5.41Zm0-163.21v-152.78l113.89,16.21v141.97l-113.89-5.4Zm0-163.26v-152.64l113.89,27.01v141.84l-113.89-16.21Zm0-163.3v-152.41l113.89,37.82v141.6l-113.89-27.01Zm0-163.34v-152.1l113.89,48.61v141.29l-113.89-37.8Zm0-163.38v-151.71l113.89,59.41v140.91l-113.89-48.61Zm0-163.42v-151.25l113.89,70.22v140.44l-113.89-59.41Zm0-163.45v-150.74l113.89,81.02v139.93l-113.89-70.21Zm0-163.49v-150.17l113.89,91.83v139.36l-113.89-81.02Zm0-163.5v-149.53l113.89,102.61v138.74l-113.89-91.82Zm0-163.53v-148.88l113.89,113.42v138.08l-113.89-102.63ZM10.42,3550.32v-163.31l134.82-108.68v150.53l-134.82,121.47Zm134.82-107.49v149.87l-134.82,134.27v-162.66l134.82-121.48Zm-134.82-69.16v-163.94l134.82-95.9v151.15l-134.82,108.7Zm0-176.69v-164.51l134.82-83.11v151.72l-134.82,95.9Zm0-176.7v-165.03l134.82-70.33v152.25l-134.82,83.11Zm0-176.74v-165.48l134.82-57.54v152.69l-134.82,70.33Zm0-176.77v-165.86l134.82-44.76v153.08l-134.82,57.54Zm0-176.81v-166.17l134.82-31.98v153.4l-134.82,44.75Zm0-176.84v-166.42l134.82-19.18v153.63l-134.82,31.96Zm0-176.89v-166.55l134.82-6.39v153.76l-134.82,19.18Zm0-176.93v-166.6l134.82,6.39v153.81l-134.82,6.41Zm0-176.98v-166.55l134.82,19.18v153.76l-134.82-6.39Zm0-177.02v-166.42l134.82,31.96v153.63l-134.82-19.18Zm0-177.08v-166.19l134.82,44.76v153.4l-134.82-31.98Zm0-177.12v-165.86l134.82,57.53v153.09l-134.82-44.76Zm0-177.16v-165.48l134.82,70.32v152.7l-134.82-57.54Zm0-177.19v-165.03l134.82,83.11v152.25L10.42,896.75Zm0-177.23v-164.51l134.82,95.9v151.72L10.42,719.53Zm0-177.25v-163.94l134.82,108.7v151.15L10.42,542.27Zm0-177.28v-163.31l134.82,121.47v150.53L10.42,364.99Zm0-177.31V25.03l134.82,134.27v149.86L10.42,187.69Zm14.61,3553.9l134.27-134.82h149.87l-121.48,134.82H25.03Zm176.65,0l121.48-134.82h150.52l-108.67,134.82h-163.33Zm176.65,0l108.7-134.82h151.16l-95.91,134.82h-163.94Zm176.7,0l95.88-134.82h151.72s-83.1,134.82-83.1,134.82h-164.51Zm176.7,0l83.1-134.82h152.26l-70.34,134.82h-165.02Zm176.73,0l70.32-134.82h152.72l-57.56,134.82h-165.48Zm176.78,0l57.53-134.82h153.09l-44.77,134.82h-165.85Zm176.78,0l44.77-134.82h153.39l-31.96,134.82h-166.2Zm176.86,0l31.96-134.82h153.63l-19.18,134.82h-166.42Zm343.44,0h-166.55l19.18-134.82h153.76l-6.39,134.82Zm-145.9-145.23l16.2-113.9h141.97l-5.4,113.9h-152.77Zm156.26,145.23l6.39-134.82h153.82s6.39,134.82,6.39,134.82h-166.6Zm164.7-259.14h141.97l16.22,113.9h-152.8l-5.4-113.9Zm12.3,259.14l-6.39-134.82h153.76l19.18,134.82h-166.55Zm177.02,0l-19.18-134.82h153.63l31.96,134.82h-166.42Zm177.08,0l-31.99-134.82h153.42l44.75,134.82h-166.17Zm177.11,0l-44.75-134.82h153.07l57.56,134.82h-165.88Zm177.16,0l-57.53-134.82h152.69l70.32,134.82h-165.48Zm177.19,0l-70.32-134.82h152.23l83.13,134.82h-165.05Zm177.24,0l-83.13-134.82h151.72s95.91,134.82,95.91,134.82h-164.51Zm177.24,0l-95.88-134.82h151.13l108.7,134.82h-163.94Zm177.29,0l-108.7-134.82h150.54l121.45,134.82h-163.3Zm177.29,0l-121.48-134.82h149.87l134.27,134.82h-162.66Z"/>
</svg>