<?xml version="1.0" encoding="UTF-8"?>
<svg id="Layer_1" data-name="Layer 1" xmlns="http://www.w3.org/2000/svg" viewBox="0 0 4202.15 1901.8">
  <path d="m0,0v1901.8h4202.15V0H0Zm4188.16,515.17l-398.82,82.15V13.98h398.82v501.19ZM412.8,1292.78L13.98,1374.93v-845.47l398.82,82.14v681.19Zm2616.42-156.56v-368.06l746.14-153.68v675.43l-746.14-153.68Zm746.14,167.96v575.29l-746.14-416.81v-312.17l746.14,153.68ZM3028.75,114.71h-186.34V13.98h299.18l-112.84,100.73Zm-186.34,1489.87v-230.25l172.82,96.54v287.98l-172.82-154.27Zm166.49,167.36h-166.49v-148.61l166.49,148.61Zm-166.49-413.63v-246.29l172.82,35.6v307.24l-172.82-96.54Zm0-260.57v-291.11l172.82-35.6v362.3l-172.82-35.6Zm0-305.39v-251.74l172.82-96.54v312.69l-172.82,35.6Zm0-267.76v-224.8l172.82-154.27v282.53l-172.82,96.54Zm0-243.55v-152.5h170.84l-170.84,152.5Zm-1250.79,394.56v164.51l-217.91-44.88v-241.36l217.91,121.73Zm-217.91-137.74v-225.58l217.91,194.52v152.79l-217.91-121.73Zm217.91,316.53v195.58l-217.91,44.88v-285.35l217.91,44.88Zm0,209.86v159.06l-217.91,121.73v-235.9l217.91-44.88Zm0,175.07v158.24l-217.91,194.52v-231.03l217.91-121.73Zm8.41,169.48h1002.06l226.33,202.03v161.1h-1454.72v-161.1l226.32-202.03Zm562.48-411.14c.56-.73,1.12-1.46,1.66-2.22l174.69,97.59v62.05l-176.35-157.42Zm164.13,165.26h-451.16l173.58-154.95c13.74,12.52,31.95,20.22,52,20.22s38.26-7.7,52-20.22l173.58,154.95Zm-155.48-179.59c1.33-2.87,2.53-5.8,3.51-8.85l164.19,33.82v68.71l-167.7-93.68Zm6.5-22.51c.42-3.26.71-6.55.71-9.92,0-2.5-.14-4.97-.37-7.42l160.87-33.13v83.68l-161.2-33.2Zm-2.3-31.08c-1.34-4.72-3.12-9.24-5.29-13.55l168.79-94.29v74.17l-163.5,33.68Zm-5.94-29.2l169.44-151.25v56.6l-169.44,94.65Zm-14.93-5.42c-13.88-13.3-32.68-21.52-53.43-21.52s-39.54,8.22-53.43,21.52l-175.04-156.25h456.93l-175.03,156.24Zm-116.03,10.56c-.61.84-1.24,1.66-1.81,2.52l-173.38-96.85v-62.05l175.19,156.38Zm-8.47,14.81c-1.28,2.99-2.32,6.09-3.23,9.25l-163.49-33.68v-68.71l166.72,93.13Zm-5.86,22.99c-.23,2.44-.38,4.91-.38,7.42,0,3.37.29,6.67.71,9.92l-161.2,33.2v-83.68l160.87,33.13Zm3.32,31.01c.48,1.51,1.05,2.98,1.63,4.45l-165.82,92.63v-63.26l164.19-33.82Zm7.89,16.97c1.32,2.14,2.75,4.21,4.27,6.21l-176.34,157.41v-67.5l172.07-96.12Zm306.96,185.46l244.12,217.92h-970.73l244.12-217.92h482.49Zm10.54-9.34v-66.72l243.68,136.12v148.12l-243.68-217.52Zm0-82.74v-73.64l243.68,50.19v159.58l-243.68-136.12Zm0-87.92v-89.44l243.68-50.19v189.82l-243.68-50.19Zm0-103.72v-79.1l243.68-136.12v165.03l-243.68,50.19Zm0-95.11v-61.27l243.68-217.52v142.67l-243.68,136.12Zm-7.65-73.19h-488.26l-244.12-217.92h976.5l-244.12,217.92Zm-495.9,11.92v66.72l-243.69-136.13v-148.12l243.69,217.53Zm0,82.74v73.64l-243.69-50.19v-159.58l243.69,136.13Zm0,87.92v89.44l-243.69,50.19v-189.82l243.69,50.19Zm0,103.72v68.19l-243.69,136.13v-154.13l243.69-50.19Zm0,84.2v72.17l-243.69,217.53v-153.57l243.69-136.13Zm761.22,302.18v-152.79l217.92,121.73v225.58l-217.92-194.52Zm0-168.81v-164.51l217.92,44.88v241.36l-217.92-121.73Zm0-178.79v-195.58l217.92-44.88v285.35l-217.92-44.88Zm0-209.86v-169.96l217.92-121.73v246.81l-217.92,44.88Zm0-185.98v-147.34l217.92-194.52v220.13l-217.92,121.73Zm-5.53-161.15h-1007.83l-223.44-199.45v-164.99h1454.72v164.99l-223.44,199.46ZM1373.71,114.71V13.98h1454.72v100.73h-1454.72Zm-186.81,1644.14v-293.43l172.82-96.54v235.7l-172.82,154.27Zm172.82-135.53v148.62h-166.5l166.5-148.62Zm-172.82-173.92v-301.78l172.82-35.6v240.84l-172.82,96.54Zm0-316.06v-362.3l172.82,35.6v291.11l-172.82,35.6Zm0-376.58v-307.23l172.82,96.54v246.29l-172.82-35.6Zm0-323.25V145.53l172.82,154.27v230.25l-172.82-96.54Zm1.97-304.96h170.85v152.51l-170.85-152.51Zm-15.5-13.84l-112.84-100.73h299.19v100.73h-186.35Zm-.46,18.34v292.65L435.9,13.98h603.64l133.38,119.06Zm-746.14,467.15V24.91l746.14,416.81v312.16l-746.14-153.68Zm746.14,167.96v368.06l-746.14,153.68v-675.43l746.14,153.68Zm-746.14,536.02l746.14-153.68v306.71l-746.14,416.81v-569.84Zm746.14,169.05v298.1l-130.5,116.49H430.75l742.17-414.59Zm4.81,312.55h181.99v102.04h-296.3l114.31-102.04Zm195.98,0h1454.72v102.04h-1454.72v-102.04Zm1468.7,0h181.98l114.31,102.04h-296.3v-102.04Zm186.81-14.44v-292.65l732.4,409.14h-601.91l-130.49-116.48Zm746.14-1171.14l-746.14,153.68v-317.62L3775.36,19.45v580.75Zm-746.14-179.96V133.04l133.38-119.06h593.87l-727.25,406.26Zm760.12,191.35l398.82-82.15v845.48l-398.82-82.15v-681.19ZM407.23,13.98l5.57,3.11v580.22L13.98,515.17V13.98h393.25ZM13.98,1389.21l398.82-82.14v574.77l-10.72,5.99H13.98v-498.61Zm3776.31,498.61l-.96-.53v-580.23l398.82,82.15v498.61h-397.87Z"/>
</svg>